<?xml version="1.0" encoding="utf-8" standalone="no"?>
<!DOCTYPE svg PUBLIC "-//W3C//DTD SVG 1.1//EN"
  "http://www.w3.org/Graphics/SVG/1.1/DTD/svg11.dtd">
<!-- Created with matplotlib (https://matplotlib.org/) -->
<svg height="288pt" version="1.1" viewBox="0 0 432 288" width="432pt" xmlns="http://www.w3.org/2000/svg" xmlns:xlink="http://www.w3.org/1999/xlink">
 <metadata>
  <rdf:RDF xmlns:cc="http://creativecommons.org/ns#" xmlns:dc="http://purl.org/dc/elements/1.1/" xmlns:rdf="http://www.w3.org/1999/02/22-rdf-syntax-ns#">
   <cc:Work>
    <dc:type rdf:resource="http://purl.org/dc/dcmitype/StillImage"/>
    <dc:date>2021-12-01T12:49:53.488735</dc:date>
    <dc:format>image/svg+xml</dc:format>
    <dc:creator>
     <cc:Agent>
      <dc:title>Matplotlib v3.3.3, https://matplotlib.org/</dc:title>
     </cc:Agent>
    </dc:creator>
   </cc:Work>
  </rdf:RDF>
 </metadata>
 <defs>
  <style type="text/css">*{stroke-linecap:butt;stroke-linejoin:round;}</style>
 </defs>
 <g id="figure_1">
  <g id="patch_1">
   <path d="M 0 288 
L 432 288 
L 432 0 
L 0 0 
z
" style="fill:none;"/>
  </g>
  <g id="axes_1">
   <g id="patch_2">
    <path d="M 54 252 
L 388.8 252 
L 388.8 34.56 
L 54 34.56 
z
" style="fill:#ffffff;"/>
   </g>
   <g id="matplotlib.axis_1">
    <g id="xtick_1">
     <g id="line2d_1">
      <defs>
       <path d="M 0 0 
L 0 3.5 
" id="ma3096ba9ee" style="stroke:#000000;stroke-width:0.8;"/>
      </defs>
      <g>
       <use style="stroke:#000000;stroke-width:0.8;" x="69.218182" xlink:href="#ma3096ba9ee" y="252"/>
      </g>
     </g>
     <g id="text_1">
      <!-- 0 -->
      <g transform="translate(66.036932 266.598437)scale(0.1 -0.1)">
       <defs>
        <path d="M 31.78125 66.40625 
Q 24.171875 66.40625 20.328125 58.90625 
Q 16.5 51.421875 16.5 36.375 
Q 16.5 21.390625 20.328125 13.890625 
Q 24.171875 6.390625 31.78125 6.390625 
Q 39.453125 6.390625 43.28125 13.890625 
Q 47.125 21.390625 47.125 36.375 
Q 47.125 51.421875 43.28125 58.90625 
Q 39.453125 66.40625 31.78125 66.40625 
z
M 31.78125 74.21875 
Q 44.046875 74.21875 50.515625 64.515625 
Q 56.984375 54.828125 56.984375 36.375 
Q 56.984375 17.96875 50.515625 8.265625 
Q 44.046875 -1.421875 31.78125 -1.421875 
Q 19.53125 -1.421875 13.0625 8.265625 
Q 6.59375 17.96875 6.59375 36.375 
Q 6.59375 54.828125 13.0625 64.515625 
Q 19.53125 74.21875 31.78125 74.21875 
z
" id="DejaVuSans-48"/>
       </defs>
       <use xlink:href="#DejaVuSans-48"/>
      </g>
     </g>
    </g>
    <g id="xtick_2">
     <g id="line2d_2">
      <g>
       <use style="stroke:#000000;stroke-width:0.8;" x="116.812183" xlink:href="#ma3096ba9ee" y="252"/>
      </g>
     </g>
     <g id="text_2">
      <!-- 200 -->
      <g transform="translate(107.268433 266.598437)scale(0.1 -0.1)">
       <defs>
        <path d="M 19.1875 8.296875 
L 53.609375 8.296875 
L 53.609375 0 
L 7.328125 0 
L 7.328125 8.296875 
Q 12.9375 14.109375 22.625 23.890625 
Q 32.328125 33.6875 34.8125 36.53125 
Q 39.546875 41.84375 41.421875 45.53125 
Q 43.3125 49.21875 43.3125 52.78125 
Q 43.3125 58.59375 39.234375 62.25 
Q 35.15625 65.921875 28.609375 65.921875 
Q 23.96875 65.921875 18.8125 64.3125 
Q 13.671875 62.703125 7.8125 59.421875 
L 7.8125 69.390625 
Q 13.765625 71.78125 18.9375 73 
Q 24.125 74.21875 28.421875 74.21875 
Q 39.75 74.21875 46.484375 68.546875 
Q 53.21875 62.890625 53.21875 53.421875 
Q 53.21875 48.921875 51.53125 44.890625 
Q 49.859375 40.875 45.40625 35.40625 
Q 44.1875 33.984375 37.640625 27.21875 
Q 31.109375 20.453125 19.1875 8.296875 
z
" id="DejaVuSans-50"/>
       </defs>
       <use xlink:href="#DejaVuSans-50"/>
       <use x="63.623047" xlink:href="#DejaVuSans-48"/>
       <use x="127.246094" xlink:href="#DejaVuSans-48"/>
      </g>
     </g>
    </g>
    <g id="xtick_3">
     <g id="line2d_3">
      <g>
       <use style="stroke:#000000;stroke-width:0.8;" x="164.406184" xlink:href="#ma3096ba9ee" y="252"/>
      </g>
     </g>
     <g id="text_3">
      <!-- 400 -->
      <g transform="translate(154.862434 266.598437)scale(0.1 -0.1)">
       <defs>
        <path d="M 37.796875 64.3125 
L 12.890625 25.390625 
L 37.796875 25.390625 
z
M 35.203125 72.90625 
L 47.609375 72.90625 
L 47.609375 25.390625 
L 58.015625 25.390625 
L 58.015625 17.1875 
L 47.609375 17.1875 
L 47.609375 0 
L 37.796875 0 
L 37.796875 17.1875 
L 4.890625 17.1875 
L 4.890625 26.703125 
z
" id="DejaVuSans-52"/>
       </defs>
       <use xlink:href="#DejaVuSans-52"/>
       <use x="63.623047" xlink:href="#DejaVuSans-48"/>
       <use x="127.246094" xlink:href="#DejaVuSans-48"/>
      </g>
     </g>
    </g>
    <g id="xtick_4">
     <g id="line2d_4">
      <g>
       <use style="stroke:#000000;stroke-width:0.8;" x="212.000185" xlink:href="#ma3096ba9ee" y="252"/>
      </g>
     </g>
     <g id="text_4">
      <!-- 600 -->
      <g transform="translate(202.456435 266.598437)scale(0.1 -0.1)">
       <defs>
        <path d="M 33.015625 40.375 
Q 26.375 40.375 22.484375 35.828125 
Q 18.609375 31.296875 18.609375 23.390625 
Q 18.609375 15.53125 22.484375 10.953125 
Q 26.375 6.390625 33.015625 6.390625 
Q 39.65625 6.390625 43.53125 10.953125 
Q 47.40625 15.53125 47.40625 23.390625 
Q 47.40625 31.296875 43.53125 35.828125 
Q 39.65625 40.375 33.015625 40.375 
z
M 52.59375 71.296875 
L 52.59375 62.3125 
Q 48.875 64.0625 45.09375 64.984375 
Q 41.3125 65.921875 37.59375 65.921875 
Q 27.828125 65.921875 22.671875 59.328125 
Q 17.53125 52.734375 16.796875 39.40625 
Q 19.671875 43.65625 24.015625 45.921875 
Q 28.375 48.1875 33.59375 48.1875 
Q 44.578125 48.1875 50.953125 41.515625 
Q 57.328125 34.859375 57.328125 23.390625 
Q 57.328125 12.15625 50.6875 5.359375 
Q 44.046875 -1.421875 33.015625 -1.421875 
Q 20.359375 -1.421875 13.671875 8.265625 
Q 6.984375 17.96875 6.984375 36.375 
Q 6.984375 53.65625 15.1875 63.9375 
Q 23.390625 74.21875 37.203125 74.21875 
Q 40.921875 74.21875 44.703125 73.484375 
Q 48.484375 72.75 52.59375 71.296875 
z
" id="DejaVuSans-54"/>
       </defs>
       <use xlink:href="#DejaVuSans-54"/>
       <use x="63.623047" xlink:href="#DejaVuSans-48"/>
       <use x="127.246094" xlink:href="#DejaVuSans-48"/>
      </g>
     </g>
    </g>
    <g id="xtick_5">
     <g id="line2d_5">
      <g>
       <use style="stroke:#000000;stroke-width:0.8;" x="259.594186" xlink:href="#ma3096ba9ee" y="252"/>
      </g>
     </g>
     <g id="text_5">
      <!-- 800 -->
      <g transform="translate(250.050436 266.598437)scale(0.1 -0.1)">
       <defs>
        <path d="M 31.78125 34.625 
Q 24.75 34.625 20.71875 30.859375 
Q 16.703125 27.09375 16.703125 20.515625 
Q 16.703125 13.921875 20.71875 10.15625 
Q 24.75 6.390625 31.78125 6.390625 
Q 38.8125 6.390625 42.859375 10.171875 
Q 46.921875 13.96875 46.921875 20.515625 
Q 46.921875 27.09375 42.890625 30.859375 
Q 38.875 34.625 31.78125 34.625 
z
M 21.921875 38.8125 
Q 15.578125 40.375 12.03125 44.71875 
Q 8.5 49.078125 8.5 55.328125 
Q 8.5 64.0625 14.71875 69.140625 
Q 20.953125 74.21875 31.78125 74.21875 
Q 42.671875 74.21875 48.875 69.140625 
Q 55.078125 64.0625 55.078125 55.328125 
Q 55.078125 49.078125 51.53125 44.71875 
Q 48 40.375 41.703125 38.8125 
Q 48.828125 37.15625 52.796875 32.3125 
Q 56.78125 27.484375 56.78125 20.515625 
Q 56.78125 9.90625 50.3125 4.234375 
Q 43.84375 -1.421875 31.78125 -1.421875 
Q 19.734375 -1.421875 13.25 4.234375 
Q 6.78125 9.90625 6.78125 20.515625 
Q 6.78125 27.484375 10.78125 32.3125 
Q 14.796875 37.15625 21.921875 38.8125 
z
M 18.3125 54.390625 
Q 18.3125 48.734375 21.84375 45.5625 
Q 25.390625 42.390625 31.78125 42.390625 
Q 38.140625 42.390625 41.71875 45.5625 
Q 45.3125 48.734375 45.3125 54.390625 
Q 45.3125 60.0625 41.71875 63.234375 
Q 38.140625 66.40625 31.78125 66.40625 
Q 25.390625 66.40625 21.84375 63.234375 
Q 18.3125 60.0625 18.3125 54.390625 
z
" id="DejaVuSans-56"/>
       </defs>
       <use xlink:href="#DejaVuSans-56"/>
       <use x="63.623047" xlink:href="#DejaVuSans-48"/>
       <use x="127.246094" xlink:href="#DejaVuSans-48"/>
      </g>
     </g>
    </g>
    <g id="xtick_6">
     <g id="line2d_6">
      <g>
       <use style="stroke:#000000;stroke-width:0.8;" x="307.188187" xlink:href="#ma3096ba9ee" y="252"/>
      </g>
     </g>
     <g id="text_6">
      <!-- 1000 -->
      <g transform="translate(294.463187 266.598437)scale(0.1 -0.1)">
       <defs>
        <path d="M 12.40625 8.296875 
L 28.515625 8.296875 
L 28.515625 63.921875 
L 10.984375 60.40625 
L 10.984375 69.390625 
L 28.421875 72.90625 
L 38.28125 72.90625 
L 38.28125 8.296875 
L 54.390625 8.296875 
L 54.390625 0 
L 12.40625 0 
z
" id="DejaVuSans-49"/>
       </defs>
       <use xlink:href="#DejaVuSans-49"/>
       <use x="63.623047" xlink:href="#DejaVuSans-48"/>
       <use x="127.246094" xlink:href="#DejaVuSans-48"/>
       <use x="190.869141" xlink:href="#DejaVuSans-48"/>
      </g>
     </g>
    </g>
    <g id="xtick_7">
     <g id="line2d_7">
      <g>
       <use style="stroke:#000000;stroke-width:0.8;" x="354.782188" xlink:href="#ma3096ba9ee" y="252"/>
      </g>
     </g>
     <g id="text_7">
      <!-- 1200 -->
      <g transform="translate(342.057188 266.598437)scale(0.1 -0.1)">
       <use xlink:href="#DejaVuSans-49"/>
       <use x="63.623047" xlink:href="#DejaVuSans-50"/>
       <use x="127.246094" xlink:href="#DejaVuSans-48"/>
       <use x="190.869141" xlink:href="#DejaVuSans-48"/>
      </g>
     </g>
    </g>
    <g id="text_8">
     <!-- sample -->
     <g transform="translate(203.221094 280.276563)scale(0.1 -0.1)">
      <defs>
       <path d="M 44.28125 53.078125 
L 44.28125 44.578125 
Q 40.484375 46.53125 36.375 47.5 
Q 32.28125 48.484375 27.875 48.484375 
Q 21.1875 48.484375 17.84375 46.4375 
Q 14.5 44.390625 14.5 40.28125 
Q 14.5 37.15625 16.890625 35.375 
Q 19.28125 33.59375 26.515625 31.984375 
L 29.59375 31.296875 
Q 39.15625 29.25 43.1875 25.515625 
Q 47.21875 21.78125 47.21875 15.09375 
Q 47.21875 7.46875 41.1875 3.015625 
Q 35.15625 -1.421875 24.609375 -1.421875 
Q 20.21875 -1.421875 15.453125 -0.5625 
Q 10.6875 0.296875 5.421875 2 
L 5.421875 11.28125 
Q 10.40625 8.6875 15.234375 7.390625 
Q 20.0625 6.109375 24.8125 6.109375 
Q 31.15625 6.109375 34.5625 8.28125 
Q 37.984375 10.453125 37.984375 14.40625 
Q 37.984375 18.0625 35.515625 20.015625 
Q 33.0625 21.96875 24.703125 23.78125 
L 21.578125 24.515625 
Q 13.234375 26.265625 9.515625 29.90625 
Q 5.8125 33.546875 5.8125 39.890625 
Q 5.8125 47.609375 11.28125 51.796875 
Q 16.75 56 26.8125 56 
Q 31.78125 56 36.171875 55.265625 
Q 40.578125 54.546875 44.28125 53.078125 
z
" id="DejaVuSans-115"/>
       <path d="M 34.28125 27.484375 
Q 23.390625 27.484375 19.1875 25 
Q 14.984375 22.515625 14.984375 16.5 
Q 14.984375 11.71875 18.140625 8.90625 
Q 21.296875 6.109375 26.703125 6.109375 
Q 34.1875 6.109375 38.703125 11.40625 
Q 43.21875 16.703125 43.21875 25.484375 
L 43.21875 27.484375 
z
M 52.203125 31.203125 
L 52.203125 0 
L 43.21875 0 
L 43.21875 8.296875 
Q 40.140625 3.328125 35.546875 0.953125 
Q 30.953125 -1.421875 24.3125 -1.421875 
Q 15.921875 -1.421875 10.953125 3.296875 
Q 6 8.015625 6 15.921875 
Q 6 25.140625 12.171875 29.828125 
Q 18.359375 34.515625 30.609375 34.515625 
L 43.21875 34.515625 
L 43.21875 35.40625 
Q 43.21875 41.609375 39.140625 45 
Q 35.0625 48.390625 27.6875 48.390625 
Q 23 48.390625 18.546875 47.265625 
Q 14.109375 46.140625 10.015625 43.890625 
L 10.015625 52.203125 
Q 14.9375 54.109375 19.578125 55.046875 
Q 24.21875 56 28.609375 56 
Q 40.484375 56 46.34375 49.84375 
Q 52.203125 43.703125 52.203125 31.203125 
z
" id="DejaVuSans-97"/>
       <path d="M 52 44.1875 
Q 55.375 50.25 60.0625 53.125 
Q 64.75 56 71.09375 56 
Q 79.640625 56 84.28125 50.015625 
Q 88.921875 44.046875 88.921875 33.015625 
L 88.921875 0 
L 79.890625 0 
L 79.890625 32.71875 
Q 79.890625 40.578125 77.09375 44.375 
Q 74.3125 48.1875 68.609375 48.1875 
Q 61.625 48.1875 57.5625 43.546875 
Q 53.515625 38.921875 53.515625 30.90625 
L 53.515625 0 
L 44.484375 0 
L 44.484375 32.71875 
Q 44.484375 40.625 41.703125 44.40625 
Q 38.921875 48.1875 33.109375 48.1875 
Q 26.21875 48.1875 22.15625 43.53125 
Q 18.109375 38.875 18.109375 30.90625 
L 18.109375 0 
L 9.078125 0 
L 9.078125 54.6875 
L 18.109375 54.6875 
L 18.109375 46.1875 
Q 21.1875 51.21875 25.484375 53.609375 
Q 29.78125 56 35.6875 56 
Q 41.65625 56 45.828125 52.96875 
Q 50 49.953125 52 44.1875 
z
" id="DejaVuSans-109"/>
       <path d="M 18.109375 8.203125 
L 18.109375 -20.796875 
L 9.078125 -20.796875 
L 9.078125 54.6875 
L 18.109375 54.6875 
L 18.109375 46.390625 
Q 20.953125 51.265625 25.265625 53.625 
Q 29.59375 56 35.59375 56 
Q 45.5625 56 51.78125 48.09375 
Q 58.015625 40.1875 58.015625 27.296875 
Q 58.015625 14.40625 51.78125 6.484375 
Q 45.5625 -1.421875 35.59375 -1.421875 
Q 29.59375 -1.421875 25.265625 0.953125 
Q 20.953125 3.328125 18.109375 8.203125 
z
M 48.6875 27.296875 
Q 48.6875 37.203125 44.609375 42.84375 
Q 40.53125 48.484375 33.40625 48.484375 
Q 26.265625 48.484375 22.1875 42.84375 
Q 18.109375 37.203125 18.109375 27.296875 
Q 18.109375 17.390625 22.1875 11.75 
Q 26.265625 6.109375 33.40625 6.109375 
Q 40.53125 6.109375 44.609375 11.75 
Q 48.6875 17.390625 48.6875 27.296875 
z
" id="DejaVuSans-112"/>
       <path d="M 9.421875 75.984375 
L 18.40625 75.984375 
L 18.40625 0 
L 9.421875 0 
z
" id="DejaVuSans-108"/>
       <path d="M 56.203125 29.59375 
L 56.203125 25.203125 
L 14.890625 25.203125 
Q 15.484375 15.921875 20.484375 11.0625 
Q 25.484375 6.203125 34.421875 6.203125 
Q 39.59375 6.203125 44.453125 7.46875 
Q 49.3125 8.734375 54.109375 11.28125 
L 54.109375 2.78125 
Q 49.265625 0.734375 44.1875 -0.34375 
Q 39.109375 -1.421875 33.890625 -1.421875 
Q 20.796875 -1.421875 13.15625 6.1875 
Q 5.515625 13.8125 5.515625 26.8125 
Q 5.515625 40.234375 12.765625 48.109375 
Q 20.015625 56 32.328125 56 
Q 43.359375 56 49.78125 48.890625 
Q 56.203125 41.796875 56.203125 29.59375 
z
M 47.21875 32.234375 
Q 47.125 39.59375 43.09375 43.984375 
Q 39.0625 48.390625 32.421875 48.390625 
Q 24.90625 48.390625 20.390625 44.140625 
Q 15.875 39.890625 15.1875 32.171875 
z
" id="DejaVuSans-101"/>
      </defs>
      <use xlink:href="#DejaVuSans-115"/>
      <use x="52.099609" xlink:href="#DejaVuSans-97"/>
      <use x="113.378906" xlink:href="#DejaVuSans-109"/>
      <use x="210.791016" xlink:href="#DejaVuSans-112"/>
      <use x="274.267578" xlink:href="#DejaVuSans-108"/>
      <use x="302.050781" xlink:href="#DejaVuSans-101"/>
     </g>
    </g>
   </g>
   <g id="matplotlib.axis_2">
    <g id="ytick_1">
     <g id="line2d_8">
      <defs>
       <path d="M 0 0 
L -3.5 0 
" id="m01a260ad70" style="stroke:#000000;stroke-width:0.8;"/>
      </defs>
      <g>
       <use style="stroke:#000000;stroke-width:0.8;" x="54" xlink:href="#m01a260ad70" y="231.442036"/>
      </g>
     </g>
     <g id="text_9">
      <!-- −2000 -->
      <g transform="translate(13.170313 235.241255)scale(0.1 -0.1)">
       <defs>
        <path d="M 10.59375 35.5 
L 73.1875 35.5 
L 73.1875 27.203125 
L 10.59375 27.203125 
z
" id="DejaVuSans-8722"/>
       </defs>
       <use xlink:href="#DejaVuSans-8722"/>
       <use x="83.789062" xlink:href="#DejaVuSans-50"/>
       <use x="147.412109" xlink:href="#DejaVuSans-48"/>
       <use x="211.035156" xlink:href="#DejaVuSans-48"/>
       <use x="274.658203" xlink:href="#DejaVuSans-48"/>
      </g>
     </g>
    </g>
    <g id="ytick_2">
     <g id="line2d_9">
      <g>
       <use style="stroke:#000000;stroke-width:0.8;" x="54" xlink:href="#m01a260ad70" y="206.732945"/>
      </g>
     </g>
     <g id="text_10">
      <!-- −1500 -->
      <g transform="translate(13.170313 210.532164)scale(0.1 -0.1)">
       <defs>
        <path d="M 10.796875 72.90625 
L 49.515625 72.90625 
L 49.515625 64.59375 
L 19.828125 64.59375 
L 19.828125 46.734375 
Q 21.96875 47.46875 24.109375 47.828125 
Q 26.265625 48.1875 28.421875 48.1875 
Q 40.625 48.1875 47.75 41.5 
Q 54.890625 34.8125 54.890625 23.390625 
Q 54.890625 11.625 47.5625 5.09375 
Q 40.234375 -1.421875 26.90625 -1.421875 
Q 22.3125 -1.421875 17.546875 -0.640625 
Q 12.796875 0.140625 7.71875 1.703125 
L 7.71875 11.625 
Q 12.109375 9.234375 16.796875 8.0625 
Q 21.484375 6.890625 26.703125 6.890625 
Q 35.15625 6.890625 40.078125 11.328125 
Q 45.015625 15.765625 45.015625 23.390625 
Q 45.015625 31 40.078125 35.4375 
Q 35.15625 39.890625 26.703125 39.890625 
Q 22.75 39.890625 18.8125 39.015625 
Q 14.890625 38.140625 10.796875 36.28125 
z
" id="DejaVuSans-53"/>
       </defs>
       <use xlink:href="#DejaVuSans-8722"/>
       <use x="83.789062" xlink:href="#DejaVuSans-49"/>
       <use x="147.412109" xlink:href="#DejaVuSans-53"/>
       <use x="211.035156" xlink:href="#DejaVuSans-48"/>
       <use x="274.658203" xlink:href="#DejaVuSans-48"/>
      </g>
     </g>
    </g>
    <g id="ytick_3">
     <g id="line2d_10">
      <g>
       <use style="stroke:#000000;stroke-width:0.8;" x="54" xlink:href="#m01a260ad70" y="182.023855"/>
      </g>
     </g>
     <g id="text_11">
      <!-- −1000 -->
      <g transform="translate(13.170313 185.823073)scale(0.1 -0.1)">
       <use xlink:href="#DejaVuSans-8722"/>
       <use x="83.789062" xlink:href="#DejaVuSans-49"/>
       <use x="147.412109" xlink:href="#DejaVuSans-48"/>
       <use x="211.035156" xlink:href="#DejaVuSans-48"/>
       <use x="274.658203" xlink:href="#DejaVuSans-48"/>
      </g>
     </g>
    </g>
    <g id="ytick_4">
     <g id="line2d_11">
      <g>
       <use style="stroke:#000000;stroke-width:0.8;" x="54" xlink:href="#m01a260ad70" y="157.314764"/>
      </g>
     </g>
     <g id="text_12">
      <!-- −500 -->
      <g transform="translate(19.532812 161.113982)scale(0.1 -0.1)">
       <use xlink:href="#DejaVuSans-8722"/>
       <use x="83.789062" xlink:href="#DejaVuSans-53"/>
       <use x="147.412109" xlink:href="#DejaVuSans-48"/>
       <use x="211.035156" xlink:href="#DejaVuSans-48"/>
      </g>
     </g>
    </g>
    <g id="ytick_5">
     <g id="line2d_12">
      <g>
       <use style="stroke:#000000;stroke-width:0.8;" x="54" xlink:href="#m01a260ad70" y="132.605673"/>
      </g>
     </g>
     <g id="text_13">
      <!-- 0 -->
      <g transform="translate(40.6375 136.404891)scale(0.1 -0.1)">
       <use xlink:href="#DejaVuSans-48"/>
      </g>
     </g>
    </g>
    <g id="ytick_6">
     <g id="line2d_13">
      <g>
       <use style="stroke:#000000;stroke-width:0.8;" x="54" xlink:href="#m01a260ad70" y="107.896582"/>
      </g>
     </g>
     <g id="text_14">
      <!-- 500 -->
      <g transform="translate(27.9125 111.695801)scale(0.1 -0.1)">
       <use xlink:href="#DejaVuSans-53"/>
       <use x="63.623047" xlink:href="#DejaVuSans-48"/>
       <use x="127.246094" xlink:href="#DejaVuSans-48"/>
      </g>
     </g>
    </g>
    <g id="ytick_7">
     <g id="line2d_14">
      <g>
       <use style="stroke:#000000;stroke-width:0.8;" x="54" xlink:href="#m01a260ad70" y="83.187491"/>
      </g>
     </g>
     <g id="text_15">
      <!-- 1000 -->
      <g transform="translate(21.55 86.98671)scale(0.1 -0.1)">
       <use xlink:href="#DejaVuSans-49"/>
       <use x="63.623047" xlink:href="#DejaVuSans-48"/>
       <use x="127.246094" xlink:href="#DejaVuSans-48"/>
       <use x="190.869141" xlink:href="#DejaVuSans-48"/>
      </g>
     </g>
    </g>
    <g id="ytick_8">
     <g id="line2d_15">
      <g>
       <use style="stroke:#000000;stroke-width:0.8;" x="54" xlink:href="#m01a260ad70" y="58.4784"/>
      </g>
     </g>
     <g id="text_16">
      <!-- 1500 -->
      <g transform="translate(21.55 62.277619)scale(0.1 -0.1)">
       <use xlink:href="#DejaVuSans-49"/>
       <use x="63.623047" xlink:href="#DejaVuSans-53"/>
       <use x="127.246094" xlink:href="#DejaVuSans-48"/>
       <use x="190.869141" xlink:href="#DejaVuSans-48"/>
      </g>
     </g>
    </g>
    <g id="text_17">
     <!-- amplitude -->
     <g transform="translate(7.090625 168.546406)rotate(-90)scale(0.1 -0.1)">
      <defs>
       <path d="M 9.421875 54.6875 
L 18.40625 54.6875 
L 18.40625 0 
L 9.421875 0 
z
M 9.421875 75.984375 
L 18.40625 75.984375 
L 18.40625 64.59375 
L 9.421875 64.59375 
z
" id="DejaVuSans-105"/>
       <path d="M 18.3125 70.21875 
L 18.3125 54.6875 
L 36.8125 54.6875 
L 36.8125 47.703125 
L 18.3125 47.703125 
L 18.3125 18.015625 
Q 18.3125 11.328125 20.140625 9.421875 
Q 21.96875 7.515625 27.59375 7.515625 
L 36.8125 7.515625 
L 36.8125 0 
L 27.59375 0 
Q 17.1875 0 13.234375 3.875 
Q 9.28125 7.765625 9.28125 18.015625 
L 9.28125 47.703125 
L 2.6875 47.703125 
L 2.6875 54.6875 
L 9.28125 54.6875 
L 9.28125 70.21875 
z
" id="DejaVuSans-116"/>
       <path d="M 8.5 21.578125 
L 8.5 54.6875 
L 17.484375 54.6875 
L 17.484375 21.921875 
Q 17.484375 14.15625 20.5 10.265625 
Q 23.53125 6.390625 29.59375 6.390625 
Q 36.859375 6.390625 41.078125 11.03125 
Q 45.3125 15.671875 45.3125 23.6875 
L 45.3125 54.6875 
L 54.296875 54.6875 
L 54.296875 0 
L 45.3125 0 
L 45.3125 8.40625 
Q 42.046875 3.421875 37.71875 1 
Q 33.40625 -1.421875 27.6875 -1.421875 
Q 18.265625 -1.421875 13.375 4.4375 
Q 8.5 10.296875 8.5 21.578125 
z
M 31.109375 56 
z
" id="DejaVuSans-117"/>
       <path d="M 45.40625 46.390625 
L 45.40625 75.984375 
L 54.390625 75.984375 
L 54.390625 0 
L 45.40625 0 
L 45.40625 8.203125 
Q 42.578125 3.328125 38.25 0.953125 
Q 33.9375 -1.421875 27.875 -1.421875 
Q 17.96875 -1.421875 11.734375 6.484375 
Q 5.515625 14.40625 5.515625 27.296875 
Q 5.515625 40.1875 11.734375 48.09375 
Q 17.96875 56 27.875 56 
Q 33.9375 56 38.25 53.625 
Q 42.578125 51.265625 45.40625 46.390625 
z
M 14.796875 27.296875 
Q 14.796875 17.390625 18.875 11.75 
Q 22.953125 6.109375 30.078125 6.109375 
Q 37.203125 6.109375 41.296875 11.75 
Q 45.40625 17.390625 45.40625 27.296875 
Q 45.40625 37.203125 41.296875 42.84375 
Q 37.203125 48.484375 30.078125 48.484375 
Q 22.953125 48.484375 18.875 42.84375 
Q 14.796875 37.203125 14.796875 27.296875 
z
" id="DejaVuSans-100"/>
      </defs>
      <use xlink:href="#DejaVuSans-97"/>
      <use x="61.279297" xlink:href="#DejaVuSans-109"/>
      <use x="158.691406" xlink:href="#DejaVuSans-112"/>
      <use x="222.167969" xlink:href="#DejaVuSans-108"/>
      <use x="249.951172" xlink:href="#DejaVuSans-105"/>
      <use x="277.734375" xlink:href="#DejaVuSans-116"/>
      <use x="316.943359" xlink:href="#DejaVuSans-117"/>
      <use x="380.322266" xlink:href="#DejaVuSans-100"/>
      <use x="443.798828" xlink:href="#DejaVuSans-101"/>
     </g>
    </g>
   </g>
   <g id="line2d_16">
    <path clip-path="url(#p28153e04d7)" d="M 69.218182 45.629673 
L 69.694122 44.443636 
L 69.932092 49.830218 
L 70.170062 51.510436 
L 70.408032 54.327273 
L 70.646002 54.920291 
L 71.121942 61.542327 
L 71.359912 61.641164 
L 71.597882 62.036509 
L 71.835852 63.123709 
L 72.073822 63.321382 
L 72.311792 61.146982 
L 72.549762 62.629527 
L 73.025702 58.577236 
L 73.263672 59.960945 
L 73.739612 56.304 
L 73.977582 57.193527 
L 74.215552 57.242945 
L 74.453522 57.045273 
L 74.691492 58.428982 
L 74.929462 60.702218 
L 75.167432 60.702218 
L 75.405402 62.926036 
L 75.643372 66.335891 
L 75.881342 67.472509 
L 76.119312 70.042255 
L 76.357282 71.327127 
L 76.595252 74.489891 
L 76.833222 75.478255 
L 77.071192 70.783527 
L 77.309162 71.920145 
L 77.547132 69.498655 
L 77.785102 63.864982 
L 78.023072 64.210909 
L 78.261042 65.891127 
L 78.499012 69.399818 
L 78.974952 71.623636 
L 79.450892 75.626509 
L 79.688862 80.667164 
L 79.926832 82.594473 
L 80.402772 81.556691 
L 80.640742 81.260182 
L 81.116682 77.454982 
L 81.354652 78.443345 
L 81.592622 80.469491 
L 81.830592 85.559564 
L 82.068562 87.981055 
L 82.544502 94.998436 
L 82.782472 96.975164 
L 83.020442 103.794873 
L 83.258412 103.547782 
L 83.496382 105.722182 
L 83.734352 109.972145 
L 83.972322 108.291927 
L 84.210292 108.143673 
L 84.448262 106.562291 
L 84.686232 103.696036 
L 84.924202 102.855927 
L 85.400142 99.841418 
L 86.114052 113.332582 
L 86.589992 120.152291 
L 86.827962 121.437164 
L 87.303902 118.323818 
L 87.541872 120.053455 
L 87.779842 120.251127 
L 88.017812 123.364473 
L 88.255782 124.599927 
L 88.493752 121.288909 
L 88.731722 122.277273 
L 88.969692 120.597055 
L 89.207662 120.251127 
L 89.921572 128.207455 
L 90.159542 128.701636 
L 90.397512 130.085345 
L 91.111422 127.169673 
L 91.349392 126.576655 
L 91.587362 128.503964 
L 91.825332 128.207455 
L 92.063302 126.329564 
L 92.301272 127.5156 
L 92.777212 123.1668 
L 93.015182 126.527236 
L 93.253152 126.230727 
L 93.729092 134.137636 
L 93.967062 131.963236 
L 94.205032 134.483564 
L 94.443002 133.742291 
L 94.680972 139.277127 
L 94.918942 142.1928 
L 95.156912 142.489309 
L 95.394882 147.184036 
L 95.632852 146.343927 
L 95.870822 146.5416 
L 96.108792 146.936945 
L 96.346762 145.306145 
L 96.584732 144.663709 
L 96.822702 146.640436 
L 97.298642 141.204436 
L 97.536612 143.428255 
L 97.774582 139.672473 
L 98.012552 139.820727 
L 98.250522 139.820727 
L 98.488492 135.966109 
L 99.202402 143.329418 
L 99.440372 150.593891 
L 99.440372 150.593891 
" style="fill:none;stroke:#1f77b4;stroke-linecap:square;stroke-width:1.5;"/>
   </g>
   <g id="line2d_17">
    <path clip-path="url(#p28153e04d7)" d="M 99.678342 151.434 
L 99.916312 152.965964 
L 100.154282 161.367055 
L 100.392252 162.997855 
L 100.868192 171.151855 
L 101.106162 172.041382 
L 101.344132 171.497782 
L 102.533983 152.422364 
L 102.771953 150.791564 
L 103.009923 154.794436 
L 103.247893 155.090945 
L 103.485863 156.672327 
L 104.199773 170.805927 
L 104.437743 171.448364 
L 104.675713 170.311745 
L 104.913683 171.843709 
L 105.151653 172.041382 
L 105.389623 170.163491 
L 105.627593 169.9164 
L 105.865563 171.596618 
L 106.103533 174.116945 
L 106.341503 172.189636 
L 106.579473 171.201273 
L 106.817443 170.855345 
L 107.055413 168.087927 
L 107.293383 167.396073 
L 107.769323 163.343782 
L 108.007293 163.442618 
L 108.245263 167.742 
L 108.483233 169.570473 
L 108.721203 169.422218 
L 108.959173 174.512291 
L 109.197143 171.250691 
L 109.435113 170.311745 
L 109.911053 176.390182 
L 110.386993 178.515164 
L 110.624963 178.119818 
L 110.862933 174.957055 
L 111.100903 179.108182 
L 111.338873 178.959927 
L 111.576843 178.020982 
L 111.814813 181.282582 
L 112.290753 175.204145 
L 112.528723 174.858218 
L 112.766693 175.302982 
L 113.242633 177.922145 
L 113.480603 183.160473 
L 113.956543 188.102291 
L 114.194513 189.683673 
L 114.432483 187.904618 
L 114.670453 188.596473 
L 114.908423 194.773745 
L 115.146393 196.108036 
L 115.384363 193.044109 
L 115.622333 192.945273 
L 115.860303 192.302836 
L 116.336243 188.003455 
L 116.812183 194.526655 
L 117.526093 191.610982 
L 118.002033 189.683673 
L 118.477973 191.512145 
L 118.715943 188.645891 
L 119.191883 186.273818 
L 119.429853 189.584836 
L 119.667823 194.773745 
L 119.905793 195.712691 
L 120.143763 199.962655 
L 120.381733 201.692291 
L 120.857673 197.145818 
L 121.095643 199.567309 
L 121.333613 205.942255 
L 121.809553 202.137055 
L 122.047523 205.448073 
L 122.523463 200.753345 
L 122.761433 206.090509 
L 122.999403 207.820145 
L 123.237373 205.448073 
L 123.475343 205.448073 
L 123.951283 198.875455 
L 124.427223 195.416182 
L 124.665193 191.907491 
L 124.903163 193.983055 
L 125.141133 193.340618 
L 125.379103 188.349382 
L 125.617073 191.462727 
L 125.855043 189.881345 
L 126.093013 190.0296 
L 126.568953 192.945273 
L 126.806923 195.663273 
L 127.044893 196.750473 
L 127.282863 199.666145 
L 127.520833 200.012073 
L 127.758803 198.134182 
L 127.996773 198.1836 
L 128.234743 195.613855 
L 128.472713 190.5732 
L 128.948653 187.113927 
L 129.662563 179.1576 
L 129.900533 178.762255 
L 130.138503 179.108182 
L 130.614443 186.125564 
L 130.852413 187.015091 
L 131.090383 188.547055 
L 131.328353 192.599345 
L 131.566323 194.328982 
L 131.804293 193.439455 
L 132.042263 193.983055 
L 132.280233 195.020836 
L 132.518203 196.997564 
L 132.756173 194.872582 
L 132.994143 189.831927 
L 133.232113 189.189491 
L 133.470083 189.140073 
L 134.421963 175.550073 
L 134.897903 182.765127 
L 135.135873 188.794145 
L 135.373843 190.079018 
L 135.611813 187.608109 
L 135.849783 188.744727 
L 136.325723 182.863964 
L 136.563693 183.259309 
L 136.801663 180.837818 
L 137.039633 177.032618 
L 137.277603 176.143091 
L 137.753543 167.148982 
L 137.991513 168.582109 
L 138.229483 168.977455 
L 138.705423 176.390182 
L 138.943393 179.849455 
L 139.181363 186.174982 
L 139.419333 184.890109 
L 139.895273 195.515018 
L 140.371213 186.619745 
L 140.847153 165.5676 
L 141.085123 159.884509 
L 141.323093 156.87 
L 141.561063 157.117091 
L 141.799033 156.425236 
L 142.274973 151.434 
L 142.512943 158.994982 
L 142.750913 158.253709 
L 142.988883 155.881636 
L 143.226853 158.154873 
L 143.464823 155.090945 
L 143.940763 159.489164 
L 144.178733 157.067673 
L 144.654673 148.1724 
L 144.892643 147.6288 
L 145.130613 144.169527 
L 145.844523 140.413745 
L 146.082493 139.524218 
L 146.320463 139.820727 
L 146.558433 144.614291 
L 146.796403 144.9108 
L 147.034373 148.518327 
L 147.272343 147.480545 
L 147.510313 141.6492 
L 147.748283 144.218945 
L 147.986253 141.698618 
L 149.176103 117.335455 
L 149.414073 117.681382 
L 149.652043 123.315055 
L 149.890014 125.390618 
L 150.127984 129.047564 
L 150.365954 126.774327 
L 150.603924 122.870291 
L 150.841894 121.140655 
L 151.079864 115.259891 
L 151.793774 111.009927 
L 152.269714 105.821018 
L 152.745654 110.219236 
L 152.983624 113.283164 
L 153.221594 114.419782 
L 153.459564 113.431418 
L 153.697534 114.716291 
L 153.935504 116.940109 
L 154.173474 116.544764 
L 154.649414 113.876182 
L 154.887384 116.050582 
L 155.125354 114.024436 
L 155.363324 110.515745 
L 155.601294 111.108764 
L 156.077234 109.0332 
L 156.315204 108.390764 
L 156.553174 110.812255 
L 156.791144 109.972145 
L 157.267084 104.882073 
L 157.505054 104.783236 
L 157.743024 108.687273 
L 158.932874 92.576945 
L 159.170844 94.306582 
L 159.408814 93.861818 
L 159.646784 89.760109 
L 159.884754 89.216509 
L 160.836634 114.123273 
L 161.074604 115.210473 
L 161.312574 112.146545 
L 161.550544 112.640727 
L 161.788514 113.629091 
L 162.026484 111.899455 
L 162.502424 106.414036 
L 162.740394 104.882073 
L 163.216334 94.800764 
L 163.692274 87.931636 
L 163.930244 86.251418 
L 164.168214 87.882218 
L 164.644154 93.911236 
L 164.882124 95.097273 
L 165.120094 97.074 
L 165.358064 101.126291 
L 165.596034 99.693164 
L 165.834004 100.236764 
L 166.071974 99.841418 
L 166.309944 93.8124 
L 166.547914 90.896727 
L 166.785884 85.361891 
L 167.023854 85.312473 
L 167.261824 83.681673 
L 167.737764 87.190364 
L 167.975734 83.039236 
L 168.213704 87.2892 
L 168.451674 85.213636 
L 168.927614 93.960655 
L 169.165584 95.690291 
L 169.403554 99.544909 
L 169.879494 91.835673 
L 170.117464 92.478109 
L 170.355434 92.329855 
L 171.069344 80.667164 
L 171.307314 78.838691 
L 171.545284 79.332873 
L 171.783254 78.641018 
L 172.021224 80.864836 
L 172.259194 81.8532 
L 172.735134 88.92 
L 173.211074 84.917127 
L 173.449044 84.274691 
L 173.687014 81.507273 
L 173.924984 81.111927 
L 174.162954 83.138073 
L 174.638894 90.451964 
L 174.876864 89.908364 
L 175.352804 90.847309 
L 175.590774 86.004327 
L 175.828744 84.818291 
L 176.066714 86.399673 
L 176.542654 82.446218 
L 176.780624 81.8532 
L 177.256564 77.751491 
L 177.494534 78.937527 
L 177.732504 80.716582 
L 177.970474 81.408436 
L 178.208444 83.385164 
L 178.446414 90.699055 
L 179.160324 97.074 
L 179.874234 87.733964 
L 180.112204 82.001455 
L 180.588144 76.9608 
L 180.826114 77.257309 
L 181.064084 80.2224 
L 181.302054 85.361891 
L 181.777994 91.489745 
L 182.015964 96.826909 
L 182.253934 95.344364 
L 182.491904 95.4432 
L 182.729874 92.774618 
L 183.205814 82.693309 
L 183.681754 78.295091 
L 183.919724 79.431709 
L 184.157694 82.050873 
L 184.395664 85.954909 
L 184.633634 86.053745 
L 184.871604 85.954909 
L 185.109574 89.760109 
L 185.347544 89.216509 
L 185.585514 87.733964 
L 185.823484 89.315345 
L 186.537394 101.9664 
L 186.775364 101.9664 
L 187.013334 99.001309 
L 187.251304 99.2484 
L 187.489274 98.507127 
L 187.727244 99.495491 
L 187.965214 96.480982 
L 188.203184 91.736836 
L 188.441154 93.318218 
L 188.679124 89.957782 
L 188.917094 89.265927 
L 189.155064 90.451964 
L 189.393034 88.969418 
L 189.631004 93.960655 
L 190.106944 98.062364 
L 190.344914 102.806509 
L 190.582884 101.916982 
L 191.058824 106.8588 
L 191.296794 105.623345 
L 191.772734 104.536145 
L 192.248674 98.260036 
L 192.486644 97.518764 
L 192.724614 95.393782 
L 192.962584 97.370509 
L 193.200554 97.568182 
L 193.438524 97.321091 
L 193.914464 105.030327 
L 194.866344 120.9924 
L 196.532134 102.658255 
L 196.770104 101.916982 
L 197.484014 115.062218 
L 197.721985 117.1872 
L 198.197925 133.890545 
L 198.435895 132.309164 
L 198.673865 134.780073 
L 198.911835 134.137636 
L 199.625745 127.219091 
L 199.863715 128.405127 
L 200.339655 123.858655 
L 200.577625 120.251127 
L 200.815595 112.739564 
L 201.053565 109.280291 
L 201.291535 110.614582 
L 201.529505 111.306436 
L 201.767475 115.902327 
L 202.005445 117.236618 
L 202.243415 117.1872 
L 202.481385 123.611564 
L 202.719355 124.155164 
L 202.957325 124.995273 
L 203.195295 127.268509 
L 203.433265 124.847018 
L 203.671235 127.021418 
L 203.909205 127.5156 
L 204.385145 120.251127 
L 204.861085 123.660982 
L 205.099055 121.140655 
L 205.337025 122.474945 
L 205.574995 120.844145 
L 205.812965 117.1872 
L 206.050935 121.140655 
L 206.288905 122.425527 
L 206.526875 119.411018 
L 206.764845 120.399382 
L 207.002815 125.687127 
L 207.478755 117.286036 
L 207.716725 120.597055 
L 207.954695 115.259891 
L 208.192665 116.149418 
L 208.430635 117.928473 
L 208.668605 118.373236 
L 208.906575 118.076727 
L 209.144545 115.754073 
L 209.382515 115.358727 
L 209.620485 118.373236 
L 209.858455 128.751055 
L 210.334395 156.820582 
L 210.572365 145.157891 
L 211.048305 100.978036 
L 211.286275 106.018691 
L 211.762215 135.422509 
L 212.000185 137.102727 
L 212.238155 137.448655 
L 212.714095 128.800473 
L 213.190035 149.704364 
L 213.665975 174.364036 
L 214.141915 151.236327 
L 214.379885 150.297382 
L 214.617855 147.974727 
L 214.855825 153.114218 
L 215.093795 152.372945 
L 215.331765 152.076436 
L 215.569735 154.646182 
L 215.807705 150.445636 
L 216.045675 153.163636 
L 216.283645 149.605527 
L 216.759585 131.123127 
L 216.997555 132.902182 
L 217.473495 147.480545 
L 217.711465 147.529964 
L 218.425375 152.965964 
L 219.139285 165.617018 
L 219.377255 167.346655 
L 219.615225 171.695455 
L 219.853195 167.643164 
L 220.329135 163.343782 
L 220.567105 157.265345 
L 220.805075 160.1316 
L 221.043045 156.771164 
L 221.281015 157.117091 
L 221.518985 158.797309 
L 221.994925 150.593891 
L 222.232895 152.422364 
L 222.708835 167.544327 
L 222.946805 170.015236 
L 223.184775 169.669309 
L 223.422745 164.727491 
L 223.660715 162.157745 
L 223.898685 161.712982 
L 224.136655 165.419345 
L 224.374625 165.617018 
L 224.612595 163.442618 
L 224.850565 157.808945 
L 225.326505 156.375818 
L 225.564475 155.535709 
L 225.802445 163.739127 
L 226.040415 159.835091 
L 226.278385 159.835091 
L 226.754325 166.753636 
L 226.992295 174.858218 
L 227.230265 176.538436 
L 227.706205 168.680945 
L 227.944175 171.843709 
L 228.420115 181.480255 
L 228.658085 180.2448 
L 228.896055 178.366909 
L 229.371995 167.742 
L 229.609965 170.509418 
L 229.847935 170.015236 
L 230.085905 167.791418 
L 230.323875 162.899018 
L 230.561845 160.477527 
L 231.037785 172.288473 
L 231.275755 172.189636 
L 231.751695 158.797309 
L 232.227635 155.436873 
L 232.465605 163.047273 
L 232.703575 166.210036 
L 232.941545 163.986218 
L 233.179515 166.210036 
L 233.417485 160.378691 
L 233.655455 162.256582 
L 234.131395 176.241927 
L 234.369365 177.082036 
L 234.607335 178.465745 
L 234.845305 178.515164 
L 235.083275 175.698327 
L 235.321245 177.675055 
L 235.559215 178.020982 
L 235.797185 175.797164 
L 236.035155 175.747745 
L 236.273125 172.189636 
L 236.511095 172.140218 
L 236.749065 175.253564 
L 236.987035 174.907636 
L 237.225005 176.9832 
L 237.700945 170.954182 
L 237.938915 170.756509 
L 238.176885 169.125709 
L 238.414855 172.832073 
L 238.652825 173.474509 
L 238.890795 170.114073 
L 239.366735 175.3524 
L 239.604705 175.945418 
L 240.080645 185.186618 
L 240.318615 186.2244 
L 240.556585 188.843564 
L 240.794555 195.366764 
L 241.032525 194.131309 
L 241.270495 192.302836 
L 241.508465 186.273818 
L 241.746435 173.919273 
L 242.222375 168.631527 
L 242.460345 167.692582 
L 242.698315 176.884364 
L 242.936285 179.256436 
L 243.174255 176.340764 
L 243.412225 175.945418 
L 243.888165 180.837818 
L 244.126135 178.564582 
L 244.364105 179.108182 
L 244.602075 175.648909 
L 244.840045 180.096545 
L 245.078015 190.128436 
L 245.315986 189.634255 
L 245.553956 187.706945 
L 246.029896 178.712836 
L 246.505836 181.332 
L 246.981776 175.105309 
L 247.219746 175.006473 
L 247.457716 175.055891 
L 247.695686 174.364036 
L 248.171626 180.294218 
L 248.409596 170.855345 
L 248.647566 167.099564 
L 248.885536 167.742 
L 249.123506 165.221673 
L 249.599446 176.686691 
L 250.075386 188.151709 
L 250.789296 175.698327 
L 251.027266 166.012364 
L 251.265236 162.058909 
L 251.503206 166.704218 
L 251.741176 168.928036 
L 251.979146 165.913527 
L 252.217116 164.826327 
L 252.693056 178.416327 
L 252.931026 179.552945 
L 253.168996 179.602364 
L 253.644936 190.523782 
L 253.882906 186.669164 
L 254.120876 180.640145 
L 254.358846 171.398945 
L 254.596816 167.445491 
L 254.834786 171.349527 
L 255.310726 169.224545 
L 256.024636 178.119818 
L 256.262606 176.686691 
L 256.500576 171.201273 
L 256.738546 169.422218 
L 256.976516 171.053018 
L 257.452456 178.861091 
L 257.690426 180.343636 
L 257.928396 178.366909 
L 258.166366 172.733236 
L 258.642306 166.457127 
L 258.880276 162.207164 
L 259.118246 165.221673 
L 259.594186 176.291345 
L 260.070126 168.878618 
L 260.308096 169.718727 
L 260.546066 171.794291 
L 260.784036 170.756509 
L 261.022006 168.087927 
L 261.259976 170.410582 
L 261.973886 179.948291 
L 262.211856 179.602364 
L 262.449826 176.933782 
L 262.687796 176.933782 
L 263.163736 166.210036 
L 263.401706 165.419345 
L 263.639676 162.207164 
L 263.877646 162.701345 
L 264.353586 153.262473 
L 264.591556 153.6084 
L 264.829526 143.922436 
L 265.067496 141.451527 
L 265.305466 144.218945 
L 265.543436 144.021273 
L 266.019376 151.9776 
L 266.495316 165.666436 
L 266.733286 168.878618 
L 266.971256 169.521055 
L 267.209226 168.977455 
L 267.685166 159.736255 
L 267.923136 159.439745 
L 268.161106 160.1316 
L 268.399076 158.896145 
L 268.637046 158.253709 
L 269.112986 153.163636 
L 269.588926 145.256727 
L 269.826896 144.515455 
L 270.064866 145.652073 
L 270.302836 149.704364 
L 270.540806 150.445636 
L 270.778776 149.605527 
L 271.016746 150.989236 
L 271.968626 137.893418 
L 272.206596 137.201564 
L 272.444566 136.163782 
L 272.682536 138.338182 
L 272.920506 136.954473 
L 273.158476 134.829491 
L 274.110356 147.974727 
L 274.348326 149.902036 
L 274.824266 156.968836 
L 276.252086 142.143382 
L 276.490056 136.410873 
L 276.728026 134.434145 
L 276.965996 140.413745 
L 277.203966 140.710255 
L 277.679906 143.477673 
L 277.917876 142.143382 
L 278.631786 121.634836 
L 278.869756 123.315055 
L 279.345696 133.890545 
L 279.583666 136.608545 
L 280.059606 134.384727 
L 280.535546 124.204582 
L 280.773516 124.7976 
L 281.011486 120.498218 
L 281.249456 119.262764 
L 281.487426 120.547636 
L 281.725396 113.826764 
L 282.439306 120.399382 
L 282.677276 126.4284 
L 283.153216 123.7104 
L 283.391186 120.251127 
L 283.867126 111.454691 
L 284.343066 102.855927 
L 284.581036 106.710545 
L 284.819006 115.5564 
L 285.056976 119.213345 
L 285.294946 116.989527 
L 285.532916 120.794727 
L 285.770886 121.140655 
L 286.008856 118.422655 
L 286.484796 119.065091 
L 286.722766 120.597055 
L 287.198706 114.617455 
L 287.436676 113.233745 
L 287.674646 107.649491 
L 287.912616 108.884945 
L 288.150586 110.861673 
L 288.388556 114.815127 
L 288.626526 121.140655 
L 288.864496 121.585418 
L 289.340436 117.681382 
L 289.578406 116.989527 
L 289.816376 117.335455 
L 290.054346 116.594182 
L 290.292316 116.693018 
L 290.530286 119.954618 
L 290.768256 117.681382 
L 291.006226 116.693018 
L 291.244196 116.445927 
L 291.482166 114.271527 
L 291.720136 115.358727 
L 291.958106 113.826764 
L 292.196076 109.972145 
L 292.434046 108.736691 
L 292.672016 108.193091 
L 292.909986 107.204727 
L 293.385927 113.184327 
L 293.623897 112.393636 
L 293.861867 114.518618 
L 294.099837 117.681382 
L 294.575777 119.806364 
L 294.813747 121.585418 
L 295.051717 125.588291 
L 295.527657 118.620327 
L 295.765627 122.129018 
L 296.003597 119.3616 
L 296.241567 120.547636 
L 296.479537 121.041818 
L 296.717507 119.707527 
L 296.955477 120.646473 
L 297.193447 114.4692 
L 297.431417 114.913964 
L 297.669387 116.1 
L 297.907357 115.309309 
L 298.145327 118.175564 
L 298.383297 117.631964 
L 298.621267 123.067964 
L 298.859237 122.722036 
L 299.097207 118.126145 
L 299.335177 120.004036 
L 299.573147 118.472073 
L 300.049087 114.568036 
L 300.525027 111.899455 
L 301.238937 121.190073 
L 301.476907 126.922582 
L 301.714877 126.774327 
L 302.190817 134.137636 
L 302.428787 132.605673 
L 302.666757 135.126 
L 302.904727 134.187055 
L 303.142697 132.556255 
L 303.380667 132.358582 
L 304.094577 117.928473 
L 304.570517 114.963382 
L 305.046457 115.852909 
L 305.284427 116.396509 
L 305.522397 121.931345 
L 305.760367 118.521491 
L 305.998337 118.175564 
L 306.236307 124.006909 
L 306.474277 119.262764 
L 306.712247 119.509855 
L 306.950217 121.288909 
L 307.188187 118.224982 
L 307.426157 118.323818 
L 307.664127 116.594182 
L 307.902097 116.396509 
L 308.140067 116.544764 
L 308.378037 112.492473 
L 308.616007 106.512873 
L 308.853977 106.661127 
L 309.091947 111.454691 
L 309.329917 113.629091 
L 309.805857 110.861673 
L 310.043827 111.306436 
L 310.281797 109.082618 
L 310.519767 109.626218 
L 310.757737 106.216364 
L 310.995707 105.7716 
L 311.233677 110.268655 
L 311.471647 110.070982 
L 311.947587 115.506982 
L 312.185557 114.617455 
L 312.661497 110.713418 
L 312.899467 110.169818 
L 313.137437 111.553527 
L 313.375407 108.637855 
L 313.613377 107.748327 
L 313.851347 110.416909 
L 314.089317 111.602945 
L 314.327287 117.236618 
L 314.565257 118.076727 
L 314.803227 116.248255 
L 315.279167 109.132036 
L 315.517137 106.957636 
L 315.755107 103.646618 
L 315.993077 103.251273 
L 316.231047 103.992545 
L 316.706987 108.736691 
L 316.944957 110.268655 
L 317.420897 116.347091 
L 317.896837 117.582545 
L 318.610747 111.405273 
L 318.848717 110.762836 
L 319.086687 107.896582 
L 319.324657 107.155309 
L 319.562627 109.329709 
L 319.800597 108.884945 
L 320.038567 107.847164 
L 320.276537 108.143673 
L 320.514507 110.219236 
L 320.752477 110.070982 
L 320.990447 114.4692 
L 321.228417 116.149418 
L 321.466387 114.123273 
L 321.704357 117.631964 
L 322.180297 112.2948 
L 322.418267 114.222109 
L 322.656237 111.504109 
L 322.894207 111.405273 
L 323.132177 113.332582 
L 323.370147 111.2076 
L 323.608117 112.097127 
L 323.846087 112.492473 
L 324.084057 114.617455 
L 324.322027 114.222109 
L 324.559997 111.652364 
L 324.797967 111.899455 
L 325.035937 113.134909 
L 325.273907 112.541891 
L 325.511877 109.922727 
L 325.749847 111.257018 
L 326.701727 102.954764 
L 327.177667 100.829782 
L 327.415637 106.117527 
L 327.653607 105.969273 
L 327.891577 104.733818 
L 328.129547 107.007055 
L 328.367517 106.562291 
L 328.605487 111.701782 
L 328.843457 111.257018 
L 329.081427 111.899455 
L 329.319397 113.480836 
L 329.557367 112.146545 
L 329.795337 114.765709 
L 330.033307 112.195964 
L 330.747217 115.655236 
L 330.985187 119.9052 
L 331.223157 118.521491 
L 331.699097 124.352836 
L 331.937067 123.463309 
L 332.175037 125.390618 
L 332.888947 123.858655 
L 333.126917 124.303418 
L 333.840827 118.669745 
L 334.078797 118.027309 
L 334.316767 124.7976 
L 334.554737 125.983636 
L 335.268647 109.5768 
L 335.506617 109.230873 
L 335.982557 128.108618 
L 336.220527 126.626073 
L 336.696467 120.646473 
L 336.934437 121.536 
L 337.172407 121.288909 
L 337.410377 121.585418 
L 337.648347 122.919709 
L 337.886317 122.474945 
L 338.124287 124.006909 
L 338.362257 121.881927 
L 338.600227 121.536 
L 338.838197 125.094109 
L 339.076167 126.477818 
L 339.314137 126.181309 
L 339.552107 123.562145 
L 339.790077 125.538873 
L 340.028047 125.489455 
L 340.266017 128.405127 
L 340.503987 133.050436 
L 340.741957 133.544618 
L 340.979928 141.599782 
L 341.217898 142.588145 
L 341.931808 133.297527 
L 342.169778 135.027164 
L 342.407748 140.759673 
L 342.645718 143.230582 
L 342.883688 142.983491 
L 343.121658 147.579382 
L 343.121658 147.579382 
" style="fill:none;stroke:#ff7f0e;stroke-linecap:square;stroke-width:1.5;"/>
   </g>
   <g id="line2d_18">
    <path clip-path="url(#p28153e04d7)" d="M 343.359628 151.730509 
L 343.835568 160.1316 
L 344.073538 161.663564 
L 344.549478 160.6752 
L 344.787448 164.727491 
L 345.025418 161.7624 
L 345.263388 154.201418 
L 345.501358 152.620036 
L 345.739328 151.928182 
L 346.215268 158.154873 
L 346.453238 159.933927 
L 346.691208 168.977455 
L 346.929178 169.471636 
L 347.167148 167.742 
L 347.405118 170.509418 
L 347.643088 165.320509 
L 347.881058 164.4804 
L 348.119028 163.146109 
L 348.356998 160.823455 
L 348.594968 161.2188 
L 348.832938 157.660691 
L 349.070908 159.0444 
L 349.308878 164.085055 
L 349.546848 172.041382 
L 349.784818 176.241927 
L 350.022788 174.561709 
L 350.260758 178.169236 
L 350.498728 179.898873 
L 350.974668 172.584982 
L 351.450608 177.773891 
L 351.688578 177.477382 
L 351.926548 185.6808 
L 352.164518 189.535418 
L 352.402488 186.273818 
L 352.640458 185.433709 
L 352.878428 184.000582 
L 353.830308 171.102436 
L 354.068278 169.323382 
L 354.306248 172.189636 
L 354.782188 183.5064 
L 355.258128 188.448218 
L 355.496098 187.657527 
L 355.734068 189.733091 
L 355.972038 193.637127 
L 356.447978 191.166218 
L 356.685948 190.721455 
L 357.399858 182.073273 
L 357.637828 181.183745 
L 357.875798 181.332 
L 358.351738 175.302982 
L 358.589708 177.724473 
L 358.827678 182.666291 
L 359.303618 200.308582 
L 359.779558 203.669018 
L 360.017528 202.384145 
L 360.493468 197.442327 
L 360.731438 195.416182 
L 360.969408 194.823164 
L 361.445348 202.186473 
L 361.683318 203.224255 
L 361.921288 201.593455 
L 362.159258 198.134182 
L 362.397228 200.061491 
L 362.635198 200.358 
L 362.873168 199.715564 
L 363.111138 201.395782 
L 363.349108 201.791127 
L 363.825048 206.041091 
L 364.063018 206.732945 
L 364.300988 207.078873 
L 364.538958 202.730073 
L 365.014898 189.584836 
L 365.252868 181.727345 
L 365.490838 182.518036 
L 366.680688 224.078727 
L 366.918658 226.006036 
L 367.156628 224.869418 
L 367.394598 222.052582 
L 367.632568 217.011927 
L 367.870538 218.148545 
L 368.346478 208.808509 
L 368.822418 220.026436 
L 369.298358 238.360582 
L 369.536328 242.116364 
L 369.774298 236.828618 
L 370.250238 219.878182 
L 370.726178 205.892836 
L 370.964148 205.151564 
L 371.202118 206.139927 
L 371.440088 208.709673 
L 371.678058 214.293927 
L 372.153998 219.384 
L 372.391968 219.779345 
L 372.629938 218.197964 
L 373.105878 222.744436 
L 373.343848 219.779345 
L 373.581818 219.136909 
L 373.581818 219.136909 
" style="fill:none;stroke:#2ca02c;stroke-linecap:square;stroke-width:1.5;"/>
   </g>
   <g id="patch_3">
    <path d="M 54 252 
L 54 34.56 
" style="fill:none;stroke:#000000;stroke-linecap:square;stroke-linejoin:miter;stroke-width:0.8;"/>
   </g>
   <g id="patch_4">
    <path d="M 388.8 252 
L 388.8 34.56 
" style="fill:none;stroke:#000000;stroke-linecap:square;stroke-linejoin:miter;stroke-width:0.8;"/>
   </g>
   <g id="patch_5">
    <path d="M 54 252 
L 388.8 252 
" style="fill:none;stroke:#000000;stroke-linecap:square;stroke-linejoin:miter;stroke-width:0.8;"/>
   </g>
   <g id="patch_6">
    <path d="M 54 34.56 
L 388.8 34.56 
" style="fill:none;stroke:#000000;stroke-linecap:square;stroke-linejoin:miter;stroke-width:0.8;"/>
   </g>
   <g id="text_18">
    <!-- the extended chunk -->
    <g transform="translate(161.264063 28.56)scale(0.12 -0.12)">
     <defs>
      <path d="M 54.890625 33.015625 
L 54.890625 0 
L 45.90625 0 
L 45.90625 32.71875 
Q 45.90625 40.484375 42.875 44.328125 
Q 39.84375 48.1875 33.796875 48.1875 
Q 26.515625 48.1875 22.3125 43.546875 
Q 18.109375 38.921875 18.109375 30.90625 
L 18.109375 0 
L 9.078125 0 
L 9.078125 75.984375 
L 18.109375 75.984375 
L 18.109375 46.1875 
Q 21.34375 51.125 25.703125 53.5625 
Q 30.078125 56 35.796875 56 
Q 45.21875 56 50.046875 50.171875 
Q 54.890625 44.34375 54.890625 33.015625 
z
" id="DejaVuSans-104"/>
      <path id="DejaVuSans-32"/>
      <path d="M 54.890625 54.6875 
L 35.109375 28.078125 
L 55.90625 0 
L 45.3125 0 
L 29.390625 21.484375 
L 13.484375 0 
L 2.875 0 
L 24.125 28.609375 
L 4.6875 54.6875 
L 15.28125 54.6875 
L 29.78125 35.203125 
L 44.28125 54.6875 
z
" id="DejaVuSans-120"/>
      <path d="M 54.890625 33.015625 
L 54.890625 0 
L 45.90625 0 
L 45.90625 32.71875 
Q 45.90625 40.484375 42.875 44.328125 
Q 39.84375 48.1875 33.796875 48.1875 
Q 26.515625 48.1875 22.3125 43.546875 
Q 18.109375 38.921875 18.109375 30.90625 
L 18.109375 0 
L 9.078125 0 
L 9.078125 54.6875 
L 18.109375 54.6875 
L 18.109375 46.1875 
Q 21.34375 51.125 25.703125 53.5625 
Q 30.078125 56 35.796875 56 
Q 45.21875 56 50.046875 50.171875 
Q 54.890625 44.34375 54.890625 33.015625 
z
" id="DejaVuSans-110"/>
      <path d="M 48.78125 52.59375 
L 48.78125 44.1875 
Q 44.96875 46.296875 41.140625 47.34375 
Q 37.3125 48.390625 33.40625 48.390625 
Q 24.65625 48.390625 19.8125 42.84375 
Q 14.984375 37.3125 14.984375 27.296875 
Q 14.984375 17.28125 19.8125 11.734375 
Q 24.65625 6.203125 33.40625 6.203125 
Q 37.3125 6.203125 41.140625 7.25 
Q 44.96875 8.296875 48.78125 10.40625 
L 48.78125 2.09375 
Q 45.015625 0.34375 40.984375 -0.53125 
Q 36.96875 -1.421875 32.421875 -1.421875 
Q 20.0625 -1.421875 12.78125 6.34375 
Q 5.515625 14.109375 5.515625 27.296875 
Q 5.515625 40.671875 12.859375 48.328125 
Q 20.21875 56 33.015625 56 
Q 37.15625 56 41.109375 55.140625 
Q 45.0625 54.296875 48.78125 52.59375 
z
" id="DejaVuSans-99"/>
      <path d="M 9.078125 75.984375 
L 18.109375 75.984375 
L 18.109375 31.109375 
L 44.921875 54.6875 
L 56.390625 54.6875 
L 27.390625 29.109375 
L 57.625 0 
L 45.90625 0 
L 18.109375 26.703125 
L 18.109375 0 
L 9.078125 0 
z
" id="DejaVuSans-107"/>
     </defs>
     <use xlink:href="#DejaVuSans-116"/>
     <use x="39.208984" xlink:href="#DejaVuSans-104"/>
     <use x="102.587891" xlink:href="#DejaVuSans-101"/>
     <use x="164.111328" xlink:href="#DejaVuSans-32"/>
     <use x="195.898438" xlink:href="#DejaVuSans-101"/>
     <use x="255.671875" xlink:href="#DejaVuSans-120"/>
     <use x="314.851562" xlink:href="#DejaVuSans-116"/>
     <use x="354.060547" xlink:href="#DejaVuSans-101"/>
     <use x="415.583984" xlink:href="#DejaVuSans-110"/>
     <use x="478.962891" xlink:href="#DejaVuSans-100"/>
     <use x="542.439453" xlink:href="#DejaVuSans-101"/>
     <use x="603.962891" xlink:href="#DejaVuSans-100"/>
     <use x="667.439453" xlink:href="#DejaVuSans-32"/>
     <use x="699.226562" xlink:href="#DejaVuSans-99"/>
     <use x="754.207031" xlink:href="#DejaVuSans-104"/>
     <use x="817.585938" xlink:href="#DejaVuSans-117"/>
     <use x="880.964844" xlink:href="#DejaVuSans-110"/>
     <use x="944.34375" xlink:href="#DejaVuSans-107"/>
    </g>
   </g>
  </g>
 </g>
 <defs>
  <clipPath id="p28153e04d7">
   <rect height="217.44" width="334.8" x="54" y="34.56"/>
  </clipPath>
 </defs>
</svg>
