<?xml version="1.0" encoding="utf-8" standalone="no"?>
<!DOCTYPE svg PUBLIC "-//W3C//DTD SVG 1.1//EN"
  "http://www.w3.org/Graphics/SVG/1.1/DTD/svg11.dtd">
<!-- Created with matplotlib (https://matplotlib.org/) -->
<svg height="288pt" version="1.1" viewBox="0 0 432 288" width="432pt" xmlns="http://www.w3.org/2000/svg" xmlns:xlink="http://www.w3.org/1999/xlink">
 <metadata>
  <rdf:RDF xmlns:cc="http://creativecommons.org/ns#" xmlns:dc="http://purl.org/dc/elements/1.1/" xmlns:rdf="http://www.w3.org/1999/02/22-rdf-syntax-ns#">
   <cc:Work>
    <dc:type rdf:resource="http://purl.org/dc/dcmitype/StillImage"/>
    <dc:date>2021-02-09T16:41:01.512630</dc:date>
    <dc:format>image/svg+xml</dc:format>
    <dc:creator>
     <cc:Agent>
      <dc:title>Matplotlib v3.3.3, https://matplotlib.org/</dc:title>
     </cc:Agent>
    </dc:creator>
   </cc:Work>
  </rdf:RDF>
 </metadata>
 <defs>
  <style type="text/css">*{stroke-linecap:butt;stroke-linejoin:round;}</style>
 </defs>
 <g id="figure_1">
  <g id="patch_1">
   <path d="M 0 288 
L 432 288 
L 432 0 
L 0 0 
z
" style="fill:none;"/>
  </g>
  <g id="axes_1">
   <g id="patch_2">
    <path d="M 54 252 
L 388.8 252 
L 388.8 34.56 
L 54 34.56 
z
" style="fill:#ffffff;"/>
   </g>
   <g id="matplotlib.axis_1">
    <g id="xtick_1">
     <g id="line2d_1">
      <defs>
       <path d="M 0 0 
L 0 3.5 
" id="md199fec4e8" style="stroke:#000000;stroke-width:0.8;"/>
      </defs>
      <g>
       <use style="stroke:#000000;stroke-width:0.8;" x="69.218182" xlink:href="#md199fec4e8" y="252"/>
      </g>
     </g>
     <g id="text_1">
      <!-- 0 -->
      <g transform="translate(66.036932 266.598437)scale(0.1 -0.1)">
       <defs>
        <path d="M 31.78125 66.40625 
Q 24.171875 66.40625 20.328125 58.90625 
Q 16.5 51.421875 16.5 36.375 
Q 16.5 21.390625 20.328125 13.890625 
Q 24.171875 6.390625 31.78125 6.390625 
Q 39.453125 6.390625 43.28125 13.890625 
Q 47.125 21.390625 47.125 36.375 
Q 47.125 51.421875 43.28125 58.90625 
Q 39.453125 66.40625 31.78125 66.40625 
z
M 31.78125 74.21875 
Q 44.046875 74.21875 50.515625 64.515625 
Q 56.984375 54.828125 56.984375 36.375 
Q 56.984375 17.96875 50.515625 8.265625 
Q 44.046875 -1.421875 31.78125 -1.421875 
Q 19.53125 -1.421875 13.0625 8.265625 
Q 6.59375 17.96875 6.59375 36.375 
Q 6.59375 54.828125 13.0625 64.515625 
Q 19.53125 74.21875 31.78125 74.21875 
z
" id="DejaVuSans-48"/>
       </defs>
       <use xlink:href="#DejaVuSans-48"/>
      </g>
     </g>
    </g>
    <g id="xtick_2">
     <g id="line2d_2">
      <g>
       <use style="stroke:#000000;stroke-width:0.8;" x="118.772665" xlink:href="#md199fec4e8" y="252"/>
      </g>
     </g>
     <g id="text_2">
      <!-- 500 -->
      <g transform="translate(109.228915 266.598437)scale(0.1 -0.1)">
       <defs>
        <path d="M 10.796875 72.90625 
L 49.515625 72.90625 
L 49.515625 64.59375 
L 19.828125 64.59375 
L 19.828125 46.734375 
Q 21.96875 47.46875 24.109375 47.828125 
Q 26.265625 48.1875 28.421875 48.1875 
Q 40.625 48.1875 47.75 41.5 
Q 54.890625 34.8125 54.890625 23.390625 
Q 54.890625 11.625 47.5625 5.09375 
Q 40.234375 -1.421875 26.90625 -1.421875 
Q 22.3125 -1.421875 17.546875 -0.640625 
Q 12.796875 0.140625 7.71875 1.703125 
L 7.71875 11.625 
Q 12.109375 9.234375 16.796875 8.0625 
Q 21.484375 6.890625 26.703125 6.890625 
Q 35.15625 6.890625 40.078125 11.328125 
Q 45.015625 15.765625 45.015625 23.390625 
Q 45.015625 31 40.078125 35.4375 
Q 35.15625 39.890625 26.703125 39.890625 
Q 22.75 39.890625 18.8125 39.015625 
Q 14.890625 38.140625 10.796875 36.28125 
z
" id="DejaVuSans-53"/>
       </defs>
       <use xlink:href="#DejaVuSans-53"/>
       <use x="63.623047" xlink:href="#DejaVuSans-48"/>
       <use x="127.246094" xlink:href="#DejaVuSans-48"/>
      </g>
     </g>
    </g>
    <g id="xtick_3">
     <g id="line2d_3">
      <g>
       <use style="stroke:#000000;stroke-width:0.8;" x="168.327148" xlink:href="#md199fec4e8" y="252"/>
      </g>
     </g>
     <g id="text_3">
      <!-- 1000 -->
      <g transform="translate(155.602148 266.598437)scale(0.1 -0.1)">
       <defs>
        <path d="M 12.40625 8.296875 
L 28.515625 8.296875 
L 28.515625 63.921875 
L 10.984375 60.40625 
L 10.984375 69.390625 
L 28.421875 72.90625 
L 38.28125 72.90625 
L 38.28125 8.296875 
L 54.390625 8.296875 
L 54.390625 0 
L 12.40625 0 
z
" id="DejaVuSans-49"/>
       </defs>
       <use xlink:href="#DejaVuSans-49"/>
       <use x="63.623047" xlink:href="#DejaVuSans-48"/>
       <use x="127.246094" xlink:href="#DejaVuSans-48"/>
       <use x="190.869141" xlink:href="#DejaVuSans-48"/>
      </g>
     </g>
    </g>
    <g id="xtick_4">
     <g id="line2d_4">
      <g>
       <use style="stroke:#000000;stroke-width:0.8;" x="217.881632" xlink:href="#md199fec4e8" y="252"/>
      </g>
     </g>
     <g id="text_4">
      <!-- 1500 -->
      <g transform="translate(205.156632 266.598437)scale(0.1 -0.1)">
       <use xlink:href="#DejaVuSans-49"/>
       <use x="63.623047" xlink:href="#DejaVuSans-53"/>
       <use x="127.246094" xlink:href="#DejaVuSans-48"/>
       <use x="190.869141" xlink:href="#DejaVuSans-48"/>
      </g>
     </g>
    </g>
    <g id="xtick_5">
     <g id="line2d_5">
      <g>
       <use style="stroke:#000000;stroke-width:0.8;" x="267.436115" xlink:href="#md199fec4e8" y="252"/>
      </g>
     </g>
     <g id="text_5">
      <!-- 2000 -->
      <g transform="translate(254.711115 266.598437)scale(0.1 -0.1)">
       <defs>
        <path d="M 19.1875 8.296875 
L 53.609375 8.296875 
L 53.609375 0 
L 7.328125 0 
L 7.328125 8.296875 
Q 12.9375 14.109375 22.625 23.890625 
Q 32.328125 33.6875 34.8125 36.53125 
Q 39.546875 41.84375 41.421875 45.53125 
Q 43.3125 49.21875 43.3125 52.78125 
Q 43.3125 58.59375 39.234375 62.25 
Q 35.15625 65.921875 28.609375 65.921875 
Q 23.96875 65.921875 18.8125 64.3125 
Q 13.671875 62.703125 7.8125 59.421875 
L 7.8125 69.390625 
Q 13.765625 71.78125 18.9375 73 
Q 24.125 74.21875 28.421875 74.21875 
Q 39.75 74.21875 46.484375 68.546875 
Q 53.21875 62.890625 53.21875 53.421875 
Q 53.21875 48.921875 51.53125 44.890625 
Q 49.859375 40.875 45.40625 35.40625 
Q 44.1875 33.984375 37.640625 27.21875 
Q 31.109375 20.453125 19.1875 8.296875 
z
" id="DejaVuSans-50"/>
       </defs>
       <use xlink:href="#DejaVuSans-50"/>
       <use x="63.623047" xlink:href="#DejaVuSans-48"/>
       <use x="127.246094" xlink:href="#DejaVuSans-48"/>
       <use x="190.869141" xlink:href="#DejaVuSans-48"/>
      </g>
     </g>
    </g>
    <g id="xtick_6">
     <g id="line2d_6">
      <g>
       <use style="stroke:#000000;stroke-width:0.8;" x="316.990598" xlink:href="#md199fec4e8" y="252"/>
      </g>
     </g>
     <g id="text_6">
      <!-- 2500 -->
      <g transform="translate(304.265598 266.598437)scale(0.1 -0.1)">
       <use xlink:href="#DejaVuSans-50"/>
       <use x="63.623047" xlink:href="#DejaVuSans-53"/>
       <use x="127.246094" xlink:href="#DejaVuSans-48"/>
       <use x="190.869141" xlink:href="#DejaVuSans-48"/>
      </g>
     </g>
    </g>
    <g id="xtick_7">
     <g id="line2d_7">
      <g>
       <use style="stroke:#000000;stroke-width:0.8;" x="366.545082" xlink:href="#md199fec4e8" y="252"/>
      </g>
     </g>
     <g id="text_7">
      <!-- 3000 -->
      <g transform="translate(353.820082 266.598437)scale(0.1 -0.1)">
       <defs>
        <path d="M 40.578125 39.3125 
Q 47.65625 37.796875 51.625 33 
Q 55.609375 28.21875 55.609375 21.1875 
Q 55.609375 10.40625 48.1875 4.484375 
Q 40.765625 -1.421875 27.09375 -1.421875 
Q 22.515625 -1.421875 17.65625 -0.515625 
Q 12.796875 0.390625 7.625 2.203125 
L 7.625 11.71875 
Q 11.71875 9.328125 16.59375 8.109375 
Q 21.484375 6.890625 26.8125 6.890625 
Q 36.078125 6.890625 40.9375 10.546875 
Q 45.796875 14.203125 45.796875 21.1875 
Q 45.796875 27.640625 41.28125 31.265625 
Q 36.765625 34.90625 28.71875 34.90625 
L 20.21875 34.90625 
L 20.21875 43.015625 
L 29.109375 43.015625 
Q 36.375 43.015625 40.234375 45.921875 
Q 44.09375 48.828125 44.09375 54.296875 
Q 44.09375 59.90625 40.109375 62.90625 
Q 36.140625 65.921875 28.71875 65.921875 
Q 24.65625 65.921875 20.015625 65.03125 
Q 15.375 64.15625 9.8125 62.3125 
L 9.8125 71.09375 
Q 15.4375 72.65625 20.34375 73.4375 
Q 25.25 74.21875 29.59375 74.21875 
Q 40.828125 74.21875 47.359375 69.109375 
Q 53.90625 64.015625 53.90625 55.328125 
Q 53.90625 49.265625 50.4375 45.09375 
Q 46.96875 40.921875 40.578125 39.3125 
z
" id="DejaVuSans-51"/>
       </defs>
       <use xlink:href="#DejaVuSans-51"/>
       <use x="63.623047" xlink:href="#DejaVuSans-48"/>
       <use x="127.246094" xlink:href="#DejaVuSans-48"/>
       <use x="190.869141" xlink:href="#DejaVuSans-48"/>
      </g>
     </g>
    </g>
    <g id="text_8">
     <!-- sample -->
     <g transform="translate(203.221094 280.276563)scale(0.1 -0.1)">
      <defs>
       <path d="M 44.28125 53.078125 
L 44.28125 44.578125 
Q 40.484375 46.53125 36.375 47.5 
Q 32.28125 48.484375 27.875 48.484375 
Q 21.1875 48.484375 17.84375 46.4375 
Q 14.5 44.390625 14.5 40.28125 
Q 14.5 37.15625 16.890625 35.375 
Q 19.28125 33.59375 26.515625 31.984375 
L 29.59375 31.296875 
Q 39.15625 29.25 43.1875 25.515625 
Q 47.21875 21.78125 47.21875 15.09375 
Q 47.21875 7.46875 41.1875 3.015625 
Q 35.15625 -1.421875 24.609375 -1.421875 
Q 20.21875 -1.421875 15.453125 -0.5625 
Q 10.6875 0.296875 5.421875 2 
L 5.421875 11.28125 
Q 10.40625 8.6875 15.234375 7.390625 
Q 20.0625 6.109375 24.8125 6.109375 
Q 31.15625 6.109375 34.5625 8.28125 
Q 37.984375 10.453125 37.984375 14.40625 
Q 37.984375 18.0625 35.515625 20.015625 
Q 33.0625 21.96875 24.703125 23.78125 
L 21.578125 24.515625 
Q 13.234375 26.265625 9.515625 29.90625 
Q 5.8125 33.546875 5.8125 39.890625 
Q 5.8125 47.609375 11.28125 51.796875 
Q 16.75 56 26.8125 56 
Q 31.78125 56 36.171875 55.265625 
Q 40.578125 54.546875 44.28125 53.078125 
z
" id="DejaVuSans-115"/>
       <path d="M 34.28125 27.484375 
Q 23.390625 27.484375 19.1875 25 
Q 14.984375 22.515625 14.984375 16.5 
Q 14.984375 11.71875 18.140625 8.90625 
Q 21.296875 6.109375 26.703125 6.109375 
Q 34.1875 6.109375 38.703125 11.40625 
Q 43.21875 16.703125 43.21875 25.484375 
L 43.21875 27.484375 
z
M 52.203125 31.203125 
L 52.203125 0 
L 43.21875 0 
L 43.21875 8.296875 
Q 40.140625 3.328125 35.546875 0.953125 
Q 30.953125 -1.421875 24.3125 -1.421875 
Q 15.921875 -1.421875 10.953125 3.296875 
Q 6 8.015625 6 15.921875 
Q 6 25.140625 12.171875 29.828125 
Q 18.359375 34.515625 30.609375 34.515625 
L 43.21875 34.515625 
L 43.21875 35.40625 
Q 43.21875 41.609375 39.140625 45 
Q 35.0625 48.390625 27.6875 48.390625 
Q 23 48.390625 18.546875 47.265625 
Q 14.109375 46.140625 10.015625 43.890625 
L 10.015625 52.203125 
Q 14.9375 54.109375 19.578125 55.046875 
Q 24.21875 56 28.609375 56 
Q 40.484375 56 46.34375 49.84375 
Q 52.203125 43.703125 52.203125 31.203125 
z
" id="DejaVuSans-97"/>
       <path d="M 52 44.1875 
Q 55.375 50.25 60.0625 53.125 
Q 64.75 56 71.09375 56 
Q 79.640625 56 84.28125 50.015625 
Q 88.921875 44.046875 88.921875 33.015625 
L 88.921875 0 
L 79.890625 0 
L 79.890625 32.71875 
Q 79.890625 40.578125 77.09375 44.375 
Q 74.3125 48.1875 68.609375 48.1875 
Q 61.625 48.1875 57.5625 43.546875 
Q 53.515625 38.921875 53.515625 30.90625 
L 53.515625 0 
L 44.484375 0 
L 44.484375 32.71875 
Q 44.484375 40.625 41.703125 44.40625 
Q 38.921875 48.1875 33.109375 48.1875 
Q 26.21875 48.1875 22.15625 43.53125 
Q 18.109375 38.875 18.109375 30.90625 
L 18.109375 0 
L 9.078125 0 
L 9.078125 54.6875 
L 18.109375 54.6875 
L 18.109375 46.1875 
Q 21.1875 51.21875 25.484375 53.609375 
Q 29.78125 56 35.6875 56 
Q 41.65625 56 45.828125 52.96875 
Q 50 49.953125 52 44.1875 
z
" id="DejaVuSans-109"/>
       <path d="M 18.109375 8.203125 
L 18.109375 -20.796875 
L 9.078125 -20.796875 
L 9.078125 54.6875 
L 18.109375 54.6875 
L 18.109375 46.390625 
Q 20.953125 51.265625 25.265625 53.625 
Q 29.59375 56 35.59375 56 
Q 45.5625 56 51.78125 48.09375 
Q 58.015625 40.1875 58.015625 27.296875 
Q 58.015625 14.40625 51.78125 6.484375 
Q 45.5625 -1.421875 35.59375 -1.421875 
Q 29.59375 -1.421875 25.265625 0.953125 
Q 20.953125 3.328125 18.109375 8.203125 
z
M 48.6875 27.296875 
Q 48.6875 37.203125 44.609375 42.84375 
Q 40.53125 48.484375 33.40625 48.484375 
Q 26.265625 48.484375 22.1875 42.84375 
Q 18.109375 37.203125 18.109375 27.296875 
Q 18.109375 17.390625 22.1875 11.75 
Q 26.265625 6.109375 33.40625 6.109375 
Q 40.53125 6.109375 44.609375 11.75 
Q 48.6875 17.390625 48.6875 27.296875 
z
" id="DejaVuSans-112"/>
       <path d="M 9.421875 75.984375 
L 18.40625 75.984375 
L 18.40625 0 
L 9.421875 0 
z
" id="DejaVuSans-108"/>
       <path d="M 56.203125 29.59375 
L 56.203125 25.203125 
L 14.890625 25.203125 
Q 15.484375 15.921875 20.484375 11.0625 
Q 25.484375 6.203125 34.421875 6.203125 
Q 39.59375 6.203125 44.453125 7.46875 
Q 49.3125 8.734375 54.109375 11.28125 
L 54.109375 2.78125 
Q 49.265625 0.734375 44.1875 -0.34375 
Q 39.109375 -1.421875 33.890625 -1.421875 
Q 20.796875 -1.421875 13.15625 6.1875 
Q 5.515625 13.8125 5.515625 26.8125 
Q 5.515625 40.234375 12.765625 48.109375 
Q 20.015625 56 32.328125 56 
Q 43.359375 56 49.78125 48.890625 
Q 56.203125 41.796875 56.203125 29.59375 
z
M 47.21875 32.234375 
Q 47.125 39.59375 43.09375 43.984375 
Q 39.0625 48.390625 32.421875 48.390625 
Q 24.90625 48.390625 20.390625 44.140625 
Q 15.875 39.890625 15.1875 32.171875 
z
" id="DejaVuSans-101"/>
      </defs>
      <use xlink:href="#DejaVuSans-115"/>
      <use x="52.099609" xlink:href="#DejaVuSans-97"/>
      <use x="113.378906" xlink:href="#DejaVuSans-109"/>
      <use x="210.791016" xlink:href="#DejaVuSans-112"/>
      <use x="274.267578" xlink:href="#DejaVuSans-108"/>
      <use x="302.050781" xlink:href="#DejaVuSans-101"/>
     </g>
    </g>
   </g>
   <g id="matplotlib.axis_2">
    <g id="ytick_1">
     <g id="line2d_8">
      <defs>
       <path d="M 0 0 
L -3.5 0 
" id="mbcbd0398ca" style="stroke:#000000;stroke-width:0.8;"/>
      </defs>
      <g>
       <use style="stroke:#000000;stroke-width:0.8;" x="54" xlink:href="#mbcbd0398ca" y="223.733799"/>
      </g>
     </g>
     <g id="text_9">
      <!-- −7500 -->
      <g transform="translate(13.170313 227.533017)scale(0.1 -0.1)">
       <defs>
        <path d="M 10.59375 35.5 
L 73.1875 35.5 
L 73.1875 27.203125 
L 10.59375 27.203125 
z
" id="DejaVuSans-8722"/>
        <path d="M 8.203125 72.90625 
L 55.078125 72.90625 
L 55.078125 68.703125 
L 28.609375 0 
L 18.3125 0 
L 43.21875 64.59375 
L 8.203125 64.59375 
z
" id="DejaVuSans-55"/>
       </defs>
       <use xlink:href="#DejaVuSans-8722"/>
       <use x="83.789062" xlink:href="#DejaVuSans-55"/>
       <use x="147.412109" xlink:href="#DejaVuSans-53"/>
       <use x="211.035156" xlink:href="#DejaVuSans-48"/>
       <use x="274.658203" xlink:href="#DejaVuSans-48"/>
      </g>
     </g>
    </g>
    <g id="ytick_2">
     <g id="line2d_9">
      <g>
       <use style="stroke:#000000;stroke-width:0.8;" x="54" xlink:href="#mbcbd0398ca" y="193.657612"/>
      </g>
     </g>
     <g id="text_10">
      <!-- −5000 -->
      <g transform="translate(13.170313 197.456831)scale(0.1 -0.1)">
       <use xlink:href="#DejaVuSans-8722"/>
       <use x="83.789062" xlink:href="#DejaVuSans-53"/>
       <use x="147.412109" xlink:href="#DejaVuSans-48"/>
       <use x="211.035156" xlink:href="#DejaVuSans-48"/>
       <use x="274.658203" xlink:href="#DejaVuSans-48"/>
      </g>
     </g>
    </g>
    <g id="ytick_3">
     <g id="line2d_10">
      <g>
       <use style="stroke:#000000;stroke-width:0.8;" x="54" xlink:href="#mbcbd0398ca" y="163.581426"/>
      </g>
     </g>
     <g id="text_11">
      <!-- −2500 -->
      <g transform="translate(13.170313 167.380645)scale(0.1 -0.1)">
       <use xlink:href="#DejaVuSans-8722"/>
       <use x="83.789062" xlink:href="#DejaVuSans-50"/>
       <use x="147.412109" xlink:href="#DejaVuSans-53"/>
       <use x="211.035156" xlink:href="#DejaVuSans-48"/>
       <use x="274.658203" xlink:href="#DejaVuSans-48"/>
      </g>
     </g>
    </g>
    <g id="ytick_4">
     <g id="line2d_11">
      <g>
       <use style="stroke:#000000;stroke-width:0.8;" x="54" xlink:href="#mbcbd0398ca" y="133.505239"/>
      </g>
     </g>
     <g id="text_12">
      <!-- 0 -->
      <g transform="translate(40.6375 137.304458)scale(0.1 -0.1)">
       <use xlink:href="#DejaVuSans-48"/>
      </g>
     </g>
    </g>
    <g id="ytick_5">
     <g id="line2d_12">
      <g>
       <use style="stroke:#000000;stroke-width:0.8;" x="54" xlink:href="#mbcbd0398ca" y="103.429053"/>
      </g>
     </g>
     <g id="text_13">
      <!-- 2500 -->
      <g transform="translate(21.55 107.228272)scale(0.1 -0.1)">
       <use xlink:href="#DejaVuSans-50"/>
       <use x="63.623047" xlink:href="#DejaVuSans-53"/>
       <use x="127.246094" xlink:href="#DejaVuSans-48"/>
       <use x="190.869141" xlink:href="#DejaVuSans-48"/>
      </g>
     </g>
    </g>
    <g id="ytick_6">
     <g id="line2d_13">
      <g>
       <use style="stroke:#000000;stroke-width:0.8;" x="54" xlink:href="#mbcbd0398ca" y="73.352867"/>
      </g>
     </g>
     <g id="text_14">
      <!-- 5000 -->
      <g transform="translate(21.55 77.152085)scale(0.1 -0.1)">
       <use xlink:href="#DejaVuSans-53"/>
       <use x="63.623047" xlink:href="#DejaVuSans-48"/>
       <use x="127.246094" xlink:href="#DejaVuSans-48"/>
       <use x="190.869141" xlink:href="#DejaVuSans-48"/>
      </g>
     </g>
    </g>
    <g id="ytick_7">
     <g id="line2d_14">
      <g>
       <use style="stroke:#000000;stroke-width:0.8;" x="54" xlink:href="#mbcbd0398ca" y="43.27668"/>
      </g>
     </g>
     <g id="text_15">
      <!-- 7500 -->
      <g transform="translate(21.55 47.075899)scale(0.1 -0.1)">
       <use xlink:href="#DejaVuSans-55"/>
       <use x="63.623047" xlink:href="#DejaVuSans-53"/>
       <use x="127.246094" xlink:href="#DejaVuSans-48"/>
       <use x="190.869141" xlink:href="#DejaVuSans-48"/>
      </g>
     </g>
    </g>
    <g id="text_16">
     <!-- amplitude -->
     <g transform="translate(7.090625 168.546406)rotate(-90)scale(0.1 -0.1)">
      <defs>
       <path d="M 9.421875 54.6875 
L 18.40625 54.6875 
L 18.40625 0 
L 9.421875 0 
z
M 9.421875 75.984375 
L 18.40625 75.984375 
L 18.40625 64.59375 
L 9.421875 64.59375 
z
" id="DejaVuSans-105"/>
       <path d="M 18.3125 70.21875 
L 18.3125 54.6875 
L 36.8125 54.6875 
L 36.8125 47.703125 
L 18.3125 47.703125 
L 18.3125 18.015625 
Q 18.3125 11.328125 20.140625 9.421875 
Q 21.96875 7.515625 27.59375 7.515625 
L 36.8125 7.515625 
L 36.8125 0 
L 27.59375 0 
Q 17.1875 0 13.234375 3.875 
Q 9.28125 7.765625 9.28125 18.015625 
L 9.28125 47.703125 
L 2.6875 47.703125 
L 2.6875 54.6875 
L 9.28125 54.6875 
L 9.28125 70.21875 
z
" id="DejaVuSans-116"/>
       <path d="M 8.5 21.578125 
L 8.5 54.6875 
L 17.484375 54.6875 
L 17.484375 21.921875 
Q 17.484375 14.15625 20.5 10.265625 
Q 23.53125 6.390625 29.59375 6.390625 
Q 36.859375 6.390625 41.078125 11.03125 
Q 45.3125 15.671875 45.3125 23.6875 
L 45.3125 54.6875 
L 54.296875 54.6875 
L 54.296875 0 
L 45.3125 0 
L 45.3125 8.40625 
Q 42.046875 3.421875 37.71875 1 
Q 33.40625 -1.421875 27.6875 -1.421875 
Q 18.265625 -1.421875 13.375 4.4375 
Q 8.5 10.296875 8.5 21.578125 
z
M 31.109375 56 
z
" id="DejaVuSans-117"/>
       <path d="M 45.40625 46.390625 
L 45.40625 75.984375 
L 54.390625 75.984375 
L 54.390625 0 
L 45.40625 0 
L 45.40625 8.203125 
Q 42.578125 3.328125 38.25 0.953125 
Q 33.9375 -1.421875 27.875 -1.421875 
Q 17.96875 -1.421875 11.734375 6.484375 
Q 5.515625 14.40625 5.515625 27.296875 
Q 5.515625 40.1875 11.734375 48.09375 
Q 17.96875 56 27.875 56 
Q 33.9375 56 38.25 53.625 
Q 42.578125 51.265625 45.40625 46.390625 
z
M 14.796875 27.296875 
Q 14.796875 17.390625 18.875 11.75 
Q 22.953125 6.109375 30.078125 6.109375 
Q 37.203125 6.109375 41.296875 11.75 
Q 45.40625 17.390625 45.40625 27.296875 
Q 45.40625 37.203125 41.296875 42.84375 
Q 37.203125 48.484375 30.078125 48.484375 
Q 22.953125 48.484375 18.875 42.84375 
Q 14.796875 37.203125 14.796875 27.296875 
z
" id="DejaVuSans-100"/>
      </defs>
      <use xlink:href="#DejaVuSans-97"/>
      <use x="61.279297" xlink:href="#DejaVuSans-109"/>
      <use x="158.691406" xlink:href="#DejaVuSans-112"/>
      <use x="222.167969" xlink:href="#DejaVuSans-108"/>
      <use x="249.951172" xlink:href="#DejaVuSans-105"/>
      <use x="277.734375" xlink:href="#DejaVuSans-116"/>
      <use x="316.943359" xlink:href="#DejaVuSans-117"/>
      <use x="380.322266" xlink:href="#DejaVuSans-100"/>
      <use x="443.798828" xlink:href="#DejaVuSans-101"/>
     </g>
    </g>
   </g>
   <g id="line2d_15">
    <path clip-path="url(#p6487cdda9e)" d="M 69.218182 169.00717 
L 70.110163 198.770564 
L 70.605707 208.647583 
L 70.903034 210.59652 
L 71.101252 208.731797 
L 71.29947 206.337732 
L 71.695906 197.014115 
L 72.587887 165.590515 
L 74.470957 80.053841 
L 74.768284 74.748402 
L 75.065611 69.864029 
L 75.263829 67.265447 
L 75.362938 67.133111 
L 75.660265 67.818848 
L 76.056701 73.196471 
L 76.552245 86.249535 
L 77.444226 124.927511 
L 78.831752 182.517393 
L 79.327296 194.944873 
L 79.723732 199.612697 
L 79.92195 200.478891 
L 80.021059 200.322495 
L 80.219277 199.035234 
L 80.615713 191.468066 
L 81.111258 175.936723 
L 81.805021 148.795973 
L 82.895219 103.765906 
L 83.390764 90.087257 
L 83.7872 84.204355 
L 83.886309 83.795319 
L 83.985418 84.408873 
L 84.084527 84.300599 
L 84.183636 84.793848 
L 84.679181 92.926449 
L 84.976508 98.123614 
L 85.571161 109.781144 
L 86.165815 122.208624 
L 86.463142 124.927511 
L 86.562251 124.518475 
L 86.958687 119.140853 
L 88.048885 89.461672 
L 88.742648 63.656304 
L 89.53552 48.185114 
L 89.733738 46.260238 
L 89.832847 45.2978 
L 89.931956 45.333891 
L 90.130174 46.536939 
L 90.328392 49.652832 
L 90.724828 61.454727 
L 91.616808 102.033518 
L 93.698097 228.185074 
L 94.094532 240.552402 
L 94.29275 242.116364 
L 94.391859 241.803571 
L 94.590077 238.72377 
L 95.085622 220.076534 
L 95.680276 183.45577 
L 97.16691 72.67916 
L 97.662455 51.914561 
L 97.959782 46.332421 
L 98.058891 45.658714 
L 98.158 45.81511 
L 98.356218 47.535468 
L 98.653545 53.442431 
L 99.14909 69.900121 
L 99.743744 99.074021 
L 100.833942 153.969077 
L 101.725923 185.272371 
L 102.122359 192.250047 
L 102.617904 194.463654 
L 102.717013 194.174923 
L 102.816121 194.692233 
L 102.91523 194.644111 
L 103.212557 192.971875 
L 103.311666 192.382382 
L 103.708102 185.609225 
L 104.203647 171.714027 
L 105.194737 139.929513 
L 105.987608 119.092731 
L 106.384044 114.473029 
L 106.483153 114.629425 
L 106.78048 116.78288 
L 107.077807 121.727405 
L 108.168006 152.681816 
L 108.960877 175.407382 
L 109.357313 181.458711 
L 109.65464 183.515922 
L 109.852858 184.406177 
L 110.051076 183.768562 
L 110.249294 184.189629 
L 110.447512 183.034703 
L 111.042166 177.476624 
L 112.231473 151.719378 
L 114.411871 76.769521 
L 114.808306 71.018955 
L 114.907415 70.65804 
L 115.105633 71.464082 
L 115.303851 72.498703 
L 115.601178 78.562062 
L 115.997614 89.9068 
L 116.691377 118.779939 
L 117.38514 146.798914 
L 118.078902 167.082294 
L 118.871774 177.87363 
L 119.26821 180.243633 
L 119.466428 180.760943 
L 119.664646 180.712822 
L 119.961973 179.750384 
L 120.2593 177.055557 
L 120.655735 172.31555 
L 120.953062 167.286812 
L 121.349498 155.533038 
L 122.538806 114.328663 
L 123.232569 101.660573 
L 123.529896 98.881534 
L 123.629004 98.773259 
L 123.827222 100.698135 
L 124.421876 115.736229 
L 124.917421 126.202741 
L 125.611184 136.224127 
L 125.809402 136.705346 
L 126.00762 137.174534 
L 126.205838 134.383464 
L 126.503165 125.853858 
L 127.593363 88.306747 
L 128.188017 64.426255 
L 128.485344 53.971772 
L 128.782671 46.392573 
L 129.079998 44.443636 
L 129.179107 44.575972 
L 129.377325 45.622623 
L 129.476433 45.261709 
L 129.575542 46.139933 
L 130.368414 62.934476 
L 131.855049 131.760821 
L 133.341683 211.992055 
L 133.837228 228.281318 
L 134.134555 232.323557 
L 134.332773 230.567108 
L 134.530991 227.258728 
L 134.927427 214.193632 
L 135.422971 189.495068 
L 137.306042 74.291244 
L 137.702478 63.908944 
L 137.900696 61.935946 
L 137.999805 61.623154 
L 138.198023 62.826201 
L 138.495349 67.85494 
L 138.990894 80.859883 
L 139.783766 107.964542 
L 140.675747 136.428645 
L 141.171292 148.013992 
L 142.360599 170.005699 
L 142.757035 173.915603 
L 143.054362 175.85251 
L 143.25258 176.598399 
L 143.450798 176.514186 
L 143.748125 175.118651 
L 144.045452 172.423825 
L 144.739214 163.052085 
L 145.333868 150.492269 
L 145.829413 142.155151 
L 146.225849 139.279867 
L 146.424067 139.219715 
L 146.523176 139.400172 
L 146.721394 140.988195 
L 147.11783 146.570335 
L 148.703573 178.547336 
L 149.0009 179.990993 
L 149.100009 180.303785 
L 149.199118 180.075206 
L 149.595554 176.839009 
L 150.388425 162.787414 
L 152.86615 100.974836 
L 153.163477 96.583713 
L 153.460803 92.180559 
L 153.559912 91.93995 
L 153.75813 91.049695 
L 153.857239 91.145939 
L 153.956348 91.061725 
L 154.154566 90.760963 
L 154.650111 96.030311 
L 155.839419 131.73676 
L 156.235854 141.998754 
L 156.731399 151.827652 
L 157.028726 154.979636 
L 157.226944 156.615781 
L 157.524271 155.268368 
L 157.722489 154.017199 
L 158.515361 148.242571 
L 158.713579 147.677138 
L 158.812688 147.665108 
L 158.911797 147.532773 
L 159.010906 147.111706 
L 159.209123 147.532773 
L 159.308232 147.304194 
L 159.803777 149.192978 
L 160.200213 151.370494 
L 160.398431 152.152475 
L 160.49754 152.116384 
L 160.794867 151.322372 
L 161.290412 145.319165 
L 162.083284 132.314222 
L 162.281501 129.667518 
L 163.272591 117.997958 
L 163.470809 117.119733 
L 163.569918 117.119733 
L 163.768136 117.625013 
L 164.065463 120.752936 
L 164.461899 124.855328 
L 164.660117 126.599747 
L 164.759226 126.708021 
L 165.155661 122.918422 
L 165.651206 115.339223 
L 166.146751 106.13591 
L 166.642296 92.361016 
L 167.336059 71.283625 
L 167.732495 64.293919 
L 168.12893 60.095284 
L 168.426257 58.411017 
L 168.624475 58.194469 
L 168.822693 59.289242 
L 169.020911 61.129905 
L 169.417347 67.782757 
L 170.309328 88.246594 
L 170.606655 96.908536 
L 170.606655 96.908536 
" style="fill:none;stroke:#1f77b4;stroke-linecap:square;stroke-width:1.5;"/>
   </g>
   <g id="line2d_16">
    <path clip-path="url(#p6487cdda9e)" d="M 170.705764 100.120673 
L 171.696853 137.523418 
L 172.588834 176.10515 
L 173.282597 203.558693 
L 173.679033 212.593579 
L 173.976359 215.793685 
L 174.075468 215.829777 
L 174.273686 214.722973 
L 174.471904 212.401092 
L 174.86834 202.46392 
L 175.264776 187.076943 
L 176.255866 133.757879 
L 176.85052 106.845708 
L 177.346064 92.000102 
L 177.7425 84.493086 
L 178.039827 82.387753 
L 178.138936 82.31557 
L 178.238045 82.411814 
L 178.634481 86.309688 
L 180.220224 113.426377 
L 180.814878 125.15609 
L 182.400622 150.155416 
L 182.995275 158.62487 
L 183.49082 164.96493 
L 183.986365 170.01773 
L 184.382801 171.5456 
L 184.48191 171.665905 
L 184.779237 171.605752 
L 184.977455 170.956107 
L 185.076564 170.932046 
L 185.274782 170.52301 
L 185.473 170.691436 
L 185.770327 170.378644 
L 185.968544 170.619253 
L 186.067653 170.607223 
L 186.265871 170.823771 
L 186.36498 170.78768 
L 186.662307 171.653874 
L 187.256961 174.637432 
L 187.455179 175.142712 
L 187.653397 175.912662 
L 187.752506 175.744236 
L 187.851615 175.840479 
L 187.950724 175.660022 
L 188.34716 173.265958 
L 188.842704 166.97402 
L 189.338249 157.710554 
L 189.932903 143.731143 
L 190.824884 126.407259 
L 191.716865 112.042873 
L 192.707954 106.232154 
L 193.005281 105.702813 
L 193.10439 105.799057 
L 193.203499 105.558447 
L 193.302608 105.919361 
L 193.798153 110.827795 
L 194.194589 116.494148 
L 195.780332 139.688903 
L 196.275877 141.493475 
L 196.374986 141.565657 
L 196.474095 141.493475 
L 196.573204 141.685962 
L 196.96964 140.073879 
L 197.068749 140.122 
L 198.357165 130.196859 
L 198.555383 130.124676 
L 198.85271 131.399906 
L 199.447364 136.837681 
L 200.636672 148.447089 
L 200.73578 148.615515 
L 201.033107 148.122266 
L 201.231325 147.183889 
L 201.528652 144.93419 
L 203.015287 131.24351 
L 203.114396 131.051023 
L 203.312614 130.028432 
L 203.411723 130.124676 
L 203.60994 130.702139 
L 203.709049 130.846505 
L 203.907267 131.435998 
L 204.105485 131.23148 
L 204.303703 130.870566 
L 204.799248 126.214772 
L 205.691229 113.053433 
L 206.880536 89.702282 
L 207.673408 81.54562 
L 207.871626 80.835822 
L 207.970735 80.847852 
L 208.268062 81.617803 
L 208.763607 84.781818 
L 208.862716 84.866031 
L 209.358261 86.478114 
L 209.754696 89.557916 
L 211.142222 108.794645 
L 211.637767 120.620601 
L 212.926183 160.441472 
L 213.619946 182.264753 
L 214.016382 189.254458 
L 214.412818 192.815479 
L 214.710145 193.814008 
L 215.007472 192.791418 
L 215.20569 190.674054 
L 215.602125 182.469271 
L 216.593215 149.794502 
L 217.881632 106.990074 
L 218.575394 95.537062 
L 218.872721 93.648277 
L 219.070939 93.395637 
L 219.566484 96.800262 
L 220.656683 107.952511 
L 222.83708 140.134031 
L 223.629952 154.113442 
L 223.927279 158.263956 
L 225.017477 174.505097 
L 225.116586 174.998346 
L 225.215695 174.974285 
L 225.314804 174.914133 
L 225.513022 174.408853 
L 225.612131 174.396822 
L 225.909458 173.771238 
L 226.107676 173.302049 
L 226.405003 172.724586 
L 226.504112 172.772708 
L 226.70233 171.882453 
L 226.900548 171.786209 
L 227.296984 171.377173 
L 227.59431 171.990728 
L 227.792528 171.750118 
L 227.891637 171.79824 
L 227.990746 171.665905 
L 228.089855 171.79824 
L 228.288073 171.449356 
L 228.684509 169.716968 
L 229.378272 163.990462 
L 229.873817 156.146593 
L 230.369361 145.704141 
L 231.756887 117.408464 
L 231.955105 115.327192 
L 232.054214 115.26704 
L 232.45065 112.211299 
L 232.847086 110.671399 
L 232.946195 110.875917 
L 233.34263 113.366225 
L 233.540848 115.591863 
L 234.135502 121.691313 
L 234.631047 123.89289 
L 234.730156 124.205683 
L 235.126592 126.972692 
L 235.225701 127.17721 
L 235.523028 129.090055 
L 235.820355 129.643457 
L 236.018573 129.487061 
L 236.117682 129.655488 
L 236.216791 129.559244 
L 236.415008 128.921629 
L 236.514117 129.005842 
L 236.712335 129.643457 
L 236.811444 129.643457 
L 237.406098 131.628485 
L 237.505207 131.676607 
L 237.604316 131.460059 
L 237.703425 131.712699 
L 237.802534 132.422497 
L 237.901643 132.338283 
L 238.000752 132.230009 
L 238.298079 133.168386 
L 238.496297 133.938337 
L 238.694515 134.840622 
L 238.793624 134.78047 
L 239.090951 136.139913 
L 239.289168 136.103822 
L 239.883822 138.570069 
L 240.08204 139.015197 
L 240.280258 140.073879 
L 240.379367 139.989665 
L 240.478476 140.170122 
L 240.676694 141.072408 
L 240.775803 140.976164 
L 241.172239 143.201802 
L 241.271348 143.069467 
L 241.469566 144.332667 
L 241.568675 144.188301 
L 241.766893 144.513124 
L 242.262437 143.514594 
L 242.559764 142.119059 
L 242.658873 142.251394 
L 242.9562 141.144591 
L 243.253527 138.930983 
L 244.244617 128.079495 
L 245.929469 107.639719 
L 246.722341 101.480116 
L 246.920559 101.155293 
L 247.019668 101.32372 
L 247.217886 101.227476 
L 247.416104 101.720726 
L 247.515213 101.708695 
L 247.713431 102.08164 
L 248.010758 101.371842 
L 248.109866 101.744787 
L 248.208975 101.684634 
L 248.308084 101.239507 
L 248.605411 101.33575 
L 249.001847 102.59895 
L 249.200065 102.201945 
L 249.398283 102.623011 
L 249.497392 102.562859 
L 249.596501 102.274128 
L 249.893828 100.493617 
L 250.092046 99.386814 
L 250.290264 99.086052 
L 250.488482 99.001838 
L 251.876007 108.963071 
L 252.470661 120.512327 
L 255.047494 186.25887 
L 255.344821 189.711617 
L 255.543039 190.662024 
L 255.642148 190.613902 
L 255.840366 189.567251 
L 256.236802 183.576074 
L 256.930565 166.889806 
L 257.426109 148.579424 
L 258.417199 111.381197 
L 259.011853 100.373313 
L 259.507398 93.912948 
L 259.705616 93.503912 
L 260.102051 96.631835 
L 260.894923 106.737434 
L 261.985122 120.632632 
L 262.579776 127.923099 
L 263.174429 136.031639 
L 264.363737 154.31796 
L 265.553045 166.155947 
L 265.751263 166.72138 
L 266.048589 167.768031 
L 266.147698 167.792092 
L 266.246807 167.972549 
L 266.445025 168.525951 
L 266.742352 168.453768 
L 267.138788 168.405646 
L 267.237897 168.598134 
L 267.436115 168.26128 
L 267.634333 168.104884 
L 267.733442 168.345494 
L 267.93166 168.153006 
L 268.030769 168.453768 
L 268.625423 167.250721 
L 268.823641 166.637166 
L 268.922749 166.420618 
L 269.220076 164.988991 
L 269.418294 164.122797 
L 270.012948 157.734615 
L 270.409384 150.23963 
L 271.103147 135.28575 
L 271.995127 116.313691 
L 272.094236 114.460998 
L 272.094236 114.460998 
" style="fill:none;stroke:#ff7f0e;stroke-linecap:square;stroke-width:1.5;"/>
   </g>
   <g id="line2d_17">
    <path clip-path="url(#p6487cdda9e)" d="M 272.193345 112.788762 
L 272.589781 108.289365 
L 272.887108 106.617129 
L 272.986217 106.448702 
L 273.085326 106.544946 
L 273.382653 107.555506 
L 274.076416 113.089524 
L 275.463941 127.417819 
L 275.761268 128.404318 
L 276.256813 129.944219 
L 276.653249 132.097674 
L 276.752358 132.085643 
L 276.950576 133.26463 
L 277.049685 133.084173 
L 277.148794 133.240569 
L 277.347012 133.108234 
L 277.941665 134.395495 
L 278.338101 136.705346 
L 278.635428 137.06626 
L 278.833646 137.006108 
L 279.230082 135.502298 
L 279.329191 135.321841 
L 279.626518 135.478237 
L 279.923845 136.392553 
L 280.221172 137.270778 
L 280.320281 137.451235 
L 280.41939 137.367022 
L 280.716716 137.679814 
L 282.005133 145.054495 
L 282.203351 145.547744 
L 282.401569 146.065055 
L 282.500678 146.209421 
L 282.798005 145.93272 
L 282.897114 145.69211 
L 283.095332 144.296575 
L 283.590877 137.57154 
L 284.086421 129.72767 
L 284.482857 126.455381 
L 284.879293 122.737965 
L 285.672165 112.897037 
L 285.771274 112.668458 
L 286.266819 115.27907 
L 286.465037 116.879124 
L 286.564146 117.011459 
L 286.861472 115.928716 
L 287.05969 115.25501 
L 287.257908 114.051962 
L 287.456126 113.137646 
L 287.555235 113.354195 
L 287.753453 114.232419 
L 288.05078 114.160236 
L 288.248998 113.113585 
L 288.447216 110.863886 
L 289.04187 102.117731 
L 289.240088 100.31316 
L 289.636523 99.699606 
L 290.032959 98.147675 
L 290.330286 95.212239 
L 290.726722 91.350457 
L 290.92494 90.953451 
L 291.222267 92.048224 
L 292.213357 99.110113 
L 292.510684 103.982455 
L 293.006228 117.55283 
L 293.699991 143.683021 
L 294.889299 190.409384 
L 295.384844 203.606815 
L 295.68217 208.118243 
L 295.781279 208.779919 
L 295.880388 208.755858 
L 295.979497 208.479157 
L 296.177715 206.229458 
L 296.375933 202.163158 
L 296.970587 183.648257 
L 297.565241 158.672992 
L 298.853657 100.156764 
L 299.448311 86.87512 
L 299.844747 80.462877 
L 300.042965 79.139525 
L 300.241183 79.247799 
L 300.439401 80.739578 
L 300.835837 86.598419 
L 301.331382 94.021222 
L 302.124253 106.520885 
L 305.196631 177.440532 
L 305.593067 180.315816 
L 305.890394 180.845157 
L 306.088612 180.772974 
L 306.584157 179.196982 
L 306.881484 176.814948 
L 307.377029 169.440267 
L 307.773464 162.763354 
L 308.269009 158.408322 
L 308.665445 156.784208 
L 309.16099 151.382525 
L 309.557426 147.689169 
L 309.953862 145.956781 
L 310.052971 146.065055 
L 310.251189 145.162769 
L 310.647624 141.613779 
L 311.341387 131.099145 
L 311.638714 128.69305 
L 311.836932 127.971221 
L 312.134259 126.695991 
L 312.332477 126.479442 
L 312.828022 124.494414 
L 313.02624 125.095938 
L 313.125349 125.264364 
L 313.720002 129.944219 
L 314.215547 132.987929 
L 314.512874 133.300721 
L 314.611983 133.228539 
L 314.711092 133.5293 
L 314.90931 133.348843 
L 315.008419 133.553361 
L 315.107528 133.228539 
L 315.206637 133.360874 
L 315.305746 133.240569 
L 315.999509 130.750261 
L 316.594162 127.068936 
L 317.089707 123.89289 
L 317.585252 122.268776 
L 317.684361 122.425172 
L 317.981688 121.486795 
L 318.378124 119.345371 
L 318.477233 119.285219 
L 318.675451 118.599481 
L 318.873669 119.06867 
L 319.567431 124.939542 
L 319.963867 128.789293 
L 320.360303 132.77138 
L 320.756739 139.051288 
L 321.747829 154.871362 
L 322.045156 155.593191 
L 322.144265 155.605221 
L 322.243373 155.32852 
L 322.342482 155.484916 
L 322.639809 155.32852 
L 323.036245 153.969077 
L 323.234463 152.453237 
L 323.53179 147.195919 
L 324.52288 128.127617 
L 325.117534 122.774056 
L 325.41486 118.984457 
L 325.712187 114.737699 
L 325.910405 112.632366 
L 326.108623 110.863886 
L 326.207732 110.551094 
L 326.306841 110.623277 
L 326.505059 111.393227 
L 326.604168 111.501501 
L 326.703277 111.296983 
L 326.802386 111.46541 
L 326.901495 112.078964 
L 327.000604 111.898507 
L 327.198822 109.901448 
L 327.39704 108.241243 
L 327.892585 106.737434 
L 328.090803 108.638249 
L 328.388129 111.044343 
L 328.784565 114.00384 
L 328.883674 113.811353 
L 329.181001 112.151147 
L 329.28011 111.910538 
L 329.478328 109.985662 
L 329.775655 108.120938 
L 329.973873 107.844237 
L 330.072982 107.543475 
L 330.568527 103.224535 
L 331.16318 93.323454 
L 331.460507 89.533855 
L 331.559616 89.088727 
L 331.658725 89.197002 
L 331.956052 90.303805 
L 332.451597 94.935538 
L 333.046251 104.006516 
L 333.442687 115.483589 
L 335.821302 203.811333 
L 336.217738 209.152863 
L 336.316847 209.393473 
L 336.415956 209.32129 
L 336.515065 209.080681 
L 336.713283 206.578342 
L 337.307936 195.654671 
L 337.803481 177.765355 
L 338.199917 157.86695 
L 339.290116 97.606303 
L 339.983879 75.578504 
L 340.380314 66.423313 
L 340.677641 63.872853 
L 340.875859 64.450316 
L 341.074077 67.193264 
L 341.569622 79.656835 
L 342.75893 115.652015 
L 343.551801 149.73435 
L 344.047346 164.050614 
L 345.038436 188.989788 
L 345.335763 191.672584 
L 345.434872 191.853041 
L 345.533981 191.540249 
L 345.831308 188.652935 
L 346.624179 176.032967 
L 347.317942 159.671522 
L 348.110814 140.134031 
L 348.705468 133.757879 
L 349.300121 130.461529 
L 349.795666 129.438939 
L 349.993884 130.401377 
L 350.291211 132.843563 
L 351.183192 143.39429 
L 351.777846 148.964399 
L 352.075172 152.429176 
L 352.471608 157.915072 
L 352.868044 159.88807 
L 352.967153 159.707613 
L 353.363589 157.758676 
L 353.462698 157.397762 
L 353.958243 152.681816 
L 354.156461 150.76897 
L 354.552897 144.104088 
L 354.751115 140.194183 
L 355.246659 127.032844 
L 356.832403 97.197267 
L 357.030621 96.607774 
L 357.327948 95.729549 
L 357.427057 95.885946 
L 357.724384 97.582242 
L 358.517255 105.233624 
L 360.102999 143.887539 
L 360.598544 154.751057 
L 361.391415 166.98605 
L 361.589633 167.575543 
L 361.688742 167.443208 
L 361.88696 166.865745 
L 361.986069 166.540923 
L 362.382505 162.137769 
L 362.778941 156.459385 
L 363.373595 145.776323 
L 364.067357 131.664577 
L 364.364684 126.92457 
L 365.256665 112.018812 
L 366.148646 105.931392 
L 366.346864 105.341899 
L 366.545082 105.510325 
L 366.842408 106.917891 
L 368.031716 119.309279 
L 368.923697 134.936866 
L 369.221024 137.294839 
L 369.320133 137.222656 
L 369.518351 135.658694 
L 370.212113 126.960661 
L 370.50944 122.533447 
L 370.905876 113.065463 
L 371.797857 87.019486 
L 371.896966 86.574358 
L 372.392511 79.849323 
L 372.689837 77.972569 
L 372.888055 78.706428 
L 372.987164 78.826733 
L 373.185382 80.715517 
L 373.482709 85.287097 
L 373.581818 87.284156 
L 373.581818 87.284156 
" style="fill:none;stroke:#2ca02c;stroke-linecap:square;stroke-width:1.5;"/>
   </g>
   <g id="patch_3">
    <path d="M 54 252 
L 54 34.56 
" style="fill:none;stroke:#000000;stroke-linecap:square;stroke-linejoin:miter;stroke-width:0.8;"/>
   </g>
   <g id="patch_4">
    <path d="M 388.8 252 
L 388.8 34.56 
" style="fill:none;stroke:#000000;stroke-linecap:square;stroke-linejoin:miter;stroke-width:0.8;"/>
   </g>
   <g id="patch_5">
    <path d="M 54 252 
L 388.8 252 
" style="fill:none;stroke:#000000;stroke-linecap:square;stroke-linejoin:miter;stroke-width:0.8;"/>
   </g>
   <g id="patch_6">
    <path d="M 54 34.56 
L 388.8 34.56 
" style="fill:none;stroke:#000000;stroke-linecap:square;stroke-linejoin:miter;stroke-width:0.8;"/>
   </g>
   <g id="text_17">
    <!-- 3 consecutive chunks -->
    <g transform="translate(156.508125 28.56)scale(0.12 -0.12)">
     <defs>
      <path id="DejaVuSans-32"/>
      <path d="M 48.78125 52.59375 
L 48.78125 44.1875 
Q 44.96875 46.296875 41.140625 47.34375 
Q 37.3125 48.390625 33.40625 48.390625 
Q 24.65625 48.390625 19.8125 42.84375 
Q 14.984375 37.3125 14.984375 27.296875 
Q 14.984375 17.28125 19.8125 11.734375 
Q 24.65625 6.203125 33.40625 6.203125 
Q 37.3125 6.203125 41.140625 7.25 
Q 44.96875 8.296875 48.78125 10.40625 
L 48.78125 2.09375 
Q 45.015625 0.34375 40.984375 -0.53125 
Q 36.96875 -1.421875 32.421875 -1.421875 
Q 20.0625 -1.421875 12.78125 6.34375 
Q 5.515625 14.109375 5.515625 27.296875 
Q 5.515625 40.671875 12.859375 48.328125 
Q 20.21875 56 33.015625 56 
Q 37.15625 56 41.109375 55.140625 
Q 45.0625 54.296875 48.78125 52.59375 
z
" id="DejaVuSans-99"/>
      <path d="M 30.609375 48.390625 
Q 23.390625 48.390625 19.1875 42.75 
Q 14.984375 37.109375 14.984375 27.296875 
Q 14.984375 17.484375 19.15625 11.84375 
Q 23.34375 6.203125 30.609375 6.203125 
Q 37.796875 6.203125 41.984375 11.859375 
Q 46.1875 17.53125 46.1875 27.296875 
Q 46.1875 37.015625 41.984375 42.703125 
Q 37.796875 48.390625 30.609375 48.390625 
z
M 30.609375 56 
Q 42.328125 56 49.015625 48.375 
Q 55.71875 40.765625 55.71875 27.296875 
Q 55.71875 13.875 49.015625 6.21875 
Q 42.328125 -1.421875 30.609375 -1.421875 
Q 18.84375 -1.421875 12.171875 6.21875 
Q 5.515625 13.875 5.515625 27.296875 
Q 5.515625 40.765625 12.171875 48.375 
Q 18.84375 56 30.609375 56 
z
" id="DejaVuSans-111"/>
      <path d="M 54.890625 33.015625 
L 54.890625 0 
L 45.90625 0 
L 45.90625 32.71875 
Q 45.90625 40.484375 42.875 44.328125 
Q 39.84375 48.1875 33.796875 48.1875 
Q 26.515625 48.1875 22.3125 43.546875 
Q 18.109375 38.921875 18.109375 30.90625 
L 18.109375 0 
L 9.078125 0 
L 9.078125 54.6875 
L 18.109375 54.6875 
L 18.109375 46.1875 
Q 21.34375 51.125 25.703125 53.5625 
Q 30.078125 56 35.796875 56 
Q 45.21875 56 50.046875 50.171875 
Q 54.890625 44.34375 54.890625 33.015625 
z
" id="DejaVuSans-110"/>
      <path d="M 2.984375 54.6875 
L 12.5 54.6875 
L 29.59375 8.796875 
L 46.6875 54.6875 
L 56.203125 54.6875 
L 35.6875 0 
L 23.484375 0 
z
" id="DejaVuSans-118"/>
      <path d="M 54.890625 33.015625 
L 54.890625 0 
L 45.90625 0 
L 45.90625 32.71875 
Q 45.90625 40.484375 42.875 44.328125 
Q 39.84375 48.1875 33.796875 48.1875 
Q 26.515625 48.1875 22.3125 43.546875 
Q 18.109375 38.921875 18.109375 30.90625 
L 18.109375 0 
L 9.078125 0 
L 9.078125 75.984375 
L 18.109375 75.984375 
L 18.109375 46.1875 
Q 21.34375 51.125 25.703125 53.5625 
Q 30.078125 56 35.796875 56 
Q 45.21875 56 50.046875 50.171875 
Q 54.890625 44.34375 54.890625 33.015625 
z
" id="DejaVuSans-104"/>
      <path d="M 9.078125 75.984375 
L 18.109375 75.984375 
L 18.109375 31.109375 
L 44.921875 54.6875 
L 56.390625 54.6875 
L 27.390625 29.109375 
L 57.625 0 
L 45.90625 0 
L 18.109375 26.703125 
L 18.109375 0 
L 9.078125 0 
z
" id="DejaVuSans-107"/>
     </defs>
     <use xlink:href="#DejaVuSans-51"/>
     <use x="63.623047" xlink:href="#DejaVuSans-32"/>
     <use x="95.410156" xlink:href="#DejaVuSans-99"/>
     <use x="150.390625" xlink:href="#DejaVuSans-111"/>
     <use x="211.572266" xlink:href="#DejaVuSans-110"/>
     <use x="274.951172" xlink:href="#DejaVuSans-115"/>
     <use x="327.050781" xlink:href="#DejaVuSans-101"/>
     <use x="388.574219" xlink:href="#DejaVuSans-99"/>
     <use x="443.554688" xlink:href="#DejaVuSans-117"/>
     <use x="506.933594" xlink:href="#DejaVuSans-116"/>
     <use x="546.142578" xlink:href="#DejaVuSans-105"/>
     <use x="573.925781" xlink:href="#DejaVuSans-118"/>
     <use x="633.105469" xlink:href="#DejaVuSans-101"/>
     <use x="694.628906" xlink:href="#DejaVuSans-32"/>
     <use x="726.416016" xlink:href="#DejaVuSans-99"/>
     <use x="781.396484" xlink:href="#DejaVuSans-104"/>
     <use x="844.775391" xlink:href="#DejaVuSans-117"/>
     <use x="908.154297" xlink:href="#DejaVuSans-110"/>
     <use x="971.533203" xlink:href="#DejaVuSans-107"/>
     <use x="1029.443359" xlink:href="#DejaVuSans-115"/>
    </g>
   </g>
  </g>
 </g>
 <defs>
  <clipPath id="p6487cdda9e">
   <rect height="217.44" width="334.8" x="54" y="34.56"/>
  </clipPath>
 </defs>
</svg>
