<?xml version="1.0" encoding="utf-8" standalone="no"?>
<!DOCTYPE svg PUBLIC "-//W3C//DTD SVG 1.1//EN"
  "http://www.w3.org/Graphics/SVG/1.1/DTD/svg11.dtd">
<!-- Created with matplotlib (https://matplotlib.org/) -->
<svg height="288pt" version="1.1" viewBox="0 0 432 288" width="432pt" xmlns="http://www.w3.org/2000/svg" xmlns:xlink="http://www.w3.org/1999/xlink">
 <metadata>
  <rdf:RDF xmlns:cc="http://creativecommons.org/ns#" xmlns:dc="http://purl.org/dc/elements/1.1/" xmlns:rdf="http://www.w3.org/1999/02/22-rdf-syntax-ns#">
   <cc:Work>
    <dc:type rdf:resource="http://purl.org/dc/dcmitype/StillImage"/>
    <dc:date>2021-12-01T12:46:54.143678</dc:date>
    <dc:format>image/svg+xml</dc:format>
    <dc:creator>
     <cc:Agent>
      <dc:title>Matplotlib v3.3.3, https://matplotlib.org/</dc:title>
     </cc:Agent>
    </dc:creator>
   </cc:Work>
  </rdf:RDF>
 </metadata>
 <defs>
  <style type="text/css">*{stroke-linecap:butt;stroke-linejoin:round;}</style>
 </defs>
 <g id="figure_1">
  <g id="patch_1">
   <path d="M 0 288 
L 432 288 
L 432 0 
L 0 0 
z
" style="fill:none;"/>
  </g>
  <g id="axes_1">
   <g id="patch_2">
    <path d="M 54 252 
L 388.8 252 
L 388.8 34.56 
L 54 34.56 
z
" style="fill:#ffffff;"/>
   </g>
   <g id="matplotlib.axis_1">
    <g id="xtick_1">
     <g id="line2d_1">
      <defs>
       <path d="M 0 0 
L 0 3.5 
" id="me52f557016" style="stroke:#000000;stroke-width:0.8;"/>
      </defs>
      <g>
       <use style="stroke:#000000;stroke-width:0.8;" x="69.218182" xlink:href="#me52f557016" y="252"/>
      </g>
     </g>
     <g id="text_1">
      <!-- 0 -->
      <g transform="translate(66.036932 266.598437)scale(0.1 -0.1)">
       <defs>
        <path d="M 31.78125 66.40625 
Q 24.171875 66.40625 20.328125 58.90625 
Q 16.5 51.421875 16.5 36.375 
Q 16.5 21.390625 20.328125 13.890625 
Q 24.171875 6.390625 31.78125 6.390625 
Q 39.453125 6.390625 43.28125 13.890625 
Q 47.125 21.390625 47.125 36.375 
Q 47.125 51.421875 43.28125 58.90625 
Q 39.453125 66.40625 31.78125 66.40625 
z
M 31.78125 74.21875 
Q 44.046875 74.21875 50.515625 64.515625 
Q 56.984375 54.828125 56.984375 36.375 
Q 56.984375 17.96875 50.515625 8.265625 
Q 44.046875 -1.421875 31.78125 -1.421875 
Q 19.53125 -1.421875 13.0625 8.265625 
Q 6.59375 17.96875 6.59375 36.375 
Q 6.59375 54.828125 13.0625 64.515625 
Q 19.53125 74.21875 31.78125 74.21875 
z
" id="DejaVuSans-48"/>
       </defs>
       <use xlink:href="#DejaVuSans-48"/>
      </g>
     </g>
    </g>
    <g id="xtick_2">
     <g id="line2d_2">
      <g>
       <use style="stroke:#000000;stroke-width:0.8;" x="118.772665" xlink:href="#me52f557016" y="252"/>
      </g>
     </g>
     <g id="text_2">
      <!-- 500 -->
      <g transform="translate(109.228915 266.598437)scale(0.1 -0.1)">
       <defs>
        <path d="M 10.796875 72.90625 
L 49.515625 72.90625 
L 49.515625 64.59375 
L 19.828125 64.59375 
L 19.828125 46.734375 
Q 21.96875 47.46875 24.109375 47.828125 
Q 26.265625 48.1875 28.421875 48.1875 
Q 40.625 48.1875 47.75 41.5 
Q 54.890625 34.8125 54.890625 23.390625 
Q 54.890625 11.625 47.5625 5.09375 
Q 40.234375 -1.421875 26.90625 -1.421875 
Q 22.3125 -1.421875 17.546875 -0.640625 
Q 12.796875 0.140625 7.71875 1.703125 
L 7.71875 11.625 
Q 12.109375 9.234375 16.796875 8.0625 
Q 21.484375 6.890625 26.703125 6.890625 
Q 35.15625 6.890625 40.078125 11.328125 
Q 45.015625 15.765625 45.015625 23.390625 
Q 45.015625 31 40.078125 35.4375 
Q 35.15625 39.890625 26.703125 39.890625 
Q 22.75 39.890625 18.8125 39.015625 
Q 14.890625 38.140625 10.796875 36.28125 
z
" id="DejaVuSans-53"/>
       </defs>
       <use xlink:href="#DejaVuSans-53"/>
       <use x="63.623047" xlink:href="#DejaVuSans-48"/>
       <use x="127.246094" xlink:href="#DejaVuSans-48"/>
      </g>
     </g>
    </g>
    <g id="xtick_3">
     <g id="line2d_3">
      <g>
       <use style="stroke:#000000;stroke-width:0.8;" x="168.327148" xlink:href="#me52f557016" y="252"/>
      </g>
     </g>
     <g id="text_3">
      <!-- 1000 -->
      <g transform="translate(155.602148 266.598437)scale(0.1 -0.1)">
       <defs>
        <path d="M 12.40625 8.296875 
L 28.515625 8.296875 
L 28.515625 63.921875 
L 10.984375 60.40625 
L 10.984375 69.390625 
L 28.421875 72.90625 
L 38.28125 72.90625 
L 38.28125 8.296875 
L 54.390625 8.296875 
L 54.390625 0 
L 12.40625 0 
z
" id="DejaVuSans-49"/>
       </defs>
       <use xlink:href="#DejaVuSans-49"/>
       <use x="63.623047" xlink:href="#DejaVuSans-48"/>
       <use x="127.246094" xlink:href="#DejaVuSans-48"/>
       <use x="190.869141" xlink:href="#DejaVuSans-48"/>
      </g>
     </g>
    </g>
    <g id="xtick_4">
     <g id="line2d_4">
      <g>
       <use style="stroke:#000000;stroke-width:0.8;" x="217.881632" xlink:href="#me52f557016" y="252"/>
      </g>
     </g>
     <g id="text_4">
      <!-- 1500 -->
      <g transform="translate(205.156632 266.598437)scale(0.1 -0.1)">
       <use xlink:href="#DejaVuSans-49"/>
       <use x="63.623047" xlink:href="#DejaVuSans-53"/>
       <use x="127.246094" xlink:href="#DejaVuSans-48"/>
       <use x="190.869141" xlink:href="#DejaVuSans-48"/>
      </g>
     </g>
    </g>
    <g id="xtick_5">
     <g id="line2d_5">
      <g>
       <use style="stroke:#000000;stroke-width:0.8;" x="267.436115" xlink:href="#me52f557016" y="252"/>
      </g>
     </g>
     <g id="text_5">
      <!-- 2000 -->
      <g transform="translate(254.711115 266.598437)scale(0.1 -0.1)">
       <defs>
        <path d="M 19.1875 8.296875 
L 53.609375 8.296875 
L 53.609375 0 
L 7.328125 0 
L 7.328125 8.296875 
Q 12.9375 14.109375 22.625 23.890625 
Q 32.328125 33.6875 34.8125 36.53125 
Q 39.546875 41.84375 41.421875 45.53125 
Q 43.3125 49.21875 43.3125 52.78125 
Q 43.3125 58.59375 39.234375 62.25 
Q 35.15625 65.921875 28.609375 65.921875 
Q 23.96875 65.921875 18.8125 64.3125 
Q 13.671875 62.703125 7.8125 59.421875 
L 7.8125 69.390625 
Q 13.765625 71.78125 18.9375 73 
Q 24.125 74.21875 28.421875 74.21875 
Q 39.75 74.21875 46.484375 68.546875 
Q 53.21875 62.890625 53.21875 53.421875 
Q 53.21875 48.921875 51.53125 44.890625 
Q 49.859375 40.875 45.40625 35.40625 
Q 44.1875 33.984375 37.640625 27.21875 
Q 31.109375 20.453125 19.1875 8.296875 
z
" id="DejaVuSans-50"/>
       </defs>
       <use xlink:href="#DejaVuSans-50"/>
       <use x="63.623047" xlink:href="#DejaVuSans-48"/>
       <use x="127.246094" xlink:href="#DejaVuSans-48"/>
       <use x="190.869141" xlink:href="#DejaVuSans-48"/>
      </g>
     </g>
    </g>
    <g id="xtick_6">
     <g id="line2d_6">
      <g>
       <use style="stroke:#000000;stroke-width:0.8;" x="316.990598" xlink:href="#me52f557016" y="252"/>
      </g>
     </g>
     <g id="text_6">
      <!-- 2500 -->
      <g transform="translate(304.265598 266.598437)scale(0.1 -0.1)">
       <use xlink:href="#DejaVuSans-50"/>
       <use x="63.623047" xlink:href="#DejaVuSans-53"/>
       <use x="127.246094" xlink:href="#DejaVuSans-48"/>
       <use x="190.869141" xlink:href="#DejaVuSans-48"/>
      </g>
     </g>
    </g>
    <g id="xtick_7">
     <g id="line2d_7">
      <g>
       <use style="stroke:#000000;stroke-width:0.8;" x="366.545082" xlink:href="#me52f557016" y="252"/>
      </g>
     </g>
     <g id="text_7">
      <!-- 3000 -->
      <g transform="translate(353.820082 266.598437)scale(0.1 -0.1)">
       <defs>
        <path d="M 40.578125 39.3125 
Q 47.65625 37.796875 51.625 33 
Q 55.609375 28.21875 55.609375 21.1875 
Q 55.609375 10.40625 48.1875 4.484375 
Q 40.765625 -1.421875 27.09375 -1.421875 
Q 22.515625 -1.421875 17.65625 -0.515625 
Q 12.796875 0.390625 7.625 2.203125 
L 7.625 11.71875 
Q 11.71875 9.328125 16.59375 8.109375 
Q 21.484375 6.890625 26.8125 6.890625 
Q 36.078125 6.890625 40.9375 10.546875 
Q 45.796875 14.203125 45.796875 21.1875 
Q 45.796875 27.640625 41.28125 31.265625 
Q 36.765625 34.90625 28.71875 34.90625 
L 20.21875 34.90625 
L 20.21875 43.015625 
L 29.109375 43.015625 
Q 36.375 43.015625 40.234375 45.921875 
Q 44.09375 48.828125 44.09375 54.296875 
Q 44.09375 59.90625 40.109375 62.90625 
Q 36.140625 65.921875 28.71875 65.921875 
Q 24.65625 65.921875 20.015625 65.03125 
Q 15.375 64.15625 9.8125 62.3125 
L 9.8125 71.09375 
Q 15.4375 72.65625 20.34375 73.4375 
Q 25.25 74.21875 29.59375 74.21875 
Q 40.828125 74.21875 47.359375 69.109375 
Q 53.90625 64.015625 53.90625 55.328125 
Q 53.90625 49.265625 50.4375 45.09375 
Q 46.96875 40.921875 40.578125 39.3125 
z
" id="DejaVuSans-51"/>
       </defs>
       <use xlink:href="#DejaVuSans-51"/>
       <use x="63.623047" xlink:href="#DejaVuSans-48"/>
       <use x="127.246094" xlink:href="#DejaVuSans-48"/>
       <use x="190.869141" xlink:href="#DejaVuSans-48"/>
      </g>
     </g>
    </g>
    <g id="text_8">
     <!-- sample -->
     <g transform="translate(203.221094 280.276563)scale(0.1 -0.1)">
      <defs>
       <path d="M 44.28125 53.078125 
L 44.28125 44.578125 
Q 40.484375 46.53125 36.375 47.5 
Q 32.28125 48.484375 27.875 48.484375 
Q 21.1875 48.484375 17.84375 46.4375 
Q 14.5 44.390625 14.5 40.28125 
Q 14.5 37.15625 16.890625 35.375 
Q 19.28125 33.59375 26.515625 31.984375 
L 29.59375 31.296875 
Q 39.15625 29.25 43.1875 25.515625 
Q 47.21875 21.78125 47.21875 15.09375 
Q 47.21875 7.46875 41.1875 3.015625 
Q 35.15625 -1.421875 24.609375 -1.421875 
Q 20.21875 -1.421875 15.453125 -0.5625 
Q 10.6875 0.296875 5.421875 2 
L 5.421875 11.28125 
Q 10.40625 8.6875 15.234375 7.390625 
Q 20.0625 6.109375 24.8125 6.109375 
Q 31.15625 6.109375 34.5625 8.28125 
Q 37.984375 10.453125 37.984375 14.40625 
Q 37.984375 18.0625 35.515625 20.015625 
Q 33.0625 21.96875 24.703125 23.78125 
L 21.578125 24.515625 
Q 13.234375 26.265625 9.515625 29.90625 
Q 5.8125 33.546875 5.8125 39.890625 
Q 5.8125 47.609375 11.28125 51.796875 
Q 16.75 56 26.8125 56 
Q 31.78125 56 36.171875 55.265625 
Q 40.578125 54.546875 44.28125 53.078125 
z
" id="DejaVuSans-115"/>
       <path d="M 34.28125 27.484375 
Q 23.390625 27.484375 19.1875 25 
Q 14.984375 22.515625 14.984375 16.5 
Q 14.984375 11.71875 18.140625 8.90625 
Q 21.296875 6.109375 26.703125 6.109375 
Q 34.1875 6.109375 38.703125 11.40625 
Q 43.21875 16.703125 43.21875 25.484375 
L 43.21875 27.484375 
z
M 52.203125 31.203125 
L 52.203125 0 
L 43.21875 0 
L 43.21875 8.296875 
Q 40.140625 3.328125 35.546875 0.953125 
Q 30.953125 -1.421875 24.3125 -1.421875 
Q 15.921875 -1.421875 10.953125 3.296875 
Q 6 8.015625 6 15.921875 
Q 6 25.140625 12.171875 29.828125 
Q 18.359375 34.515625 30.609375 34.515625 
L 43.21875 34.515625 
L 43.21875 35.40625 
Q 43.21875 41.609375 39.140625 45 
Q 35.0625 48.390625 27.6875 48.390625 
Q 23 48.390625 18.546875 47.265625 
Q 14.109375 46.140625 10.015625 43.890625 
L 10.015625 52.203125 
Q 14.9375 54.109375 19.578125 55.046875 
Q 24.21875 56 28.609375 56 
Q 40.484375 56 46.34375 49.84375 
Q 52.203125 43.703125 52.203125 31.203125 
z
" id="DejaVuSans-97"/>
       <path d="M 52 44.1875 
Q 55.375 50.25 60.0625 53.125 
Q 64.75 56 71.09375 56 
Q 79.640625 56 84.28125 50.015625 
Q 88.921875 44.046875 88.921875 33.015625 
L 88.921875 0 
L 79.890625 0 
L 79.890625 32.71875 
Q 79.890625 40.578125 77.09375 44.375 
Q 74.3125 48.1875 68.609375 48.1875 
Q 61.625 48.1875 57.5625 43.546875 
Q 53.515625 38.921875 53.515625 30.90625 
L 53.515625 0 
L 44.484375 0 
L 44.484375 32.71875 
Q 44.484375 40.625 41.703125 44.40625 
Q 38.921875 48.1875 33.109375 48.1875 
Q 26.21875 48.1875 22.15625 43.53125 
Q 18.109375 38.875 18.109375 30.90625 
L 18.109375 0 
L 9.078125 0 
L 9.078125 54.6875 
L 18.109375 54.6875 
L 18.109375 46.1875 
Q 21.1875 51.21875 25.484375 53.609375 
Q 29.78125 56 35.6875 56 
Q 41.65625 56 45.828125 52.96875 
Q 50 49.953125 52 44.1875 
z
" id="DejaVuSans-109"/>
       <path d="M 18.109375 8.203125 
L 18.109375 -20.796875 
L 9.078125 -20.796875 
L 9.078125 54.6875 
L 18.109375 54.6875 
L 18.109375 46.390625 
Q 20.953125 51.265625 25.265625 53.625 
Q 29.59375 56 35.59375 56 
Q 45.5625 56 51.78125 48.09375 
Q 58.015625 40.1875 58.015625 27.296875 
Q 58.015625 14.40625 51.78125 6.484375 
Q 45.5625 -1.421875 35.59375 -1.421875 
Q 29.59375 -1.421875 25.265625 0.953125 
Q 20.953125 3.328125 18.109375 8.203125 
z
M 48.6875 27.296875 
Q 48.6875 37.203125 44.609375 42.84375 
Q 40.53125 48.484375 33.40625 48.484375 
Q 26.265625 48.484375 22.1875 42.84375 
Q 18.109375 37.203125 18.109375 27.296875 
Q 18.109375 17.390625 22.1875 11.75 
Q 26.265625 6.109375 33.40625 6.109375 
Q 40.53125 6.109375 44.609375 11.75 
Q 48.6875 17.390625 48.6875 27.296875 
z
" id="DejaVuSans-112"/>
       <path d="M 9.421875 75.984375 
L 18.40625 75.984375 
L 18.40625 0 
L 9.421875 0 
z
" id="DejaVuSans-108"/>
       <path d="M 56.203125 29.59375 
L 56.203125 25.203125 
L 14.890625 25.203125 
Q 15.484375 15.921875 20.484375 11.0625 
Q 25.484375 6.203125 34.421875 6.203125 
Q 39.59375 6.203125 44.453125 7.46875 
Q 49.3125 8.734375 54.109375 11.28125 
L 54.109375 2.78125 
Q 49.265625 0.734375 44.1875 -0.34375 
Q 39.109375 -1.421875 33.890625 -1.421875 
Q 20.796875 -1.421875 13.15625 6.1875 
Q 5.515625 13.8125 5.515625 26.8125 
Q 5.515625 40.234375 12.765625 48.109375 
Q 20.015625 56 32.328125 56 
Q 43.359375 56 49.78125 48.890625 
Q 56.203125 41.796875 56.203125 29.59375 
z
M 47.21875 32.234375 
Q 47.125 39.59375 43.09375 43.984375 
Q 39.0625 48.390625 32.421875 48.390625 
Q 24.90625 48.390625 20.390625 44.140625 
Q 15.875 39.890625 15.1875 32.171875 
z
" id="DejaVuSans-101"/>
      </defs>
      <use xlink:href="#DejaVuSans-115"/>
      <use x="52.099609" xlink:href="#DejaVuSans-97"/>
      <use x="113.378906" xlink:href="#DejaVuSans-109"/>
      <use x="210.791016" xlink:href="#DejaVuSans-112"/>
      <use x="274.267578" xlink:href="#DejaVuSans-108"/>
      <use x="302.050781" xlink:href="#DejaVuSans-101"/>
     </g>
    </g>
   </g>
   <g id="matplotlib.axis_2">
    <g id="ytick_1">
     <g id="line2d_8">
      <defs>
       <path d="M 0 0 
L -3.5 0 
" id="m650f62f229" style="stroke:#000000;stroke-width:0.8;"/>
      </defs>
      <g>
       <use style="stroke:#000000;stroke-width:0.8;" x="54" xlink:href="#m650f62f229" y="226.715882"/>
      </g>
     </g>
     <g id="text_9">
      <!-- −6000 -->
      <g transform="translate(13.170313 230.515101)scale(0.1 -0.1)">
       <defs>
        <path d="M 10.59375 35.5 
L 73.1875 35.5 
L 73.1875 27.203125 
L 10.59375 27.203125 
z
" id="DejaVuSans-8722"/>
        <path d="M 33.015625 40.375 
Q 26.375 40.375 22.484375 35.828125 
Q 18.609375 31.296875 18.609375 23.390625 
Q 18.609375 15.53125 22.484375 10.953125 
Q 26.375 6.390625 33.015625 6.390625 
Q 39.65625 6.390625 43.53125 10.953125 
Q 47.40625 15.53125 47.40625 23.390625 
Q 47.40625 31.296875 43.53125 35.828125 
Q 39.65625 40.375 33.015625 40.375 
z
M 52.59375 71.296875 
L 52.59375 62.3125 
Q 48.875 64.0625 45.09375 64.984375 
Q 41.3125 65.921875 37.59375 65.921875 
Q 27.828125 65.921875 22.671875 59.328125 
Q 17.53125 52.734375 16.796875 39.40625 
Q 19.671875 43.65625 24.015625 45.921875 
Q 28.375 48.1875 33.59375 48.1875 
Q 44.578125 48.1875 50.953125 41.515625 
Q 57.328125 34.859375 57.328125 23.390625 
Q 57.328125 12.15625 50.6875 5.359375 
Q 44.046875 -1.421875 33.015625 -1.421875 
Q 20.359375 -1.421875 13.671875 8.265625 
Q 6.984375 17.96875 6.984375 36.375 
Q 6.984375 53.65625 15.1875 63.9375 
Q 23.390625 74.21875 37.203125 74.21875 
Q 40.921875 74.21875 44.703125 73.484375 
Q 48.484375 72.75 52.59375 71.296875 
z
" id="DejaVuSans-54"/>
       </defs>
       <use xlink:href="#DejaVuSans-8722"/>
       <use x="83.789062" xlink:href="#DejaVuSans-54"/>
       <use x="147.412109" xlink:href="#DejaVuSans-48"/>
       <use x="211.035156" xlink:href="#DejaVuSans-48"/>
       <use x="274.658203" xlink:href="#DejaVuSans-48"/>
      </g>
     </g>
    </g>
    <g id="ytick_2">
     <g id="line2d_9">
      <g>
       <use style="stroke:#000000;stroke-width:0.8;" x="54" xlink:href="#m650f62f229" y="198.249187"/>
      </g>
     </g>
     <g id="text_10">
      <!-- −4000 -->
      <g transform="translate(13.170313 202.048406)scale(0.1 -0.1)">
       <defs>
        <path d="M 37.796875 64.3125 
L 12.890625 25.390625 
L 37.796875 25.390625 
z
M 35.203125 72.90625 
L 47.609375 72.90625 
L 47.609375 25.390625 
L 58.015625 25.390625 
L 58.015625 17.1875 
L 47.609375 17.1875 
L 47.609375 0 
L 37.796875 0 
L 37.796875 17.1875 
L 4.890625 17.1875 
L 4.890625 26.703125 
z
" id="DejaVuSans-52"/>
       </defs>
       <use xlink:href="#DejaVuSans-8722"/>
       <use x="83.789062" xlink:href="#DejaVuSans-52"/>
       <use x="147.412109" xlink:href="#DejaVuSans-48"/>
       <use x="211.035156" xlink:href="#DejaVuSans-48"/>
       <use x="274.658203" xlink:href="#DejaVuSans-48"/>
      </g>
     </g>
    </g>
    <g id="ytick_3">
     <g id="line2d_10">
      <g>
       <use style="stroke:#000000;stroke-width:0.8;" x="54" xlink:href="#m650f62f229" y="169.782493"/>
      </g>
     </g>
     <g id="text_11">
      <!-- −2000 -->
      <g transform="translate(13.170313 173.581711)scale(0.1 -0.1)">
       <use xlink:href="#DejaVuSans-8722"/>
       <use x="83.789062" xlink:href="#DejaVuSans-50"/>
       <use x="147.412109" xlink:href="#DejaVuSans-48"/>
       <use x="211.035156" xlink:href="#DejaVuSans-48"/>
       <use x="274.658203" xlink:href="#DejaVuSans-48"/>
      </g>
     </g>
    </g>
    <g id="ytick_4">
     <g id="line2d_11">
      <g>
       <use style="stroke:#000000;stroke-width:0.8;" x="54" xlink:href="#m650f62f229" y="141.315798"/>
      </g>
     </g>
     <g id="text_12">
      <!-- 0 -->
      <g transform="translate(40.6375 145.115017)scale(0.1 -0.1)">
       <use xlink:href="#DejaVuSans-48"/>
      </g>
     </g>
    </g>
    <g id="ytick_5">
     <g id="line2d_12">
      <g>
       <use style="stroke:#000000;stroke-width:0.8;" x="54" xlink:href="#m650f62f229" y="112.849103"/>
      </g>
     </g>
     <g id="text_13">
      <!-- 2000 -->
      <g transform="translate(21.55 116.648322)scale(0.1 -0.1)">
       <use xlink:href="#DejaVuSans-50"/>
       <use x="63.623047" xlink:href="#DejaVuSans-48"/>
       <use x="127.246094" xlink:href="#DejaVuSans-48"/>
       <use x="190.869141" xlink:href="#DejaVuSans-48"/>
      </g>
     </g>
    </g>
    <g id="ytick_6">
     <g id="line2d_13">
      <g>
       <use style="stroke:#000000;stroke-width:0.8;" x="54" xlink:href="#m650f62f229" y="84.382409"/>
      </g>
     </g>
     <g id="text_14">
      <!-- 4000 -->
      <g transform="translate(21.55 88.181628)scale(0.1 -0.1)">
       <use xlink:href="#DejaVuSans-52"/>
       <use x="63.623047" xlink:href="#DejaVuSans-48"/>
       <use x="127.246094" xlink:href="#DejaVuSans-48"/>
       <use x="190.869141" xlink:href="#DejaVuSans-48"/>
      </g>
     </g>
    </g>
    <g id="ytick_7">
     <g id="line2d_14">
      <g>
       <use style="stroke:#000000;stroke-width:0.8;" x="54" xlink:href="#m650f62f229" y="55.915714"/>
      </g>
     </g>
     <g id="text_15">
      <!-- 6000 -->
      <g transform="translate(21.55 59.714933)scale(0.1 -0.1)">
       <use xlink:href="#DejaVuSans-54"/>
       <use x="63.623047" xlink:href="#DejaVuSans-48"/>
       <use x="127.246094" xlink:href="#DejaVuSans-48"/>
       <use x="190.869141" xlink:href="#DejaVuSans-48"/>
      </g>
     </g>
    </g>
    <g id="text_16">
     <!-- amplitude -->
     <g transform="translate(7.090625 168.546406)rotate(-90)scale(0.1 -0.1)">
      <defs>
       <path d="M 9.421875 54.6875 
L 18.40625 54.6875 
L 18.40625 0 
L 9.421875 0 
z
M 9.421875 75.984375 
L 18.40625 75.984375 
L 18.40625 64.59375 
L 9.421875 64.59375 
z
" id="DejaVuSans-105"/>
       <path d="M 18.3125 70.21875 
L 18.3125 54.6875 
L 36.8125 54.6875 
L 36.8125 47.703125 
L 18.3125 47.703125 
L 18.3125 18.015625 
Q 18.3125 11.328125 20.140625 9.421875 
Q 21.96875 7.515625 27.59375 7.515625 
L 36.8125 7.515625 
L 36.8125 0 
L 27.59375 0 
Q 17.1875 0 13.234375 3.875 
Q 9.28125 7.765625 9.28125 18.015625 
L 9.28125 47.703125 
L 2.6875 47.703125 
L 2.6875 54.6875 
L 9.28125 54.6875 
L 9.28125 70.21875 
z
" id="DejaVuSans-116"/>
       <path d="M 8.5 21.578125 
L 8.5 54.6875 
L 17.484375 54.6875 
L 17.484375 21.921875 
Q 17.484375 14.15625 20.5 10.265625 
Q 23.53125 6.390625 29.59375 6.390625 
Q 36.859375 6.390625 41.078125 11.03125 
Q 45.3125 15.671875 45.3125 23.6875 
L 45.3125 54.6875 
L 54.296875 54.6875 
L 54.296875 0 
L 45.3125 0 
L 45.3125 8.40625 
Q 42.046875 3.421875 37.71875 1 
Q 33.40625 -1.421875 27.6875 -1.421875 
Q 18.265625 -1.421875 13.375 4.4375 
Q 8.5 10.296875 8.5 21.578125 
z
M 31.109375 56 
z
" id="DejaVuSans-117"/>
       <path d="M 45.40625 46.390625 
L 45.40625 75.984375 
L 54.390625 75.984375 
L 54.390625 0 
L 45.40625 0 
L 45.40625 8.203125 
Q 42.578125 3.328125 38.25 0.953125 
Q 33.9375 -1.421875 27.875 -1.421875 
Q 17.96875 -1.421875 11.734375 6.484375 
Q 5.515625 14.40625 5.515625 27.296875 
Q 5.515625 40.1875 11.734375 48.09375 
Q 17.96875 56 27.875 56 
Q 33.9375 56 38.25 53.625 
Q 42.578125 51.265625 45.40625 46.390625 
z
M 14.796875 27.296875 
Q 14.796875 17.390625 18.875 11.75 
Q 22.953125 6.109375 30.078125 6.109375 
Q 37.203125 6.109375 41.296875 11.75 
Q 45.40625 17.390625 45.40625 27.296875 
Q 45.40625 37.203125 41.296875 42.84375 
Q 37.203125 48.484375 30.078125 48.484375 
Q 22.953125 48.484375 18.875 42.84375 
Q 14.796875 37.203125 14.796875 27.296875 
z
" id="DejaVuSans-100"/>
      </defs>
      <use xlink:href="#DejaVuSans-97"/>
      <use x="61.279297" xlink:href="#DejaVuSans-109"/>
      <use x="158.691406" xlink:href="#DejaVuSans-112"/>
      <use x="222.167969" xlink:href="#DejaVuSans-108"/>
      <use x="249.951172" xlink:href="#DejaVuSans-105"/>
      <use x="277.734375" xlink:href="#DejaVuSans-116"/>
      <use x="316.943359" xlink:href="#DejaVuSans-117"/>
      <use x="380.322266" xlink:href="#DejaVuSans-100"/>
      <use x="443.798828" xlink:href="#DejaVuSans-101"/>
     </g>
    </g>
   </g>
   <g id="line2d_15">
    <path clip-path="url(#p6a521e7187)" d="M 69.218182 203.529759 
L 69.515509 202.206058 
L 69.713727 203.857126 
L 70.209271 199.003555 
L 70.506598 197.039353 
L 70.605707 196.840086 
L 70.704816 195.530618 
L 70.803925 196.142652 
L 70.903034 197.608687 
L 71.101252 203.458592 
L 71.200361 203.145459 
L 71.398579 200.156456 
L 71.596797 194.961284 
L 71.894124 198.064154 
L 71.993233 197.722553 
L 72.29056 189.353345 
L 72.488778 190.178879 
L 72.686996 191.986514 
L 72.885214 189.310645 
L 72.984323 189.410279 
L 73.18254 191.03288 
L 73.281649 190.207346 
L 73.380758 190.69128 
L 73.578976 193.310216 
L 73.678085 193.552183 
L 73.975412 190.235813 
L 74.371848 184.072773 
L 74.570066 182.791772 
L 74.669175 182.677905 
L 74.867393 181.567704 
L 75.16472 179.646202 
L 75.362938 181.012604 
L 75.660265 175.404665 
L 76.056701 164.188787 
L 76.354027 166.124522 
L 76.552245 168.999659 
L 76.651354 169.554759 
L 76.750463 169.426659 
L 77.146899 162.210352 
L 77.543335 156.92978 
L 77.741553 149.201072 
L 77.840662 149.841573 
L 78.137989 156.161179 
L 78.336207 158.353115 
L 78.435316 160.530817 
L 78.633534 158.239248 
L 79.02997 148.418238 
L 79.129078 148.930639 
L 79.525514 146.752937 
L 80.021059 151.805775 
L 80.219277 154.809011 
L 80.318386 154.097344 
L 80.516604 151.207974 
L 80.615713 151.592275 
L 80.91304 146.55367 
L 81.012149 145.970103 
L 81.210367 150.268574 
L 81.507694 158.466982 
L 81.606803 158.466982 
L 81.805021 157.556047 
L 82.003239 156.858613 
L 82.201456 154.809011 
L 82.498783 149.101439 
L 82.895219 154.922878 
L 82.994328 155.378345 
L 83.192546 158.011514 
L 83.291655 157.698381 
L 83.588982 154.994045 
L 83.7872 153.115243 
L 83.985418 152.787876 
L 84.183636 154.154277 
L 84.282745 154.054644 
L 84.679181 159.619883 
L 84.877399 158.424282 
L 85.174725 155.961912 
L 85.472052 151.720375 
L 85.571161 151.492641 
L 86.066706 161.925685 
L 86.463142 165.697522 
L 86.760469 169.768259 
L 87.355123 166.83619 
L 87.454232 166.992757 
L 88.147994 179.575036 
L 88.54443 175.788965 
L 88.742648 176.9134 
L 89.139084 182.208205 
L 89.238193 182.265138 
L 89.337302 182.706372 
L 89.436411 184.898307 
L 89.53552 183.019506 
L 89.634629 183.147606 
L 89.733738 182.976806 
L 89.832847 181.325737 
L 89.931956 182.108571 
L 90.328392 176.472166 
L 90.52661 179.304602 
L 90.724828 182.877172 
L 90.923045 187.218343 
L 91.220372 183.830806 
L 91.616808 178.066301 
L 91.815026 179.802769 
L 92.112353 182.236672 
L 92.310571 183.773873 
L 92.508789 186.321642 
L 92.607898 186.150842 
L 93.202552 178.621401 
L 93.40077 176.187499 
L 93.499879 176.244432 
L 93.598988 174.664531 
L 93.797206 176.386766 
L 93.896314 174.963431 
L 93.995423 175.262331 
L 95.28384 158.623548 
L 95.382949 158.424282 
L 95.878494 150.567474 
L 95.977603 149.91274 
L 96.175821 147.194171 
L 96.27493 146.325936 
L 96.473148 140.703764 
L 96.671366 140.888798 
L 96.869583 139.209263 
L 97.464237 127.424051 
L 97.662455 124.121915 
L 97.860673 119.89461 
L 97.959782 118.727476 
L 98.158 114.329372 
L 98.257109 113.788504 
L 98.455327 111.084168 
L 98.653545 110.785268 
L 98.752654 111.084168 
L 99.049981 105.917463 
L 99.347308 100.096024 
L 99.446417 99.839824 
L 99.842852 93.833351 
L 100.140179 90.075748 
L 100.239288 89.492181 
L 100.338397 89.534881 
L 100.635724 90.360415 
L 100.734833 90.146915 
L 101.329487 83.499941 
L 101.626814 80.482472 
L 101.825032 80.738672 
L 102.122359 82.944841 
L 102.221468 83.158341 
L 102.419686 82.162007 
L 102.617904 81.549973 
L 102.717013 82.033907 
L 102.816121 80.980639 
L 102.91523 81.165672 
L 103.014339 80.454005 
L 103.113448 80.510938 
L 103.212557 81.720773 
L 103.311666 81.265306 
L 103.608993 83.144108 
L 103.708102 83.001774 
L 103.807211 83.172574 
L 104.005429 81.87734 
L 104.401865 83.286441 
L 104.500974 83.300674 
L 104.600083 82.47514 
L 104.699192 82.702874 
L 105.293846 85.862677 
L 105.591173 84.667076 
L 105.987608 88.495846 
L 106.185826 90.488515 
L 106.284935 90.474282 
L 106.384044 91.484849 
L 106.582262 90.915515 
L 106.681371 92.38155 
L 106.78048 92.25345 
L 106.879589 92.72315 
L 106.978698 93.776418 
L 107.077807 93.577151 
L 107.276025 94.815452 
L 107.375134 94.772752 
L 107.573352 94.046852 
L 108.168006 99.327424 
L 108.267115 99.384357 
L 108.366224 100.067558 
L 108.465333 99.740191 
L 108.663551 101.035425 
L 108.762659 101.078125 
L 108.861768 100.693825 
L 108.960877 100.750758 
L 109.258204 102.558393 
L 109.456422 102.50146 
L 109.852858 105.220029 
L 109.951967 105.547396 
L 110.348403 108.152099 
L 110.546621 109.119966 
L 110.744839 110.842202 
L 110.843948 111.027235 
L 111.141275 113.532304 
L 111.240384 112.83487 
L 111.438602 115.80964 
L 111.537711 115.966207 
L 111.735928 117.588808 
L 112.330582 124.008048 
L 112.429691 123.25368 
L 112.5288 123.794548 
L 112.727018 125.061315 
L 112.826127 125.175182 
L 113.024345 126.840484 
L 113.321672 129.573287 
L 113.420781 129.28862 
L 113.618999 130.811588 
L 113.817217 131.921789 
L 114.015435 132.60499 
L 114.114544 132.533823 
L 114.213653 132.832723 
L 114.709197 136.704194 
L 114.808306 136.490693 
L 114.907415 136.917694 
L 115.502069 145.258435 
L 115.799396 156.97248 
L 116.195832 165.725989 
L 116.294941 165.270522 
L 116.493159 159.562949 
L 116.889595 143.806634 
L 117.087813 151.492641 
L 117.484249 169.369726 
L 117.781575 165.484022 
L 117.880684 165.683289 
L 118.178011 161.128618 
L 118.27712 161.384818 
L 118.376229 161.128618 
L 118.475338 160.089583 
L 118.574447 160.858184 
L 118.673556 160.41695 
L 119.069992 155.435279 
L 119.169101 155.463745 
L 119.367319 160.103817 
L 119.466428 159.77645 
L 119.664646 161.697951 
L 120.061082 159.278282 
L 120.2593 157.612981 
L 120.358409 158.666248 
L 120.457518 158.452748 
L 120.655735 160.11805 
L 121.052171 156.602413 
L 121.349498 158.623548 
L 121.944152 174.10943 
L 122.241479 170.92116 
L 122.340588 170.138326 
L 122.439697 170.650727 
L 122.538806 170.351827 
L 122.637915 170.565327 
L 122.935242 172.984996 
L 123.13346 174.664531 
L 123.232569 174.593364 
L 123.331678 174.351397 
L 123.529896 175.546998 
L 123.728113 177.952434 
L 123.827222 178.592935 
L 123.926331 180.756403 
L 124.02544 179.261902 
L 124.223658 180.158603 
L 124.322767 178.464835 
L 124.421876 178.820668 
L 124.520985 178.350968 
L 124.818312 178.678335 
L 125.01653 181.283037 
L 125.214748 182.606739 
L 125.313857 182.435938 
L 125.412966 182.236672 
L 125.611184 180.073203 
L 125.710293 179.817003 
L 125.809402 178.877602 
L 126.00762 180.386336 
L 126.106729 178.963002 
L 126.205838 179.091102 
L 126.404056 179.617736 
L 126.701382 178.763735 
L 126.800491 178.692568 
L 126.998709 177.525434 
L 127.196927 178.621401 
L 127.395145 178.407901 
L 127.494254 178.763735 
L 127.692472 177.653534 
L 127.791581 177.496967 
L 127.989799 175.561232 
L 128.088908 175.675098 
L 128.287126 172.743029 
L 128.386235 173.42623 
L 128.584453 171.945961 
L 128.88178 169.654393 
L 129.278216 166.252623 
L 129.377325 166.124522 
L 129.674651 164.459221 
L 129.77376 164.985855 
L 129.872869 164.516154 
L 130.071087 165.797155 
L 130.170196 165.284755 
L 130.269305 165.683289 
L 130.368414 165.185121 
L 130.467523 165.213588 
L 130.665741 165.569422 
L 130.963068 162.580419 
L 131.161286 160.658917 
L 131.359504 160.730084 
L 131.458613 160.189217 
L 131.656831 160.829717 
L 131.75594 160.601984 
L 131.954158 161.854518 
L 132.152376 162.608886 
L 132.251485 161.569851 
L 132.350594 161.612551 
L 132.449702 162.281519 
L 132.64792 161.370584 
L 132.747029 162.039552 
L 132.846138 161.697951 
L 133.044356 163.64792 
L 133.143465 163.60522 
L 133.440792 164.914688 
L 133.539901 165.839855 
L 133.738119 165.683289 
L 133.837228 166.62269 
L 133.936337 165.626355 
L 134.035446 165.953722 
L 134.134555 165.768689 
L 134.233664 165.071255 
L 134.332773 165.441322 
L 134.431882 164.843521 
L 134.530991 165.441322 
L 134.6301 165.199355 
L 134.729209 165.355922 
L 134.828318 166.067589 
L 134.927427 165.868322 
L 135.026536 166.067589 
L 135.125645 165.882556 
L 135.323863 166.70809 
L 135.621189 165.683289 
L 135.819407 164.416521 
L 135.918516 165.854089 
L 136.017625 164.146087 
L 136.116734 164.288421 
L 136.215843 164.843521 
L 136.51317 161.968385 
L 136.612279 162.139185 
L 136.711388 162.039552 
L 136.909606 161.028984 
L 137.008715 161.071684 
L 137.306042 159.847616 
L 137.50426 160.402717 
L 137.900696 158.637782 
L 138.594458 153.385677 
L 138.693567 153.22911 
L 138.891785 153.599177 
L 138.990894 153.044076 
L 139.189112 153.997711 
L 139.288221 152.588609 
L 139.486439 153.86961 
L 139.585548 152.417809 
L 139.783766 153.65611 
L 139.981984 152.930209 
L 140.180202 154.538578 
L 140.37842 154.766311 
L 140.477529 153.997711 
L 140.675747 154.111577 
L 140.774856 153.969244 
L 140.973074 153.029843 
L 141.270401 155.050978 
L 141.468618 153.91231 
L 141.666836 156.118479 
L 141.865054 155.036745 
L 141.964163 155.264478 
L 142.360599 152.332409 
L 142.459708 152.588609 
L 142.657926 150.396674 
L 142.757035 150.980241 
L 142.955253 151.933875 
L 143.054362 152.303942 
L 143.153471 153.257576 
L 143.25258 153.243343 
L 143.351689 153.001376 
L 143.549907 152.147375 
L 143.649016 152.987143 
L 143.748125 152.545909 
L 144.045452 149.016039 
L 144.144561 149.115672 
L 144.441887 147.06607 
L 144.540996 147.123004 
L 144.640105 146.68177 
L 144.739214 144.902602 
L 144.838323 145.187269 
L 144.937432 144.802968 
L 145.13565 143.180367 
L 145.333868 142.112866 
L 145.432977 141.956299 
L 145.532086 142.055932 
L 145.730304 140.518731 
L 145.829413 140.675297 
L 146.027631 139.209263 
L 146.12674 140.290997 
L 146.324958 139.949397 
L 146.424067 139.66473 
L 146.721394 137.743228 
L 146.820503 137.785928 
L 147.018721 137.131194 
L 147.216939 134.811158 
L 147.316047 134.853858 
L 147.415156 134.697292 
L 147.514265 135.579759 
L 147.613374 135.451659 
L 147.712483 135.892893 
L 148.108919 132.704623 
L 148.208028 133.259724 
L 148.604464 131.323988 
L 148.703573 131.494788 
L 148.802682 131.352455 
L 148.901791 131.793689 
L 149.0009 131.238588 
L 149.199118 127.922218 
L 149.298227 127.979152 
L 149.496445 125.758749 
L 149.595554 126.44195 
L 149.694663 126.35655 
L 149.99199 125.431382 
L 150.289316 127.039751 
L 150.388425 127.011284 
L 150.487534 128.206885 
L 150.685752 127.253251 
L 150.784861 127.552151 
L 151.082188 124.363881 
L 151.577733 120.108111 
L 151.676842 120.421244 
L 151.775951 119.923077 
L 152.172387 124.506215 
L 152.271496 124.292715 
L 152.370605 123.367547 
L 152.568823 124.662782 
L 152.767041 122.52778 
L 152.965259 121.189845 
L 153.064368 121.744946 
L 153.262585 120.478178 
L 153.361694 120.392778 
L 153.559912 121.132912 
L 153.659021 121.118678 
L 153.75813 121.645312 
L 154.055457 118.670543 
L 154.253675 119.140243 
L 154.352784 118.798643 
L 154.551002 119.780744 
L 154.74922 120.805545 
L 154.848329 120.805545 
L 155.046547 122.48508 
L 155.938528 116.293574 
L 156.136746 117.688442 
L 156.235854 116.649407 
L 156.533181 118.243542 
L 156.731399 117.958875 
L 156.929617 119.72381 
L 157.028726 119.42491 
L 157.226944 120.720145 
L 157.326053 119.80921 
L 157.425162 120.834011 
L 157.524271 120.748611 
L 157.920707 115.98044 
L 158.019816 116.265107 
L 158.218034 115.923506 
L 158.416252 117.958875 
L 158.812688 120.848245 
L 159.010906 120.990578 
L 159.209123 121.360645 
L 159.308232 120.734378 
L 159.407341 121.161378 
L 159.605559 119.994244 
L 159.704668 120.392778 
L 159.902886 119.33951 
L 160.101104 119.609943 
L 160.200213 119.55301 
L 160.596649 121.246778 
L 160.893976 123.29638 
L 160.993085 123.666447 
L 161.191303 124.862049 
L 161.290412 123.509881 
L 161.389521 123.837248 
L 161.48863 123.139814 
L 161.587739 121.517212 
L 161.686848 121.616845 
L 162.281501 124.904749 
L 162.479719 126.911651 
L 162.777046 126.52735 
L 162.975264 125.431382 
L 163.173482 126.299617 
L 163.470809 129.516353 
L 164.065463 134.796925 
L 164.759226 131.879089 
L 165.25477 137.728995 
L 165.353879 138.099062 
L 165.552097 137.202361 
L 165.948533 139.009996 
L 166.047642 138.056362 
L 166.146751 138.341028 
L 166.344969 137.757461 
L 166.741405 140.191364 
L 166.840514 140.589897 
L 167.23695 139.57933 
L 167.336059 140.13443 
L 167.435168 140.04903 
L 167.534277 139.508163 
L 167.633386 139.849763 
L 167.831604 138.597229 
L 168.228039 141.757032 
L 168.327148 141.130765 
L 168.426257 141.856665 
L 168.525366 141.643165 
L 168.723584 144.077067 
L 168.822693 144.162468 
L 168.921802 145.514636 
L 169.020911 145.272669 
L 169.219129 145.443469 
L 169.417347 144.788735 
L 169.516456 145.358069 
L 169.714674 143.792401 
L 169.813783 144.432901 
L 169.912892 143.351167 
L 170.012001 143.393867 
L 170.11111 143.393867 
L 170.210219 142.283666 
L 170.507546 144.404434 
L 170.606655 146.496736 
L 170.606655 146.496736 
" style="fill:none;stroke:#1f77b4;stroke-linecap:square;stroke-width:1.5;"/>
   </g>
   <g id="line2d_16">
    <path clip-path="url(#p6a521e7187)" d="M 170.705764 146.738703 
L 170.804873 147.179937 
L 171.00309 150.069307 
L 171.300417 152.674009 
L 171.399526 152.517442 
L 171.99418 146.55367 
L 172.192398 147.791971 
L 172.291507 148.247438 
L 172.687943 152.503209 
L 172.787052 152.175842 
L 172.98527 152.674009 
L 173.183488 152.061975 
L 173.381706 153.27181 
L 173.579924 152.432042 
L 173.679033 152.332409 
L 173.976359 150.610174 
L 174.075468 150.16894 
L 174.174577 150.197407 
L 174.372795 151.962342 
L 174.471904 151.919642 
L 174.571013 153.385677 
L 174.769231 152.175842 
L 175.066558 154.239677 
L 175.165667 154.538578 
L 175.264776 154.424711 
L 175.363885 153.513777 
L 175.462994 154.709378 
L 175.562103 154.666678 
L 175.661212 154.396244 
L 175.760321 155.335645 
L 175.958539 153.584943 
L 176.057648 153.48531 
L 176.156757 153.61341 
L 176.354975 154.367778 
L 176.652302 157.299847 
L 176.751411 157.755314 
L 176.85052 157.242914 
L 176.949628 157.442181 
L 177.147846 159.605649 
L 177.346064 158.694715 
L 177.445173 158.509682 
L 177.643391 157.27138 
L 177.841609 159.150182 
L 178.337154 157.755314 
L 178.436263 157.983048 
L 178.535372 158.281948 
L 178.73359 157.10058 
L 178.832699 156.773213 
L 179.328244 161.214018 
L 179.526462 159.90455 
L 179.625571 160.601984 
L 179.72468 162.438085 
L 179.922897 161.342118 
L 180.022006 162.295752 
L 180.220224 160.943584 
L 180.418442 162.978953 
L 181.112205 158.395815 
L 181.211314 158.993615 
L 181.310423 158.808582 
L 181.409532 157.371014 
L 181.508641 158.267715 
L 181.60775 157.812248 
L 181.706859 157.854948 
L 182.103295 159.790683 
L 182.301513 160.730084 
L 182.896166 157.01518 
L 183.193493 154.723611 
L 183.292602 154.609744 
L 183.391711 154.709378 
L 183.589929 156.730513 
L 183.788147 157.427947 
L 183.986365 159.093249 
L 184.085474 158.837049 
L 184.283692 159.292516 
L 184.382801 159.86185 
L 184.48191 159.249816 
L 184.680128 157.612981 
L 184.779237 157.598747 
L 185.175673 153.684577 
L 185.373891 155.762646 
L 185.572109 157.869181 
L 185.671218 157.157514 
L 185.770327 157.484881 
L 185.968544 155.791112 
L 186.067653 155.904979 
L 186.36498 153.855377 
L 186.563198 151.264908 
L 186.761416 151.791542 
L 187.157852 156.744747 
L 187.256961 156.37468 
L 187.455179 159.434849 
L 187.653397 156.872847 
L 187.950724 149.172606 
L 188.049833 148.304372 
L 188.148942 148.375538 
L 188.248051 148.176271 
L 188.446269 146.738703 
L 188.545378 148.916406 
L 188.644487 148.702905 
L 188.743596 148.019705 
L 188.842704 148.674439 
L 188.941813 147.791971 
L 189.140031 149.058739 
L 189.338249 147.123004 
L 189.536467 145.642736 
L 189.734685 144.262101 
L 190.032012 143.308467 
L 190.131121 143.393867 
L 190.329339 144.859902 
L 190.428448 145.898936 
L 190.527557 145.600036 
L 190.626666 143.920501 
L 190.725775 144.660635 
L 190.923993 142.596799 
L 191.22132 138.739562 
L 191.320429 136.917694 
L 191.419538 137.017327 
L 191.716865 140.290997 
L 192.014191 138.013661 
L 192.212409 135.949826 
L 192.410627 135.095825 
L 192.608845 133.601324 
L 193.302608 136.803827 
L 193.401717 136.68996 
L 193.599935 135.921359 
L 193.699044 136.547627 
L 194.09548 134.754225 
L 194.293698 134.341458 
L 194.392807 135.038892 
L 194.491916 134.796925 
L 194.690134 133.33089 
L 194.789242 133.302424 
L 194.888351 134.426858 
L 195.383896 129.786787 
L 195.483005 130.284954 
L 195.582114 130.156854 
L 195.780332 128.818919 
L 196.176768 135.992526 
L 196.275877 136.30566 
L 196.374986 135.423192 
L 196.573204 135.850193 
L 196.771422 134.540725 
L 197.068749 132.135289 
L 197.366076 128.448852 
L 197.465185 127.964918 
L 197.564294 128.434619 
L 197.86162 130.512687 
L 198.059838 132.249156 
L 198.158947 131.836389 
L 198.258056 131.992956 
L 198.357165 131.879089 
L 198.654492 127.708718 
L 198.753601 127.694485 
L 198.85271 127.224784 
L 199.050928 128.235352 
L 199.150037 127.039751 
L 199.249146 128.263819 
L 199.348255 127.666018 
L 199.744691 131.793689 
L 199.942909 129.573287 
L 200.141127 129.71562 
L 200.537563 125.829916 
L 200.636672 125.97225 
L 200.73578 125.772983 
L 201.132216 128.733519 
L 201.627761 126.48465 
L 201.825979 128.306519 
L 201.925088 129.174753 
L 202.024197 129.018186 
L 202.222415 129.28862 
L 202.420633 127.552151 
L 202.519742 128.007618 
L 202.916178 126.043416 
L 203.015287 125.516783 
L 203.411723 127.139384 
L 203.60994 129.829487 
L 203.808158 131.082021 
L 204.402812 125.289049 
L 204.501921 125.374449 
L 204.898357 129.473653 
L 204.997466 131.010855 
L 205.294793 129.84372 
L 205.59212 126.27115 
L 205.691229 125.673349 
L 205.790338 126.000716 
L 206.087665 127.907985 
L 206.186774 127.879518 
L 206.285883 128.975486 
L 206.384992 128.818919 
L 206.484101 128.391919 
L 206.583209 128.847386 
L 206.979645 132.491123 
L 207.078754 131.637122 
L 207.177863 131.708289 
L 207.276972 131.494788 
L 207.376081 131.779455 
L 207.772517 129.032419 
L 207.871626 128.833152 
L 207.970735 129.174753 
L 208.069844 128.747752 
L 208.268062 130.683488 
L 208.763607 133.900224 
L 209.160043 132.177989 
L 209.45737 130.598088 
L 209.655587 131.224355 
L 209.754696 131.153188 
L 210.250241 136.81806 
L 210.34935 137.970961 
L 211.142222 132.476889 
L 211.736876 141.685865 
L 211.835985 141.230398 
L 211.935094 141.942065 
L 212.034203 141.757032 
L 212.33153 139.764363 
L 212.430639 140.105964 
L 212.727965 137.757461 
L 212.926183 134.597658 
L 213.124401 135.181225 
L 213.322619 136.889227 
L 213.421728 136.874994 
L 213.619946 138.881896 
L 213.719055 139.123863 
L 213.818164 139.778597 
L 213.917273 139.081163 
L 214.115491 139.849763 
L 214.313709 137.757461 
L 214.511927 138.739562 
L 214.611036 138.013661 
L 214.710145 138.397962 
L 214.809254 137.928261 
L 214.908363 136.874994 
L 215.106581 138.383729 
L 215.20569 137.515494 
L 215.304799 137.800161 
L 215.403908 139.323129 
L 215.602125 136.90346 
L 215.701234 137.857095 
L 215.800343 136.319893 
L 216.09767 137.216594 
L 216.196779 137.131194 
L 216.394997 136.34836 
L 216.494106 137.216594 
L 216.791433 148.290138 
L 216.890542 144.931068 
L 217.08876 132.206456 
L 217.187869 133.658257 
L 217.386087 142.127099 
L 217.584305 142.710666 
L 217.782523 140.21983 
L 218.178959 153.342977 
L 218.377177 146.68177 
L 218.476285 146.411336 
L 218.575394 145.742369 
L 218.674503 147.222637 
L 218.872721 146.923737 
L 218.97183 147.663871 
L 219.070939 146.454036 
L 219.170048 147.236871 
L 219.269157 146.21207 
L 219.467375 140.888798 
L 219.566484 141.401198 
L 219.764702 145.600036 
L 219.863811 145.614269 
L 220.161138 147.179937 
L 220.656683 152.574376 
L 221.053119 148.418238 
L 221.152228 149.243773 
L 221.251337 148.275905 
L 221.350446 148.375538 
L 221.449554 148.859472 
L 221.647772 146.496736 
L 221.746881 147.02337 
L 221.945099 151.378775 
L 222.044208 152.090442 
L 222.143317 151.990809 
L 222.341535 149.82734 
L 222.440644 149.69924 
L 222.638862 150.823674 
L 222.737971 150.197407 
L 222.936189 148.404005 
L 223.134407 147.920071 
L 223.233516 150.282807 
L 223.431734 149.158372 
L 223.82817 153.969244 
L 224.026388 151.706142 
L 224.323715 155.392579 
L 224.422823 155.036745 
L 224.521932 154.495878 
L 224.72015 151.435708 
L 224.819259 152.232775 
L 224.918368 152.090442 
L 225.017477 151.449941 
L 225.215695 149.343406 
L 225.413913 152.745176 
L 225.513022 152.716709 
L 225.810349 148.261672 
L 225.909458 147.891605 
L 226.107676 150.994474 
L 226.206785 150.353974 
L 226.305894 150.994474 
L 226.405003 149.314939 
L 226.504112 149.855806 
L 226.70233 153.883844 
L 226.999657 154.538578 
L 227.098766 153.727277 
L 227.296984 154.396244 
L 227.59431 152.716709 
L 227.693419 152.702476 
L 227.792528 153.599177 
L 227.891637 153.499543 
L 227.990746 154.097344 
L 228.188964 152.360876 
L 228.288073 152.303942 
L 228.387182 151.834242 
L 228.5854 153.086776 
L 228.684509 152.118909 
L 229.477381 159.392149 
L 229.57649 159.036315 
L 229.675599 158.509682 
L 230.171144 151.421475 
L 230.369361 154.752078 
L 230.567579 153.798444 
L 230.765797 155.207545 
L 230.864906 154.552811 
L 230.964015 154.709378 
L 231.063124 153.713044 
L 231.162233 154.994045 
L 231.261342 157.883414 
L 231.360451 157.741081 
L 231.558669 156.018846 
L 231.657778 154.595511 
L 231.855996 155.349879 
L 232.054214 153.556477 
L 232.252432 153.542243 
L 232.351541 153.342977 
L 232.549759 155.050978 
L 232.747977 151.250674 
L 232.847086 151.435708 
L 232.946195 150.709807 
L 233.34263 157.31408 
L 233.838175 149.798873 
L 234.036393 151.777308 
L 234.234611 150.595941 
L 234.531938 154.837478 
L 234.631047 154.851711 
L 234.829265 157.997281 
L 235.027483 155.150612 
L 235.225701 151.350308 
L 235.32481 152.474742 
L 235.523028 151.862708 
L 235.820355 154.424711 
L 235.919464 154.011944 
L 236.117682 151.919642 
L 236.216791 152.389342 
L 236.514117 155.065212 
L 236.613226 154.495878 
L 236.910553 151.065641 
L 237.009662 149.841573 
L 237.108771 150.709807 
L 237.306989 153.898077 
L 237.505207 151.763075 
L 237.604316 152.005042 
L 237.703425 152.602842 
L 237.802534 152.303942 
L 237.901643 151.535341 
L 238.298079 154.951345 
L 238.397188 154.851711 
L 239.289168 147.265337 
L 239.388277 147.364971 
L 239.586495 143.863567 
L 239.982931 146.89527 
L 240.280258 151.763075 
L 240.379367 151.948109 
L 240.478476 151.791542 
L 240.775803 149.044506 
L 240.874912 149.243773 
L 241.172239 148.019705 
L 241.568675 144.746035 
L 241.667784 145.073402 
L 241.866002 146.454036 
L 241.965111 146.21207 
L 242.06422 146.610603 
L 242.559764 142.639499 
L 242.658873 142.340599 
L 242.757982 142.966866 
L 242.9562 141.956299 
L 243.649963 148.332838 
L 244.442835 141.842432 
L 244.641053 143.650067 
L 244.839271 144.447134 
L 244.93838 144.062834 
L 245.235706 138.155995 
L 245.334815 138.639929 
L 245.632142 142.468699 
L 245.83036 141.828199 
L 246.226796 137.828628 
L 246.325905 137.472794 
L 246.425014 137.842861 
L 246.524123 135.907126 
L 246.82145 137.800161 
L 246.920559 139.53663 
L 247.217886 137.757461 
L 247.614322 132.747323 
L 247.713431 133.857524 
L 247.911649 137.458561 
L 248.010758 136.81806 
L 248.208975 138.013661 
L 248.308084 137.230827 
L 248.407193 137.330461 
L 248.506302 137.415861 
L 248.605411 137.857095 
L 249.001847 134.127958 
L 249.200065 135.053125 
L 249.497392 138.141762 
L 249.794719 136.81806 
L 249.893828 136.917694 
L 250.092046 136.73266 
L 250.191155 137.672061 
L 250.389373 136.73266 
L 250.488482 136.661494 
L 250.587591 136.035226 
L 250.6867 136.34836 
L 250.785809 135.907126 
L 250.984027 134.441091 
L 251.182244 133.999858 
L 251.380462 135.722093 
L 251.479571 135.494359 
L 252.074225 139.294663 
L 252.272443 137.287761 
L 252.371552 138.298328 
L 252.470661 137.501261 
L 252.668879 137.985195 
L 252.767988 137.600894 
L 252.867097 137.871328 
L 252.966206 136.09216 
L 253.065315 136.22026 
L 253.164424 136.56186 
L 253.263533 136.334127 
L 253.362642 137.159661 
L 253.461751 137.003094 
L 253.56086 138.568762 
L 253.659969 138.469129 
L 253.759078 137.145427 
L 253.858187 137.686295 
L 254.353731 135.352026 
L 255.047494 141.757032 
L 255.146603 141.315798 
L 255.245712 142.041699 
L 255.543039 141.244631 
L 255.939475 136.576093 
L 256.038584 136.234493 
L 256.335911 136.64726 
L 256.43502 138.241395 
L 256.633238 137.159661 
L 256.732347 138.839196 
L 256.831456 137.472794 
L 256.930565 137.543961 
L 257.029673 138.056362 
L 257.128782 137.173894 
L 257.227891 137.202361 
L 257.426109 136.64726 
L 257.525218 136.68996 
L 257.723436 133.800591 
L 257.822545 133.843291 
L 258.020763 135.850193 
L 258.218981 135.053125 
L 258.31809 135.181225 
L 258.417199 134.540725 
L 258.516308 134.697292 
L 258.714526 133.58709 
L 258.813635 134.882325 
L 258.912744 134.825392 
L 259.110962 136.39106 
L 259.210071 136.13486 
L 259.507398 134.853858 
L 259.606507 135.252392 
L 259.804725 134.156424 
L 260.20116 137.131194 
L 260.300269 136.60456 
L 260.696705 132.975057 
L 260.795814 132.86119 
L 260.894923 133.07469 
L 261.390468 136.633027 
L 261.588686 136.98886 
L 262.18334 133.985624 
L 262.282449 134.611891 
L 262.480667 134.184891 
L 262.579776 134.270291 
L 262.976211 136.576093 
L 263.07532 135.992526 
L 263.174429 137.003094 
L 263.372647 135.465892 
L 263.471756 136.020993 
L 263.669974 135.209692 
L 263.769083 135.764793 
L 263.868192 135.152759 
L 264.165519 136.13486 
L 264.264628 136.020993 
L 264.363737 135.280859 
L 264.462846 135.352026 
L 264.561955 135.707859 
L 264.661064 135.537059 
L 264.760173 134.782692 
L 264.859282 135.166992 
L 265.354827 132.519589 
L 265.453936 132.163756 
L 265.553045 133.686724 
L 265.652154 133.644024 
L 265.751263 133.28819 
L 265.850372 133.942924 
L 265.94948 133.814824 
L 266.048589 135.295092 
L 266.147698 135.166992 
L 266.246807 135.352026 
L 266.345916 135.807493 
L 266.445025 135.423192 
L 266.544134 136.17756 
L 266.643243 135.437426 
L 266.94057 136.43376 
L 267.039679 137.657828 
L 267.138788 137.259294 
L 267.337006 138.938829 
L 267.436115 138.682629 
L 267.535224 139.237729 
L 267.832551 138.796496 
L 267.93166 138.924596 
L 268.328096 137.116961 
L 268.526314 139.40853 
L 268.922749 134.583425 
L 269.120967 140.020563 
L 269.319185 138.867662 
L 269.418294 137.871328 
L 269.517403 138.127528 
L 269.616512 138.056362 
L 269.715621 138.141762 
L 269.81473 138.526062 
L 269.913839 138.397962 
L 270.012948 138.839196 
L 270.211166 138.127528 
L 270.409384 139.550863 
L 270.508493 139.465463 
L 270.607602 138.711096 
L 271.103147 141.586232 
L 271.301365 144.190934 
L 271.598692 141.515065 
L 271.697801 142.013232 
L 271.896018 144.375968 
L 271.995127 144.304801 
L 272.094236 145.628502 
L 272.094236 145.628502 
" style="fill:none;stroke:#ff7f0e;stroke-linecap:square;stroke-width:1.5;"/>
   </g>
   <g id="line2d_17">
    <path clip-path="url(#p6a521e7187)" d="M 272.193345 146.824103 
L 272.490672 149.685006 
L 272.68889 149.400339 
L 272.787999 150.567474 
L 272.887108 149.713473 
L 273.085326 147.080304 
L 273.184435 146.881037 
L 273.481762 149.186839 
L 273.67998 151.933875 
L 273.779089 151.435708 
L 273.878198 152.232775 
L 274.076416 150.496307 
L 274.472852 148.532105 
L 274.571961 148.930639 
L 274.869287 153.883844 
L 274.968396 153.39991 
L 275.166614 154.937111 
L 275.364832 152.830576 
L 275.56305 154.325078 
L 275.662159 154.239677 
L 275.860377 157.712614 
L 276.058595 156.531246 
L 276.157704 156.118479 
L 276.653249 151.891175 
L 276.752358 152.716709 
L 277.049685 156.744747 
L 277.148794 157.399481 
L 277.247903 157.171747 
L 277.446121 158.893982 
L 277.54523 158.495448 
L 277.743448 158.054214 
L 278.139883 155.307178 
L 278.238992 155.349879 
L 278.43721 153.61341 
L 278.635428 155.734179 
L 278.932755 161.356351 
L 279.031864 161.783351 
L 279.230082 160.616217 
L 279.527409 159.235582 
L 279.824736 161.655251 
L 280.022954 160.189217 
L 280.122063 160.744317 
L 280.221172 160.829717 
L 280.320281 160.644684 
L 280.815825 162.665819 
L 280.914934 162.765452 
L 281.212261 157.726848 
L 281.31137 155.463745 
L 281.410479 155.691479 
L 282.005133 168.216824 
L 282.104242 167.889457 
L 282.599787 163.26362 
L 282.798005 166.494589 
L 283.095332 172.856896 
L 283.29355 168.373391 
L 283.689985 162.210352 
L 283.789094 162.495019 
L 283.888203 163.235153 
L 284.18553 166.309556 
L 284.284639 166.423423 
L 284.383748 165.967956 
L 284.581966 167.277424 
L 284.780184 166.238389 
L 284.879293 167.17779 
L 285.077511 165.911022 
L 285.17662 165.725989 
L 285.473947 161.569851 
L 285.573056 162.124952 
L 286.068601 169.611693 
L 286.16771 169.540526 
L 286.266819 169.597459 
L 286.762363 166.152989 
L 286.861472 166.195689 
L 286.960581 166.451889 
L 287.158799 163.719087 
L 287.456126 159.733749 
L 287.654344 159.235582 
L 287.753453 157.840714 
L 287.951671 159.079016 
L 288.05078 158.481215 
L 288.546325 162.708519 
L 288.645434 161.968385 
L 288.744543 162.224585 
L 288.942761 161.527151 
L 289.140979 159.747983 
L 289.537415 155.193312 
L 289.735632 158.153848 
L 289.834741 157.726848 
L 289.93385 157.854948 
L 290.032959 158.324648 
L 290.429395 154.538578 
L 290.528504 154.339311 
L 290.627613 153.769977 
L 290.825831 152.332409 
L 290.92494 152.588609 
L 291.024049 152.417809 
L 291.618703 145.486169 
L 292.015139 142.853 
L 292.213357 140.13443 
L 292.312466 140.461797 
L 292.411575 140.21983 
L 292.510684 139.45123 
L 292.609792 139.693196 
L 293.501773 129.117819 
L 293.600882 129.729853 
L 293.699991 129.473653 
L 293.898209 128.306519 
L 294.294645 121.844579 
L 294.393754 122.99748 
L 294.591972 121.446045 
L 294.691081 121.559912 
L 294.889299 120.108111 
L 294.988408 120.250444 
L 295.285735 119.154476 
L 295.384844 119.154476 
L 295.68217 117.759608 
L 295.781279 116.393207 
L 295.880388 116.620941 
L 295.979497 116.464374 
L 296.177715 114.044705 
L 296.375933 115.240306 
L 296.970587 108.806833 
L 297.069696 108.764133 
L 297.267914 106.315997 
L 297.367023 106.315997 
L 297.466132 105.81783 
L 297.565241 106.045563 
L 297.66435 106.657597 
L 297.763459 106.501031 
L 297.862568 107.283865 
L 297.961677 106.686064 
L 298.159895 103.711295 
L 298.259004 103.255827 
L 298.55633 99.654791 
L 298.754548 98.174522 
L 298.952766 95.968354 
L 299.051875 96.096454 
L 299.250093 95.982587 
L 299.349202 96.238787 
L 299.54742 94.772752 
L 299.646529 94.872386 
L 299.943856 91.484849 
L 300.142074 89.791081 
L 300.241183 87.997679 
L 300.340292 88.083079 
L 300.439401 88.609713 
L 300.736728 86.673978 
L 300.835837 86.987111 
L 300.934946 87.698779 
L 301.529599 78.105503 
L 301.926035 71.785897 
L 302.025144 72.412164 
L 302.124253 71.54393 
L 302.223362 71.558163 
L 302.42158 74.362132 
L 302.818016 75.813934 
L 302.917125 74.661033 
L 303.016234 74.9457 
L 303.115343 74.561399 
L 303.214452 73.650465 
L 303.313561 74.789133 
L 303.41267 73.550832 
L 303.511779 73.992065 
L 303.908215 78.717537 
L 304.007324 79.229937 
L 304.205542 81.108739 
L 304.40376 81.421873 
L 304.502868 81.222606 
L 304.998413 87.784179 
L 305.593067 118.471276 
L 305.989503 160.559284 
L 306.584157 218.916008 
L 306.980593 236.764625 
L 307.178811 238.515327 
L 307.27792 238.458393 
L 307.476137 242.05943 
L 307.575246 242.116364 
L 307.872573 240.052528 
L 308.1699 232.878921 
L 308.863663 204.782294 
L 309.359208 190.73398 
L 309.854753 168.401858 
L 311.04406 115.752706 
L 311.737823 61.196286 
L 312.134259 47.318773 
L 312.332477 44.443636 
L 312.431586 45.653471 
L 312.530695 45.425737 
L 312.728913 48.357807 
L 313.224458 69.053094 
L 314.116438 123.609514 
L 315.404855 172.799962 
L 315.702182 179.133802 
L 316.296835 188.428178 
L 317.089707 212.624868 
L 317.188816 213.080335 
L 317.287925 214.062436 
L 317.486143 211.813567 
L 317.684361 206.390662 
L 317.882579 200.782723 
L 318.279015 180.115903 
L 319.765649 83.371841 
L 320.459412 66.505325 
L 320.954957 62.975455 
L 321.252284 65.879057 
L 321.549611 67.800559 
L 321.64872 66.960792 
L 322.243373 77.322669 
L 322.441591 84.097742 
L 323.135354 114.998339 
L 324.52288 209.393898 
L 324.919316 226.075381 
L 325.216642 234.088756 
L 325.41486 234.601156 
L 325.513969 234.928523 
L 325.613078 234.843123 
L 325.712187 235.227424 
L 326.207732 223.655712 
L 327.991694 149.91274 
L 328.28902 138.298328 
L 328.586347 131.053555 
L 329.181001 118.642076 
L 329.676546 109.105733 
L 329.775655 108.821066 
L 329.874764 107.084598 
L 329.973873 107.241165 
L 331.16318 137.287761 
L 331.658725 160.687384 
L 332.15427 179.105335 
L 332.451597 186.592076 
L 332.649815 189.424512 
L 333.14536 199.145888 
L 333.442687 201.36629 
L 333.541796 201.337824 
L 334.136449 192.683948 
L 334.235558 192.726649 
L 334.731103 187.659577 
L 335.226648 176.287132 
L 335.722193 162.495019 
L 336.812392 129.530587 
L 337.208827 118.841343 
L 337.90259 109.3904 
L 338.001699 109.717767 
L 338.100808 109.361933 
L 338.199917 108.280199 
L 338.299026 108.949166 
L 338.398135 107.910132 
L 338.497244 108.522166 
L 338.695462 110.657168 
L 339.091898 117.289908 
L 339.389225 121.858812 
L 339.88477 128.064552 
L 340.380314 139.49393 
L 341.272295 151.805775 
L 341.371404 152.061975 
L 341.569622 154.851711 
L 341.668731 155.008278 
L 341.866949 156.331979 
L 342.065167 158.182315 
L 342.263385 160.345783 
L 342.362494 159.81915 
L 342.461603 160.58775 
L 342.560712 160.174983 
L 343.353583 151.065641 
L 344.344673 126.541584 
L 345.137545 107.682398 
L 345.236654 107.070364 
L 345.434872 103.967495 
L 346.227743 98.84349 
L 346.326852 98.530356 
L 346.52507 100.921558 
L 346.723288 99.540924 
L 347.119724 103.141961 
L 348.110814 110.159001 
L 348.50725 116.393207 
L 348.606359 115.453806 
L 349.39923 122.171946 
L 349.498339 122.115013 
L 349.795666 123.936881 
L 349.894775 124.548915 
L 349.993884 123.637981 
L 350.092993 123.737614 
L 350.192102 123.794548 
L 350.291211 124.107681 
L 350.39032 125.331749 
L 351.282301 110.614468 
L 351.480519 105.590096 
L 351.579628 105.590096 
L 351.777846 101.661693 
L 351.976063 95.242453 
L 352.075172 94.473852 
L 352.372499 86.759378 
L 352.471608 85.307576 
L 352.570717 85.677643 
L 352.669826 85.634943 
L 352.967153 81.74924 
L 353.066262 80.923705 
L 353.26448 76.482901 
L 353.363589 76.511368 
L 353.561807 74.803366 
L 354.156461 81.87734 
L 354.25557 82.546307 
L 354.354679 81.863106 
L 354.552897 77.322669 
L 354.751115 81.606906 
L 355.14755 94.587719 
L 355.246659 94.103785 
L 355.345768 92.851251 
L 355.543986 87.855346 
L 355.742204 88.837447 
L 356.237749 99.028523 
L 356.336858 99.35589 
L 356.832403 109.376167 
L 357.12973 117.560341 
L 357.228839 119.12601 
L 357.625275 130.384587 
L 357.823492 134.184891 
L 358.319037 147.051837 
L 358.418146 147.179937 
L 358.517255 148.660205 
L 358.913691 161.911452 
L 359.0128 162.238819 
L 359.111909 163.448653 
L 359.409236 173.51163 
L 359.508345 174.351397 
L 359.607454 174.337164 
L 359.805672 172.557995 
L 359.904781 173.51163 
L 360.00389 173.184263 
L 360.301217 169.355492 
L 360.499435 170.864227 
L 360.697653 171.689761 
L 361.094088 161.043217 
L 361.193197 161.968385 
L 361.490524 158.096915 
L 361.787851 151.492641 
L 361.88696 153.200643 
L 361.986069 152.773643 
L 362.184287 148.332838 
L 362.283396 147.493071 
L 363.076268 130.156854 
L 363.373595 126.342317 
L 363.472704 126.44195 
L 364.067357 116.008907 
L 364.364684 117.944642 
L 364.562902 116.250873 
L 364.662011 117.304141 
L 364.860229 116.976774 
L 364.959338 117.232974 
L 365.950428 134.811158 
L 366.941517 158.865515 
L 367.536171 165.911022 
L 367.932607 174.764164 
L 368.329043 178.763735 
L 368.527261 178.891835 
L 368.62637 180.95567 
L 368.725479 180.40057 
L 368.824588 180.884504 
L 369.022806 182.891406 
L 369.221024 184.030073 
L 369.419242 182.037405 
L 369.815677 175.973999 
L 370.212113 168.017558 
L 370.608549 162.623119 
L 371.004985 155.107912 
L 371.599639 140.703764 
L 371.797857 136.149093 
L 372.095184 129.80102 
L 372.392511 126.769317 
L 372.49162 125.246349 
L 372.590729 126.299617 
L 372.788946 129.402486 
L 373.185382 136.26296 
L 373.3836 139.052696 
L 373.581818 141.244631 
L 373.581818 141.244631 
" style="fill:none;stroke:#2ca02c;stroke-linecap:square;stroke-width:1.5;"/>
   </g>
   <g id="patch_3">
    <path d="M 54 252 
L 54 34.56 
" style="fill:none;stroke:#000000;stroke-linecap:square;stroke-linejoin:miter;stroke-width:0.8;"/>
   </g>
   <g id="patch_4">
    <path d="M 388.8 252 
L 388.8 34.56 
" style="fill:none;stroke:#000000;stroke-linecap:square;stroke-linejoin:miter;stroke-width:0.8;"/>
   </g>
   <g id="patch_5">
    <path d="M 54 252 
L 388.8 252 
" style="fill:none;stroke:#000000;stroke-linecap:square;stroke-linejoin:miter;stroke-width:0.8;"/>
   </g>
   <g id="patch_6">
    <path d="M 54 34.56 
L 388.8 34.56 
" style="fill:none;stroke:#000000;stroke-linecap:square;stroke-linejoin:miter;stroke-width:0.8;"/>
   </g>
   <g id="text_17">
    <!-- 3 consecutive chunks -->
    <g transform="translate(156.508125 28.56)scale(0.12 -0.12)">
     <defs>
      <path id="DejaVuSans-32"/>
      <path d="M 48.78125 52.59375 
L 48.78125 44.1875 
Q 44.96875 46.296875 41.140625 47.34375 
Q 37.3125 48.390625 33.40625 48.390625 
Q 24.65625 48.390625 19.8125 42.84375 
Q 14.984375 37.3125 14.984375 27.296875 
Q 14.984375 17.28125 19.8125 11.734375 
Q 24.65625 6.203125 33.40625 6.203125 
Q 37.3125 6.203125 41.140625 7.25 
Q 44.96875 8.296875 48.78125 10.40625 
L 48.78125 2.09375 
Q 45.015625 0.34375 40.984375 -0.53125 
Q 36.96875 -1.421875 32.421875 -1.421875 
Q 20.0625 -1.421875 12.78125 6.34375 
Q 5.515625 14.109375 5.515625 27.296875 
Q 5.515625 40.671875 12.859375 48.328125 
Q 20.21875 56 33.015625 56 
Q 37.15625 56 41.109375 55.140625 
Q 45.0625 54.296875 48.78125 52.59375 
z
" id="DejaVuSans-99"/>
      <path d="M 30.609375 48.390625 
Q 23.390625 48.390625 19.1875 42.75 
Q 14.984375 37.109375 14.984375 27.296875 
Q 14.984375 17.484375 19.15625 11.84375 
Q 23.34375 6.203125 30.609375 6.203125 
Q 37.796875 6.203125 41.984375 11.859375 
Q 46.1875 17.53125 46.1875 27.296875 
Q 46.1875 37.015625 41.984375 42.703125 
Q 37.796875 48.390625 30.609375 48.390625 
z
M 30.609375 56 
Q 42.328125 56 49.015625 48.375 
Q 55.71875 40.765625 55.71875 27.296875 
Q 55.71875 13.875 49.015625 6.21875 
Q 42.328125 -1.421875 30.609375 -1.421875 
Q 18.84375 -1.421875 12.171875 6.21875 
Q 5.515625 13.875 5.515625 27.296875 
Q 5.515625 40.765625 12.171875 48.375 
Q 18.84375 56 30.609375 56 
z
" id="DejaVuSans-111"/>
      <path d="M 54.890625 33.015625 
L 54.890625 0 
L 45.90625 0 
L 45.90625 32.71875 
Q 45.90625 40.484375 42.875 44.328125 
Q 39.84375 48.1875 33.796875 48.1875 
Q 26.515625 48.1875 22.3125 43.546875 
Q 18.109375 38.921875 18.109375 30.90625 
L 18.109375 0 
L 9.078125 0 
L 9.078125 54.6875 
L 18.109375 54.6875 
L 18.109375 46.1875 
Q 21.34375 51.125 25.703125 53.5625 
Q 30.078125 56 35.796875 56 
Q 45.21875 56 50.046875 50.171875 
Q 54.890625 44.34375 54.890625 33.015625 
z
" id="DejaVuSans-110"/>
      <path d="M 2.984375 54.6875 
L 12.5 54.6875 
L 29.59375 8.796875 
L 46.6875 54.6875 
L 56.203125 54.6875 
L 35.6875 0 
L 23.484375 0 
z
" id="DejaVuSans-118"/>
      <path d="M 54.890625 33.015625 
L 54.890625 0 
L 45.90625 0 
L 45.90625 32.71875 
Q 45.90625 40.484375 42.875 44.328125 
Q 39.84375 48.1875 33.796875 48.1875 
Q 26.515625 48.1875 22.3125 43.546875 
Q 18.109375 38.921875 18.109375 30.90625 
L 18.109375 0 
L 9.078125 0 
L 9.078125 75.984375 
L 18.109375 75.984375 
L 18.109375 46.1875 
Q 21.34375 51.125 25.703125 53.5625 
Q 30.078125 56 35.796875 56 
Q 45.21875 56 50.046875 50.171875 
Q 54.890625 44.34375 54.890625 33.015625 
z
" id="DejaVuSans-104"/>
      <path d="M 9.078125 75.984375 
L 18.109375 75.984375 
L 18.109375 31.109375 
L 44.921875 54.6875 
L 56.390625 54.6875 
L 27.390625 29.109375 
L 57.625 0 
L 45.90625 0 
L 18.109375 26.703125 
L 18.109375 0 
L 9.078125 0 
z
" id="DejaVuSans-107"/>
     </defs>
     <use xlink:href="#DejaVuSans-51"/>
     <use x="63.623047" xlink:href="#DejaVuSans-32"/>
     <use x="95.410156" xlink:href="#DejaVuSans-99"/>
     <use x="150.390625" xlink:href="#DejaVuSans-111"/>
     <use x="211.572266" xlink:href="#DejaVuSans-110"/>
     <use x="274.951172" xlink:href="#DejaVuSans-115"/>
     <use x="327.050781" xlink:href="#DejaVuSans-101"/>
     <use x="388.574219" xlink:href="#DejaVuSans-99"/>
     <use x="443.554688" xlink:href="#DejaVuSans-117"/>
     <use x="506.933594" xlink:href="#DejaVuSans-116"/>
     <use x="546.142578" xlink:href="#DejaVuSans-105"/>
     <use x="573.925781" xlink:href="#DejaVuSans-118"/>
     <use x="633.105469" xlink:href="#DejaVuSans-101"/>
     <use x="694.628906" xlink:href="#DejaVuSans-32"/>
     <use x="726.416016" xlink:href="#DejaVuSans-99"/>
     <use x="781.396484" xlink:href="#DejaVuSans-104"/>
     <use x="844.775391" xlink:href="#DejaVuSans-117"/>
     <use x="908.154297" xlink:href="#DejaVuSans-110"/>
     <use x="971.533203" xlink:href="#DejaVuSans-107"/>
     <use x="1029.443359" xlink:href="#DejaVuSans-115"/>
    </g>
   </g>
  </g>
 </g>
 <defs>
  <clipPath id="p6a521e7187">
   <rect height="217.44" width="334.8" x="54" y="34.56"/>
  </clipPath>
 </defs>
</svg>
